<?xml version="1.0" standalone="no"?>
<!DOCTYPE svg PUBLIC "-//W3C//DTD SVG 1.1//EN" "http://www.w3.org/Graphics/SVG/1.1/DTD/svg11.dtd" >
<svg>
<metadata>
Created by FontForge 20090914 at Mon Mar 29 06:47:03 2021
 By www-data
Typeface &#194;&#169; (Kong Font). 2020. All Rights Reserved (kongvector@gmail.com).
</metadata>
<defs>
<font id="Luimp" horiz-adv-x="334" >
  <font-face 
    font-family="Luimp"
    font-weight="400"
    font-stretch="normal"
    units-per-em="2048"
    panose-1="2 0 6 0 0 0 0 0 0 0"
    ascent="1638"
    descent="-410"
    x-height="994.999"
    cap-height="1432"
    bbox="-752 -530 2120 1912"
    underline-thickness="150"
    underline-position="-142"
    unicode-range="U+0020-U+2026"
  />
<missing-glyph horiz-adv-x="1024" 
d="M100 0v1434h824v-1434h-824zM150 50h724v1334h-724v-1334zM325 1148c20.667 18.667 40.002 32.998 58.002 42.998c35.333 20 72.666 30 111.999 30c61.333 0 110.666 -15.833 147.999 -47.5s56 -74.167 56 -127.5c0 -32.667 -7.66699 -65.5 -23 -98.5
s-44.333 -76.167 -87 -129.5c-42 -53.333 -75 -97.333 -99 -132s-36 -67.667 -36 -99c0 -25.333 8 -69.666 24 -132.999h-32c-23.333 64.667 -35 114 -35 148c0 50.667 27.167 123.334 81.5 218.001s81.5 167 81.5 217c0 38 -11 68 -33 90s-52.333 33 -91 33
c-25.333 0 -48.333 -5.66699 -69 -17c-17.333 -10 -36 -23.333 -56 -40v45zM389.002 333.998l57 57.999c7.33301 6.66699 14 10 20 10c6.66699 0 14 -3.66699 22 -11l56 -60c6 -7.33301 9 -14 9 -20c0 -7.33301 -3.33301 -14.666 -10 -21.999l-56 -62
c-9.33301 -9.33301 -16.333 -14 -21 -14c-7.33301 0 -14 3.33301 -20 10l-61 71c-4.66699 6 -7 12 -7 18c0 6.66699 3.66699 14 11 22z" />
    <glyph glyph-name="T_T" unicode="TT" horiz-adv-x="1754" 
d="M730 -1h-229h-104v5h10c6.66699 0 15 1.33301 25 4c42.667 10.667 65.667 46 69 106v1261h-305c-32 0 -58.667 -5.33301 -80 -16c-37.333 -18.667 -64 -46.667 -80 -84c-11.333 -24.667 -17 -42.667 -17 -54h-18l30 208h1065c-52.667 -36 -107.334 -54 -164.001 -54h-305
v-1251c0.666992 -26 4.33398 -47 11.001 -63s15.167 -28.167 25.5 -36.5s20.5 -13.833 30.5 -16.5s18.667 -4 26 -4h10v-5zM1358 -1h-229h-104v5h10c6.66699 0 15 1.33301 25 4c42.667 10.667 65.667 46 69 106v1261h-305c-32 0 -87 18 -165 54h1065l9 -54l21 -154h-17
l-4 16c-6 30 -20 57.667 -42 83c-30.667 36.667 -74.334 55 -131.001 55h-305v-1251c0.666992 -26 4.33398 -47 11.001 -63s15.167 -28.167 25.5 -36.5s20.5 -13.833 30.5 -16.5s18.667 -4 26 -4h10v-5z" />
    <glyph glyph-name="C_O" unicode="CO" horiz-adv-x="1124" 
d="M659 383c-90 3.33301 -161.167 36.3311 -213.5 98.998s-78.5 141.334 -78.5 236.001c2.66699 95.333 31.167 173.5 85.5 234.5s126.5 91.833 216.5 92.5c90 -3.33301 161.167 -36.166 213.5 -98.499s78.5 -140.5 78.5 -234.5v-2c-2.66699 -94.667 -31 -172.667 -85 -234
s-126.333 -92.333 -217 -93zM686 421.998c13.333 0 27 1.33594 41 4.00293c104.667 27.333 157 104.666 157 231.999c0 32.667 -4 67 -12 103c-17.333 75.333 -49.666 137.666 -96.999 186.999c-38 39.333 -82.667 59 -134 59c-13.333 0 -26.666 -1.33301 -39.999 -4
c-69.333 -18.667 -115 -60.334 -137 -125.001c-12.667 -36 -19 -74 -19 -114c0 -31.333 3.66699 -63.333 11 -96c17.333 -76 49.666 -138.333 96.999 -187c37.333 -39.333 81.666 -59 132.999 -59zM648 1366l-0.000976562 64h10c120.667 0 218.167 -28.167 292.5 -84.5
s134.5 -137.833 180.5 -244.5l-43 -17c-87.333 178.667 -212.666 272 -375.999 280l-56 2h-8zM649.999 1366l-0.999023 -0.000976562c-42.667 0 -72.334 -1.33301 -89.001 -4c-124.667 -21.333 -229 -98.666 -313 -231.999c-75.333 -120 -113 -259 -113 -417l1 -50
c24 -203.333 91.667 -350.166 203 -440.499s215 -137.166 311 -140.499c16 -1.33301 32 -2 48 -2c168.667 0 296.667 89.333 384 268l43 -17c-46 -106.667 -106.167 -188.167 -180.5 -244.5s-171.833 -84.5 -292.5 -84.5h-2c-195.333 5.33301 -352.5 75.666 -471.5 210.999
s-178.5 303 -178.5 503s59.5 367.667 178.5 503s276.167 205.666 471.5 210.999h1v-64z" />
    <glyph glyph-name="O_O" unicode="OO" horiz-adv-x="1980" 
d="M1074 157c4.66699 -3.33301 9.66504 -6.66895 14.998 -10.002c98.667 -59.333 192.334 -89 281.001 -89c154 0 285.333 75.667 394 227c62 86.667 93 199.334 93 338.001c0 59.333 -5.66699 123.666 -17 192.999c-84.667 371.333 -265 557 -541 557
c-33.333 0 -66.666 -3.66699 -99.999 -11c-56 -9.33301 -108.667 -29.666 -158 -60.999c28.667 -23.333 56 -49.666 82 -78.999c120.667 -138 181 -307.333 181 -508c0 -200 -60.333 -369 -181 -507c-16 -18 -32.333 -34.667 -49 -50zM988.998 90.9971
c-96.667 -60.667 -209 -91 -337 -91c-192.667 0 -349.5 69 -470.5 207s-181.5 307 -181.5 507c0 200.667 60.5 370 181.5 508s277.833 207 470.5 207c128 0 240.333 -30.333 337 -91c96 60.667 208 91 336 91c193.333 0 350.333 -69 471 -207s181 -307.333 181 -508
c0 -200 -60.333 -369 -181 -507s-277.667 -207 -471 -207c-128 0 -240 30.333 -336 91zM1019 198.997c25.333 25.333 49.3311 54 71.998 86c62 86.667 93 199.334 93 338.001c0 59.333 -5.66699 123.666 -17 192.999c-43.333 189.333 -111.333 330.333 -204 423
c-14 14 -30.333 28.333 -49 43c-80 60.667 -176 91 -288 91c-33.333 0 -66.666 -3.66699 -99.999 -11c-118 -20 -222.333 -89.333 -313 -208c-62.667 -82.667 -94 -195 -94 -337c0 -62 6 -130 18 -204c55.333 -232 148.333 -387.333 279 -466
c98.667 -59.333 192.334 -89 281.001 -89c86.667 0 166 24 238 72c28.667 20 56.667 43 84 69z" />
    <glyph glyph-name="f_f" unicode="ff" horiz-adv-x="1448" 
d="M363 -1l-334 -0.000976562v5h10c20.667 0 39 6.33301 55 19c23.333 18 36.333 48.333 39 91v836h-133v55h133v12c0 150.667 27.167 270 81.5 358s146.5 133 276.5 135c86 -9.33301 141.333 -44.666 166 -105.999c-41.333 34 -93.666 51 -156.999 51h-8
c-132.667 0 -206.667 -85.333 -222 -256c-6.66699 -70 -10 -134.667 -10 -194h351v-55h-351v-834c1.33301 -24.667 5.66602 -44.334 12.999 -59.001c12 -27.333 30.333 -43.666 55 -48.999l35 -4v-5zM974 -1.00098h-333.999v5h10c20.667 0 39 6.33301 55 19
c23.333 18 36.333 48.333 39 91v836h-133v55h133v12c0 150.667 27.167 270 81.5 358s146.5 133 276.5 135h23c20 0 43.667 -2 71 -6s64 -16.333 110 -37c59.333 -29.333 102.333 -71.333 129 -126c9.33301 -19.333 14 -37.333 14 -54c0 -32.667 -16.333 -61.667 -49 -87
c-15.333 -10 -27.333 -15 -36 -15c-14.667 0 -23.334 20.333 -26.001 61c-1.33301 13.333 -3.33301 26.333 -6 39c-14 55.333 -35.333 95 -64 119c-41.333 34 -93.666 51 -156.999 51h-8c-132.667 0 -206.667 -85.333 -222 -256c-6.66699 -70 -10 -134.667 -10 -194h351v-55
h-351v-834c1.33301 -24.667 5.66602 -44.334 12.999 -59.001c12 -27.333 30.333 -43.666 55 -48.999l35 -4v-5z" />
    <glyph glyph-name="f_i" unicode="fi" horiz-adv-x="1088" 
d="M711 961l1 1zM1082 -2l-334.003 0.000976562v6h14c18 0 35 6.33301 51 19c24 18 36.667 49.333 38 94v794c0 20 -4.33301 34.333 -13 43c-11.333 10 -26.666 15 -45.999 15c-6.66699 0 -14.167 -0.833008 -22.5 -2.5s-14.166 -3.16699 -17.499 -4.5
c6 2 20.667 6.5 44 13.5s49.5 13.833 78.5 20.5s53.833 10 74.5 10c14.667 0 23.334 -11.667 26.001 -35c2.66699 -18.667 4 -43.334 4 -74.001v-283h-1l1 -491c0 -46.667 12 -79.667 36 -99c16 -14 35 -21 57 -21h10v-5zM366.997 -0.999023l-333.998 -0.00195312v5h10
c20.667 0 39 6.33301 55 19c23.333 18 36.333 48.333 39 91v836h-133v55h133v12c0 150.667 30.5 269.334 91.5 356.001s166.833 132.334 317.5 137.001h42c20 0 43.667 -2 71 -6s64 -16.333 110 -37c59.333 -29.333 102.333 -71.333 129 -126
c9.33301 -19.333 14 -37.333 14 -54c0 -32.667 -16.333 -61.667 -49 -87c-15.333 -10 -27.333 -15 -36 -15c-14.667 0 -23.334 20.333 -26.001 61c-1.33301 13.333 -3.33301 26.333 -6 39c-14 55.333 -35.333 95 -64 119c-41.333 34 -100 51 -176 51h-8
c-166.667 0 -257.667 -85.333 -273 -256c-6.66699 -70 -10 -134.667 -10 -194h351v-55h-351v-834c1.33301 -24.667 5.66602 -44.334 12.999 -59.001c12 -27.333 30.333 -43.666 55 -48.999l35 -4v-5z" />
    <glyph glyph-name="i_m" unicode="im" horiz-adv-x="1576" 
d="M995 -2l-102.999 1.00098h-230v5h10c18.667 0 36.334 5.66699 53.001 17c23.333 15.333 36.666 43.666 39.999 84.999v394c0 86 -6.66699 162.833 -20 230.5s-40.333 121.167 -81 160.5s-102.667 59 -186 59c-68.667 0 -124 -20.333 -166 -61s-69 -84 -81 -130v-636
c0 -47.333 12.333 -80.333 37 -99c16 -14 34.667 -21 56 -21h10v-5h-334v6h14c17.333 0 34.666 6.33301 51.999 19c22.667 16.667 35.334 48 38.001 94v792c0 20 -4.33301 34.333 -13 43c-11.333 10 -26.666 15 -45.999 15c-13.333 0 -27 -2.33301 -41 -7
c6 2 20.667 6.5 44 13.5s49.666 13.833 78.999 20.5s54 10 74 10c14.667 0 23.667 -11.333 27 -34c2 -18 3 -42.667 3 -74c62 72 153.333 108 274 108c126 0 220 -38.333 282 -115c22 24.667 58 50 108 76s114.667 39 194 39c257.333 0 386 -161.333 386 -484l1 -400
c0 -16.667 3.33301 -31 10 -43c11.333 -20.667 29.666 -36 54.999 -46l36 -10l-23 -7c-32.667 -10 -63.667 -15 -93 -15c-9.33301 0 -22 1 -38 3c-49.333 6 -74 51.333 -74 136l-1 362c0 86 -6.66699 162.833 -20 230.5s-40.333 121.167 -81 160.5s-102.667 59 -186 59
c-51.333 0 -96.833 -12 -136.5 -36s-71.5 -52.667 -95.5 -86c28.667 -57.333 46.667 -116 54 -176c6 -50 9 -94 9 -132v-396c0 -48 12.333 -81.333 37 -100c16.667 -13.333 34 -20 52 -20h14v-6zM146.001 1148c-23.333 0 -43.166 8.16699 -59.499 24.5
s-24.5 36.166 -24.5 59.499s8.16699 43.166 24.5 59.499s36.166 24.5 59.499 24.5s43.166 -8.16699 59.499 -24.5s24.5 -36.166 24.5 -59.499s-8.16699 -43.166 -24.5 -59.499s-36.166 -24.5 -59.499 -24.5z" />
    <glyph glyph-name="i_h" unicode="in" horiz-adv-x="1018" 
d="M335 -6h-335v6h15c18 -0 35 6.33301 51 19c24 18 36.667 49.333 38 94v792c0 20 -4.33301 34.333 -13 43c-11.333 10 -26.666 15 -45.999 15c-14.667 0 -28 -2.33301 -40 -7c6 2 20.667 6.5 44 13.5s49.5 13.833 78.5 20.5s53.5 10 73.5 10
c15.333 0 24.333 -11.333 27 -34c2 -18 3 -43 3 -75c23.333 24.667 59.5 49 108.5 73s111.5 36 187.5 36c257.333 0 386 -161.333 386 -484l1 -400c0 -16.667 3.66699 -31 11 -43c11.333 -20.667 29.333 -36 54 -46l36 -10l-23 -7c-32.667 -10 -63.667 -15 -93 -15
c-9.33301 0 -22 1 -38 3c-49.333 6.66699 -74 52 -74 136l-1 362c0 86 -6.66699 162.833 -20 230.5s-40.333 121.167 -81 160.5s-102.667 59 -186 59c-69.333 0 -127.833 -20.667 -175.5 -62s-78.5 -85 -92.5 -131v-634c1.33301 -48.667 13.666 -81.667 36.999 -99
c16 -14 35 -21 57 -21h10v-5zM146 1148c-23.333 0 -43.166 8.16699 -59.499 24.5s-24.5 36.166 -24.5 59.499s8.16699 43.166 24.5 59.499s36.166 24.5 59.499 24.5s43.166 -8.16699 59.499 -24.5s24.5 -36.166 24.5 -59.499s-8.16699 -43.166 -24.5 -59.499
s-36.166 -24.5 -59.499 -24.5z" />
    <glyph glyph-name="t_t" unicode="tt" horiz-adv-x="1448" 
d="M463 -10l-18.001 1c-84 6.66699 -147.5 35.5 -190.5 86.5s-71.333 126.833 -85 227.5s-20.5 229.667 -20.5 387v253h-150v54c47.333 0 87.333 9.66699 120 29s59.334 42.833 80.001 70.5s36.334 55.334 47.001 83.001s18 51.167 22 70.5l6 29l2 -282h448v-54h-448l1 -253
l-1 -98l-1 -78c0 -60 2.16699 -123.333 6.5 -190s19.833 -121.334 46.5 -164.001c49.333 -67.333 102.666 -101 159.999 -101c46 0 89.5 12.833 130.5 38.5s72.833 50.5 95.5 74.5l-2 -54c-29.333 -42.667 -69.333 -75.667 -120 -99c-44 -20.667 -87 -31 -129 -31zM1186 -10
l-17.999 1.00098c-84 6.66699 -147.5 35.5 -190.5 86.5s-71.333 126.833 -85 227.5s-20.5 229.667 -20.5 387v253h-150v54h277h448v-54h-448l1 -253l-1 -98l-1 -78c0 -60 2.16699 -123.333 6.5 -190s19.833 -121.334 46.5 -164.001
c49.333 -67.333 102.666 -101 159.999 -101c46 0 89.5 12.833 130.5 38.5s72.833 50.5 95.5 74.5l-2 -54c-29.333 -42.667 -69.333 -75.667 -120 -99c-44 -20.667 -87 -31 -129 -31z" />
    <glyph glyph-name=".notdef" horiz-adv-x="1024" 
d="M100 0v1434h824v-1434h-824zM150 50h724v1334h-724v-1334zM325 1148c20.667 18.667 40.002 32.998 58.002 42.998c35.333 20 72.666 30 111.999 30c61.333 0 110.666 -15.833 147.999 -47.5s56 -74.167 56 -127.5c0 -32.667 -7.66699 -65.5 -23 -98.5
s-44.333 -76.167 -87 -129.5c-42 -53.333 -75 -97.333 -99 -132s-36 -67.667 -36 -99c0 -25.333 8 -69.666 24 -132.999h-32c-23.333 64.667 -35 114 -35 148c0 50.667 27.167 123.334 81.5 218.001s81.5 167 81.5 217c0 38 -11 68 -33 90s-52.333 33 -91 33
c-25.333 0 -48.333 -5.66699 -69 -17c-17.333 -10 -36 -23.333 -56 -40v45zM389.002 333.998l57 57.999c7.33301 6.66699 14 10 20 10c6.66699 0 14 -3.66699 22 -11l56 -60c6 -7.33301 9 -14 9 -20c0 -7.33301 -3.33301 -14.666 -10 -21.999l-56 -62
c-9.33301 -9.33301 -16.333 -14 -21 -14c-7.33301 0 -14 3.33301 -20 10l-61 71c-4.66699 6 -7 12 -7 18c0 6.66699 3.66699 14 11 22z" />
    <glyph glyph-name="space" unicode=" " horiz-adv-x="508" 
 />
    <glyph glyph-name="space" unicode="&#xa0;" horiz-adv-x="508" 
 />
    <glyph glyph-name="exclam" unicode="!" horiz-adv-x="338" 
d="M173 345h-35l-58 1090h177l-48 -1090h-36zM174 -3c-23.333 0 -43.333 8.16699 -60 24.5s-25 36.166 -25 59.499s8.33301 43.166 25 59.499s36.667 24.5 60 24.5c22.667 0 42.334 -8.16699 59.001 -24.5s25 -36.166 25 -59.499s-8.33301 -43.166 -25 -59.499
s-36.334 -24.5 -59.001 -24.5z" />
    <glyph glyph-name="quotedbl" unicode="&#x22;" horiz-adv-x="580" 
d="M105 1416l-0.99707 1c-16 16 -24 35.667 -24 59s8.16699 43.166 24.5 59.499s36.166 24.5 59.499 24.5s43.166 -8.16699 59.499 -24.5s24.5 -36.166 24.5 -59.499c0 -62.667 -32.333 -143 -97 -241c31.333 104.667 35.666 157 12.999 157c-23.333 0 -43 8 -59 24z
M357.003 1416l-0.99707 1c-16 16 -24 35.667 -24 59s8.16699 43.166 24.5 59.499s36.166 24.5 59.499 24.5s43.166 -8.16699 59.499 -24.5s24.5 -36.166 24.5 -59.499c0 -62.667 -32.333 -143 -97 -241c31.333 104.667 35.666 157 12.999 157c-23.333 0 -43 8 -59 24z" />
    <glyph glyph-name="numbersign" unicode="#" horiz-adv-x="1262" 
d="M559 859l-85 -290h242l86 290h-243zM636 1434h93l-141 -477h242l142 477h92l-141 -477h259l-29 -97h-259l-83 -290h279l-30 -98h-280l-140 -472h-92l139 472h-240l-142 -472h-92l140 472h-273l30 98h271l86 290h-295l29 97h295z" />
    <glyph glyph-name="dollar" unicode="$" horiz-adv-x="1232" 
d="M603 0c-92.667 0 -171.663 11.6611 -236.996 34.9941s-118.5 52 -159.5 86s-70.833 67.667 -89.5 101c-12.667 21.333 -23 48.333 -31 81c-4 14.667 -6 29 -6 43c0 17.333 3.66699 38 11 62s30.333 44.667 69 62c12 4.66699 21.667 7 29 7c16 0 24 -14.667 24 -44
c0 -9.33301 -0.833008 -20.166 -2.5 -32.499s-2.5 -24.166 -2.5 -35.499c0 -68.667 19.5 -126 58.5 -172s88.667 -80.667 149 -104s122.833 -35 187.5 -35c270 0 405 87 405 261c0 128.667 -162 267 -486 415c-58.667 26.667 -116.667 56.334 -174 89.001
s-105.333 71.5 -144 116.5s-58 100.167 -58 165.5c0 82.667 45.167 157.334 135.5 224.001s214.833 102 373.5 106c132.667 -1.33301 234.667 -18.333 306 -51c103.333 -47.333 165.333 -113.333 186 -198c3.33301 -14.667 5 -29 5 -43
c0 -17.333 -3.83301 -38.166 -11.5 -62.499s-30.834 -45.5 -69.501 -63.5c-12 -5.33301 -22 -8 -30 -8c-15.333 0 -23 14.667 -23 44c0 8.66699 0.666992 18.167 2 28.5s2 20.5 2 30.5v11c-4.66699 93.333 -39.834 159.5 -105.501 198.5s-152.834 58.5 -261.501 58.5
c-111.333 0 -203 -26 -275 -78s-108 -116.667 -108 -194c0 -62 25.667 -111 77 -147s115.333 -71 192 -105c40 -18.667 81.667 -39.334 125 -62.001l31 -17c87.333 -44.667 164.166 -88.167 230.499 -130.5s118.166 -89.666 155.499 -141.999s56 -117.166 56 -194.499
c0 -54 -17.667 -104.167 -53 -150.5s-92.166 -83.833 -170.499 -112.5s-182.5 -43 -312.5 -43zM585.004 1613.99h63v-1798h-63v1798z" />
    <glyph glyph-name="percent" unicode="%" horiz-adv-x="971" 
d="M283 42l-70 2l455 1331l71 -2zM255 849c-52 0 -94.167 21.667 -126.5 65s-48.5 96.666 -48.5 159.999s16.167 116.833 48.5 160.5s74.5 65.5 126.5 65.5c51.333 0 93.166 -21.833 125.499 -65.5s48.5 -97.167 48.5 -160.5s-16.167 -116.666 -48.5 -159.999
s-74.166 -65 -125.499 -65zM266 867c42 0 76.333 23.668 103 71.001c14.667 26.667 22 60.667 22 102c0 20.667 -1.66699 43 -5 67c-22.667 117.333 -69 176 -139 176c-43.333 0 -79 -23.333 -107 -70c-14.667 -24.667 -22 -58.334 -22 -101.001
c0 -20.667 1.66699 -43.667 5 -69c23.333 -117.333 71 -176 143 -176zM255 849.001c-52 0 -94.167 21.667 -126.5 65s-48.5 96.666 -48.5 159.999s16.167 116.833 48.5 160.5s74.5 65.5 126.5 65.5c51.333 0 93.166 -21.833 125.499 -65.5s48.5 -97.167 48.5 -160.5
s-16.167 -116.666 -48.5 -159.999s-74.166 -65 -125.499 -65zM266 867.001c42 0 76.333 23.668 103 71.001c14.667 26.667 22 60.667 22 102c0 20.667 -1.66699 43 -5 67c-22.667 117.333 -69 176 -139 176c-43.333 0 -79 -23.333 -107 -70
c-14.667 -24.667 -22 -58.334 -22 -101.001c0 -20.667 1.66699 -43.667 5 -69c23.333 -117.333 71 -176 143 -176zM717 114.002c-52 0 -94.167 21.667 -126.5 65s-48.5 96.666 -48.5 159.999s16.167 116.833 48.5 160.5s74.5 65.5 126.5 65.5
c51.333 0 93.166 -21.833 125.499 -65.5s48.5 -97.167 48.5 -160.5s-16.167 -116.666 -48.5 -159.999s-74.166 -65 -125.499 -65zM728 132.002c42 0 76.333 23.668 103 71.001c14.667 26.667 22 60.667 22 102c0 20.667 -1.66699 43 -5 67c-22.667 117.333 -69 176 -139 176
c-43.333 0 -79 -23.333 -107 -70c-14.667 -24.667 -22 -58.334 -22 -101.001c0 -20.667 1.66699 -43.667 5 -69c23.333 -117.333 71 -176 143 -176zM717 114.003c-52 0 -94.167 21.667 -126.5 65s-48.5 96.666 -48.5 159.999s16.167 116.833 48.5 160.5
s74.5 65.5 126.5 65.5c51.333 0 93.166 -21.833 125.499 -65.5s48.5 -97.167 48.5 -160.5s-16.167 -116.666 -48.5 -159.999s-74.166 -65 -125.499 -65zM728 132.003c42 0 76.333 23.668 103 71.001c14.667 26.667 22 60.667 22 102c0 20.667 -1.66699 43 -5 67
c-22.667 117.333 -69 176 -139 176c-43.333 0 -79 -23.333 -107 -70c-14.667 -24.667 -22 -58.334 -22 -101.001c0 -20.667 1.66699 -43.667 5 -69c23.333 -117.333 71 -176 143 -176z" />
    <glyph glyph-name="ampersand" unicode="&#x26;" horiz-adv-x="1659" 
d="M1025 228c-64.667 -76 -132.498 -134.331 -203.498 -174.998s-157.833 -61 -260.5 -61c-62.667 0 -123.334 10 -182.001 30s-109.834 48.333 -153.501 85s-78.834 82.167 -105.501 136.5s-40 114.5 -40 180.5c0 96.667 27 185.834 81 267.501s125.667 141.5 215 179.5
c-22.667 38 -42.5 77.333 -59.5 118s-25.5 82.667 -25.5 126c0 44 9 83.5 27 118.5s41.667 65.333 71 91s63 45.667 101 60s77.667 21.5 119 21.5c32.667 0 64.667 -5.33301 96 -16s59.666 -25.834 84.999 -45.501s46.166 -43.834 62.499 -72.501s24.5 -60 24.5 -94
c0 -26.667 -6.66699 -51.834 -20 -75.501s-30.333 -44.167 -51 -61.5c5.33301 23.333 8 47.333 8 72c0 30 -4.16699 60.667 -12.5 92s-21.166 59.833 -38.499 85.5s-38.666 47 -63.999 64s-55.333 25.5 -90 25.5c-66 0 -121.333 -20.333 -166 -61s-67 -95.334 -67 -164.001
c0 -38 12.833 -81.167 38.5 -129.5s58.834 -98 99.501 -149s86.167 -102.667 136.5 -155s100.666 -101.666 150.999 -147.999l143.5 -126.5l114 -94c20.667 38 38.167 76.5 52.5 115.5s21.5 80.167 21.5 123.5c-19.333 90.667 -15.5 155.167 11.5 193.5s66 48.833 117 31.5
s58 -55.833 21 -115.5s-64.5 -110.834 -82.5 -153.501l-54 -126.5c-18 -41.667 -35.667 -73.834 -53 -96.501c40 -28.667 78.5 -59.667 115.5 -93s75.333 -64.666 115 -93.999s80.334 -56.333 122.001 -81s86.167 -44.667 133.5 -60h-106c-30 0 -82.5 16.833 -157.5 50.5
s-171.833 93.834 -290.5 180.501zM208.002 473.002c0 -57.333 10 -112.001 30 -164.001s48 -98 84 -138s78.667 -71.833 128 -95.5s103.333 -35.5 162 -35.5c80 0 151.667 20.833 215 62.5s118.666 92.167 165.999 151.5c-108 90.667 -212.167 183.5 -312.5 278.5
s-194.166 198.167 -281.499 309.5c-56.667 -43.333 -102.667 -97.666 -138 -162.999s-53 -134 -53 -206z" />
    <glyph glyph-name="quotesingle" unicode="'" horiz-adv-x="328" 
d="M105 1416l-0.99707 1c-16 16 -24 35.667 -24 59s8.16699 43.166 24.5 59.499s36.166 24.5 59.499 24.5s43.166 -8.16699 59.499 -24.5s24.5 -36.166 24.5 -59.499c0 -62.667 -32.333 -143 -97 -241c31.333 104.667 35.666 157 12.999 157c-23.333 0 -43 8 -59 24z" />
    <glyph glyph-name="parenleft" unicode="(" horiz-adv-x="590" 
d="M80 601c1.33301 186 34.666 363.667 99.999 533s153.666 315.666 264.999 438.999h65c-116.667 -163.333 -194 -310.333 -232 -441c-41.333 -146 -70 -291.333 -86 -436c-8 -71.333 -8 -142.666 0 -213.999c19.333 -146.667 48 -283.667 86 -411
c38 -130.667 115.333 -277.667 232 -441h-65c-111.333 123.333 -199.666 269.5 -264.999 438.5s-98.666 346.5 -99.999 532.5z" />
    <glyph glyph-name="parenright" unicode=")" horiz-adv-x="590" 
d="M510 601c-1.33301 -186 -34.666 -363.5 -99.999 -532.5s-153.666 -315.167 -264.999 -438.5h-65c116.667 163.333 194 310.333 232 441c38 127.333 66.667 264.333 86 411c8 71.333 8 142.666 0 213.999c-16 144.667 -44.667 290 -86 436
c-38 130.667 -115.333 277.667 -232 441h65c111.333 -123.333 199.666 -269.666 264.999 -438.999s98.666 -347 99.999 -533z" />
    <glyph glyph-name="asterisk" unicode="*" horiz-adv-x="606" 
d="M285 1452v180h36v-180l127 127l25 -25l-127 -127h178l2 -36h-179l126 -126l-25 -26l-127 127v-178l-36 -2v179l-126 -126l-26 25l127 127h-180v36h180l-127 127l25 25z" />
    <glyph glyph-name="plus" unicode="+" horiz-adv-x="997" 
d="M80 645v67h835l2 -67h-837zM465 1097h67v-835l-67 -2v837z" />
    <glyph glyph-name="comma" unicode="," horiz-adv-x="328" 
d="M105 21l-0.99707 1c-16 16 -24 35.667 -24 59s8.16699 43.166 24.5 59.499s36.166 24.5 59.499 24.5s43.166 -8.16699 59.499 -24.5s24.5 -36.166 24.5 -59.499c0 -62.667 -32.333 -143 -97 -241c31.333 104.667 35.666 157 12.999 157c-23.333 0 -43 8 -59 24z" />
    <glyph glyph-name="hyphen" unicode="-" horiz-adv-x="598" 
d="M80 409v67h437l1 -67h-438z" />
    <glyph glyph-name="hyphen" unicode="&#xad;" horiz-adv-x="598" 
d="M80 409v67h437l1 -67h-438z" />
    <glyph glyph-name="period" unicode="." horiz-adv-x="328" 
d="M164 -3c-23.333 0 -43.166 8.16699 -59.499 24.5s-24.5 36.166 -24.5 59.499s8.16699 43.166 24.5 59.499s36.166 24.5 59.499 24.5s43.166 -8.16699 59.499 -24.5s24.5 -36.166 24.5 -59.499s-8.16699 -43.166 -24.5 -59.499s-36.166 -24.5 -59.499 -24.5z" />
    <glyph glyph-name="slash" unicode="/" horiz-adv-x="864" 
d="M150 -249l-70 2l633 1849l71 -2z" />
    <glyph glyph-name="zero" unicode="0" horiz-adv-x="1261" 
d="M631 2c-163.333 0 -296 68.833 -398 206.5s-153 306.167 -153 505.5s51 367.833 153 505.5s234.667 206.5 398 206.5c162.667 0 295 -68.833 397 -206.5s153 -306.167 153 -505.5s-51 -367.833 -153 -505.5s-234.333 -206.5 -397 -206.5zM667 60
c132 0 240.333 75.001 325 225.001c45.333 83.333 68 190.666 68 321.999c0 64 -5.33301 133.667 -16 209c-70 370 -216.333 555 -439 555c-136 0 -248 -72.667 -336 -218c-46 -80 -69 -186.333 -69 -319c0 -66.667 5.66699 -140 17 -220
c71.333 -369.333 221.333 -554 450 -554z" />
    <glyph glyph-name="one" unicode="1" horiz-adv-x="487" 
d="M463 2h-333.001v5h11l25 4c42.667 11.333 65.334 48 68.001 110v1177h-154v54l29 1c54.667 2 105.667 12.333 153 31c65.333 25.333 98 66.333 98 123v-1380c0.666992 -65.333 23 -104 67 -116l26 -4h10v-5z" />
    <glyph glyph-name="two" unicode="2" horiz-adv-x="1194" 
d="M1114 2l-1034 -0.000976562v127c0 210.667 180.333 404.334 541 581.001c110.667 50 204 105 280 165c68.667 52 103 118.667 103 200c0 76 -42 146 -126 210c-70.667 53.333 -165 81.666 -283 84.999c-205.333 -3.33301 -322.666 -102.666 -351.999 -297.999l1 -70
c0 -28.667 -7.66699 -43 -23 -43c-7.33301 0 -16.333 2.33301 -27 7c-54 27.333 -81 69.666 -81 126.999c0 46 13 86.667 39 122c43.333 62 105.666 113.667 186.999 155c70.667 37.333 151.334 56 242.001 56l35 -1c81.333 -3.33301 163 -22 245 -56
c165.333 -68 248 -183.667 248 -347c0 -40.667 -7 -80 -21 -118c-53.333 -127.333 -179.666 -230 -378.999 -308c-138 -55.333 -240.333 -114.666 -307 -177.999c-106 -100.667 -159 -221 -159 -361h694c87.333 0 131 42 131 126l-1 26h15z" />
    <glyph glyph-name="three" unicode="3" horiz-adv-x="1116" 
d="M590 2l-51.002 0.00292969c-192.667 0 -332.667 57 -420 171c-26 35.333 -39 75.666 -39 120.999c0 59.333 26.667 101 80 125c12.667 5.33301 23 8 31 8c14 0 21 -13 21 -39l-3 -72c14 -96.667 50.333 -163.667 109 -201s139 -56 241 -56c52 0 99.667 8.66699 143 26
l5 3c110.667 42.667 174.667 102 192 178c6 24.667 9 49.334 9 74.001c0 51.333 -16.667 108 -50 170c-50 93.333 -130.667 153.666 -242 180.999l-132 21l88 26c60.667 17.333 99.667 30.333 117 39c127.333 83.333 191 176.333 191 279c0 74.667 -28 143.167 -84 205.5
s-130.667 99.5 -224 111.5c-105.333 0 -188.666 -18.167 -249.999 -54.5s-99 -103.833 -113 -202.5l3 -73c0 -26.667 -7.66699 -40 -23 -40c-7.33301 0 -17 2.33301 -29 7c-53.333 24 -80 66.333 -80 127c0 42.667 13 83.334 39 122.001c87.333 113.333 226.333 170 417 170
l49 -2c110.667 -4.66699 205.334 -39.834 284.001 -105.501s120.667 -146.834 126 -243.501c-3.33301 -160.667 -77.666 -282.667 -222.999 -366c56.667 -17.333 112.334 -51.333 167.001 -102c64.667 -61.333 97 -138 97 -230c0 -85.333 -20.333 -155.833 -61 -211.5
s-96.334 -97.334 -167.001 -125.001s-143.334 -41.5 -218.001 -41.5z" />
    <glyph glyph-name="four" unicode="4" horiz-adv-x="1136" 
d="M993 2h-229h-103v5h10l26 4c42.667 11.333 65 48.333 67 111v217h-684v55l684 1044h126v-1044c57.333 0 94.666 4.66699 111.999 14c24.667 12.667 39.667 31 45 55c2.66699 9.33301 4 17.333 4 24v10h5v-259h-6l-2 32c-9.33301 39.333 -39.666 62.333 -90.999 69h-67
l1 -224c3.33301 -58.667 26 -93.667 68 -105l24 -3h10v-5zM764 394v940l-621 -940h621z" />
    <glyph glyph-name="five" unicode="5" horiz-adv-x="1139" 
d="M590 2l-36 0.00195312c-180.667 0 -313 59.667 -397 179c-51.333 73.333 -77 142 -77 206c0 10.667 1.66699 28.667 5 54s25 42.333 65 51l15 1c34 0 51 -20.333 51 -61l-2 -51c0 -92 31.167 -167.333 93.5 -226s145.166 -89 248.499 -91l68 6
c199.333 45.333 299 168.666 299 369.999c0 62 -18.833 137.5 -56.5 226.5s-115.167 156.167 -232.5 201.5c-40 12.667 -80 19 -120 19c-71.333 0 -148 -21 -230 -63l-140 -76l70 679h824l-18 -121h-2l-21 -153h-18l1 32c0 75.333 -41 115.666 -123 120.999h-596l-49 -469
c38 32.667 87.833 60.167 149.5 82.5s124.5 33.5 188.5 33.5h14c134.667 -14 232.334 -44.333 293.001 -91c131.333 -82.667 198.666 -215.667 201.999 -399c-5.33301 -155.333 -57.166 -271 -155.499 -347s-202.833 -114 -313.5 -114z" />
    <glyph glyph-name="six" unicode="6" horiz-adv-x="1199" 
d="M601 2c-145.333 0 -264.666 43.667 -357.999 131c-108.667 102 -163 258.667 -163 470c0 167.333 29.333 310 88 428c70.667 145.333 165.667 252.333 285 321c84.667 48.667 180 73 286 73c112 0 168 -15.667 168 -47c0 -4 -1.83301 -8.83301 -5.5 -14.5
s-7.83398 -9.16699 -12.501 -10.5s-8.66699 -2 -12 -2l-22 4c-37.333 10.667 -75.333 16 -114 16c-179.333 0 -322 -83 -428 -249c-64 -96.667 -96 -223 -96 -379v-36c69.333 74 142.333 123.667 219 149s131.667 38 165 38c176 0 306.333 -43.333 391 -130
s127 -192 127 -316c0 -126 -50.167 -231.833 -150.5 -317.5s-222.833 -128.5 -367.5 -128.5zM601 56c48.667 0 102.998 11.833 162.998 35.5s112 63.834 156 120.501s66 135 66 235c0 94 -17.833 169.667 -53.5 227s-82.5 99.166 -140.5 125.499
s-121.667 39.166 -191 38.499c-63.333 -2 -134.166 -26 -212.499 -72s-130.166 -100.667 -155.499 -164c-10.667 -33.333 -16 -79.666 -16 -138.999c0 -182.667 88.667 -311.667 266 -387c34 -13.333 73.333 -20 118 -20z" />
    <glyph glyph-name="seven" unicode="7" horiz-adv-x="1165" 
d="M557 2h-127c0 214 28.833 401.833 86.5 563.5s124.167 296.5 199.5 404.5s142 189.667 200 245l86 83h-735c-54.667 -3.33301 -92 -22 -112 -56c-12.667 -21.333 -19 -45.333 -19 -72l1 -25h-16l-23 153l-18 142l1005 -10v-122c0 -6.66699 -13 -23 -39 -49
c-326 -344.667 -489 -763.667 -489 -1257z" />
    <glyph glyph-name="eight" unicode="8" horiz-adv-x="1194" 
d="M629 2c-155.333 0 -285.667 30.332 -391 90.999s-158 141 -158 241c0 64 22.833 121 68.5 171s100 91 163 123s123.167 52.333 180.5 61l-36 21c-62.667 30.667 -129 72.334 -199 125.001c-95.333 72 -143 160.667 -143 266c0 42 11.167 87.5 33.5 136.5
s68.833 92.5 139.5 130.5s164 57 280 57l28 2c133.333 0 245.833 -34.5 337.5 -103.5s137.5 -153.5 137.5 -253.5c0 -148.667 -114 -265.334 -342 -350.001c0 -2 4.33301 -4.66699 13 -8c114.667 -57.333 207 -118.666 277 -183.999c64 -60 96 -126.667 96 -200
c0 -94 -42.333 -171.833 -127 -233.5s-204 -92.5 -358 -92.5zM676.999 749.999c60.667 24.667 120 66.002 178 124.002s87 123.333 87 196c0 74 -17.5 133 -52.5 177s-77.333 75.667 -127 95s-96.5 29 -140.5 29h-39c-100 -2 -181.667 -26.333 -245 -73
c-57.333 -42 -86 -103.333 -86 -184c0 -44 17.833 -84.833 53.5 -122.5s80.5 -73.334 134.5 -107.001s110 -65.834 168 -96.501zM629.999 63.001c93.333 0 174.167 23.332 242.5 69.999s102.5 102.667 102.5 168c0 131.333 -139.667 247.333 -419 348
c-30.667 -8.66699 -73 -25.167 -127 -49.5s-103.833 -58.166 -149.5 -101.499s-68.5 -98 -68.5 -164c0 -55.333 19.833 -103.333 59.5 -144s89.167 -72.167 148.5 -94.5s118 -33.5 176 -33.5z" />
    <glyph glyph-name="nine" unicode="9" horiz-adv-x="1197" 
d="M456 2c-109.333 0 -163.999 15.332 -163.999 45.999c0 18.667 9.66699 28 29 28c11.333 0 18.333 -1.33301 21 -4c36 -10 73 -15 111 -15c178 0 322.333 82.667 433 248c64.667 98 97 224.667 97 380l-1 35c-69.333 -74 -141.166 -123.167 -215.499 -147.5
s-128.833 -36.5 -163.5 -36.5h-17c-171.333 0 -298.5 42.667 -381.5 128s-124.5 191.333 -124.5 318c0 124 49.667 228.833 149 314.5s221.666 128.5 366.999 128.5s264.666 -43.667 357.999 -131c108.667 -102 163 -258.667 163 -470c0 -173.333 -29.333 -315 -88 -425
c-71.333 -147.333 -165.666 -254.666 -282.999 -321.999c-86.667 -50 -183.334 -75 -290.001 -75zM596.001 589.999c64 2 135.332 25.832 213.999 71.499s130 100.5 154 164.5c12 34 18 80.667 18 140c0 182.667 -89 311.334 -267 386.001c-41.333 14 -81 21 -119 21
c-48.667 0 -102.667 -12.167 -162 -36.5s-111.166 -64.5 -155.499 -120.5s-66.5 -134 -66.5 -234c0 -95.333 17.833 -171.5 53.5 -228.5s81.5 -98.5 137.5 -124.5s116.333 -39 181 -39h12z" />
    <glyph glyph-name="colon" unicode=":" horiz-adv-x="328" 
d="M164 55c-23.333 0 -43.166 8.16699 -59.499 24.5s-24.5 36.166 -24.5 59.499s8.16699 43.166 24.5 59.499s36.166 24.5 59.499 24.5s43.166 -8.16699 59.499 -24.5s24.5 -36.166 24.5 -59.499s-8.16699 -43.166 -24.5 -59.499s-36.166 -24.5 -59.499 -24.5zM164 688
c-23.333 0 -43.166 8.16699 -59.499 24.5s-24.5 36.166 -24.5 59.499s8.16699 43.166 24.5 59.499s36.166 24.5 59.499 24.5s43.166 -8.16699 59.499 -24.5s24.5 -36.166 24.5 -59.499s-8.16699 -43.166 -24.5 -59.499s-36.166 -24.5 -59.499 -24.5z" />
    <glyph glyph-name="semicolon" unicode=";" horiz-adv-x="328" 
d="M105 80l-0.99707 1c-16 16 -24 35.667 -24 59s8.16699 43.166 24.5 59.499s36.166 24.5 59.499 24.5s43.166 -8.16699 59.499 -24.5s24.5 -36.166 24.5 -59.499c0 -62.667 -32.333 -143 -97 -241c31.333 104.667 35.666 157 12.999 157c-23.333 0 -43 8 -59 24z
M164.003 688c-23.333 0 -43.166 8.16699 -59.499 24.5s-24.5 36.166 -24.5 59.499s8.16699 43.166 24.5 59.499s36.166 24.5 59.499 24.5s43.166 -8.16699 59.499 -24.5s24.5 -36.166 24.5 -59.499s-8.16699 -43.166 -24.5 -59.499s-36.166 -24.5 -59.499 -24.5z" />
    <glyph glyph-name="less" unicode="&#x3c;" horiz-adv-x="960" 
d="M880 1206v-120l-645 -371l645 -367v-121l-800 459v59z" />
    <glyph glyph-name="equal" unicode="=" horiz-adv-x="598" 
d="M80 409v67h437l1 -67h-438zM80 599v67h437l1 -67h-438z" />
    <glyph glyph-name="greater" unicode="&#x3e;" horiz-adv-x="960" 
d="M80 1206l800 -461v-59l-800 -459v121l645 367l-645 371v120z" />
    <glyph glyph-name="question" unicode="?" horiz-adv-x="1035" 
d="M487 418l-73.001 -0.000976562c-2 27.333 -3 47.333 -3 60c0 16.667 2 39.667 6 69s17.833 64.833 41.5 106.5s60.5 82.5 110.5 122.5c98 66.667 161.667 133 191 199c11.333 34.667 17 68.667 17 102c0 26 -3.33301 51.333 -10 76
c-15.333 56.667 -38.666 100 -69.999 130s-67.666 51 -108.999 63s-83.333 16 -126 12c-136.667 -12.667 -211 -90 -223 -232c-6.66699 -43.333 -6.16699 -75.333 1.5 -96s11.5 -43 11.5 -67c0 -33.333 -9.83301 -56.333 -29.5 -69s-37.834 -19 -54.501 -19l-7 1
c-24.667 4 -44.334 15.667 -59.001 35s-22 48 -22 86c0 37.333 1.66699 67 5 89c4.66699 42 20.167 89.833 46.5 143.5s66.5 99.667 120.5 138s125.333 60.833 214 67.5l46 1c80 0 153 -14.5 219 -43.5s118 -70.5 156 -124.5c27.333 -36.667 44 -81.667 50 -135
c12 -76.667 1 -147.334 -33 -212.001c-31.333 -45.333 -64.166 -85.166 -98.499 -119.499s-89.833 -78.166 -166.5 -131.499c-68.667 -44 -111.167 -91.5 -127.5 -142.5s-24.5 -82.833 -24.5 -95.5v-14zM448.999 -3.00098c-23.333 0 -43.166 8.16699 -59.499 24.5
s-24.5 36.166 -24.5 59.499s8.16699 43.166 24.5 59.499s36.166 24.5 59.499 24.5s43.166 -8.16699 59.499 -24.5s24.5 -36.166 24.5 -59.499s-8.16699 -43.166 -24.5 -59.499s-36.166 -24.5 -59.499 -24.5z" />
    <glyph glyph-name="at" unicode="@" horiz-adv-x="1370" 
d="M685 -103c-166.667 0 -309.169 58.9971 -427.502 176.997s-177.5 260.667 -177.5 428c0 166.667 59.167 309.167 177.5 427.5s260.833 177.5 427.5 177.5c167.333 0 310 -59.167 428 -177.5s177 -260.833 177 -427.5c0 -82 -28.667 -166.667 -86 -254
c-60 -92 -141.667 -138 -245 -138c-47.333 0 -73.666 26 -78.999 78c-28.667 -18.667 -63.334 -35.667 -104.001 -51c-66.667 -24.667 -128.334 -37 -185.001 -37c-18.667 0 -45.5 1.83301 -80.5 5.5s-73.5 20.167 -115.5 49.5c-33.333 25.333 -55.5 52.833 -66.5 82.5
s-16.5 61.834 -16.5 96.501c0 23.333 7 52 21 86s39.667 66.833 77 98.5s90 56.5 158 74.5c46 12.667 97.667 19 155 19c52 0 101.333 -4 148 -12c-10 67.333 -32.333 125.666 -67 174.999c-39.333 56 -92.333 84 -159 84c-12.667 0 -30.5 -1 -53.5 -3s-48.5 -12 -76.5 -30
c-37.333 -23.333 -59.333 -65.666 -66 -126.999c-1.33301 -34.667 -8.66602 -52 -21.999 -52c-6.66699 0 -15.667 3.33301 -27 10c-26 20.667 -39 44.334 -39 71.001c0 14 7.16699 36.167 21.5 66.5s45.166 57.5 92.499 81.5c34.667 14.667 67.334 23.334 98.001 26.001
c18.667 1.33301 35.334 2 50.001 2l28 -1l14 -1c111.333 -7.33301 191.333 -47.5 240 -120.5s73 -165.5 73 -277.5v-298c0 -38 8 -57 24 -57h5c70.667 16.667 128.667 58.5 174 125.5s68 142.833 68 227.5c0 155.333 -55.167 288.166 -165.5 398.499
s-243.166 165.5 -398.499 165.5s-288.166 -55.167 -398.499 -165.5s-165.5 -243.166 -165.5 -398.499s55.167 -288.166 165.5 -398.499s243.166 -165.5 398.499 -165.5c74.667 0 162.334 14.333 263.001 43c18 6 36.333 13.167 55 21.5s34.667 16.166 48 23.499l20 10
c-110.667 -92.667 -239.334 -139 -386.001 -139zM634.998 163.997c52.667 0 104.666 10.332 155.999 30.999c40 16 69 29.667 87 41v130c0 100.667 -0.666992 163.667 -2 189c-54.667 9.33301 -104.667 14 -150 14c-183.333 0 -287.666 -67 -312.999 -201
c-1.33301 -10 -2 -20 -2 -30c0 -57.333 23 -100.666 69 -129.999s97.667 -44 155 -44z" />
    <glyph glyph-name="A" unicode="A" horiz-adv-x="1280" 
d="M1280 -1l-104.001 0.000976562l-3 11l3 -11h-233v6h8c4.66699 0 10.667 1 18 3c31.333 9.33301 47 31.333 47 66c0 13.333 -2.66699 29 -8 47l-75 237h-648l-82 -239c-5.33301 -18 -8 -33.333 -8 -46c0 -14.667 2.66699 -26.667 8 -36
c8.66699 -15.333 21.334 -25 38.001 -29l24 -3v-6h-265v6l16 1c10.667 0 23.667 3 39 9c38.667 15.333 67.667 47.666 87 96.999l438 1279c-26.667 20.667 -52 31.667 -76 33h-14v5h238l414 -1319c10.667 -28 23.667 -49.333 39 -64c27.333 -26 55.333 -39.333 84 -40l15 -1
v-6zM914.999 413.001c-192.667 609.333 -291 918 -295 926l-317 -926h612z" />
    <glyph glyph-name="B" unicode="B" horiz-adv-x="1141" 
d="M608 59c100.667 0 180.667 15.668 240 47.001c111.333 59.333 167 159.666 167 300.999v20c0 68.667 -13 129.667 -39 183c-57.333 116 -180 174 -368 174h-377v-725h377zM488 839.001c138.667 0 241.5 16.833 308.5 50.5s100.5 97.167 100.5 190.5v20
c0 100.667 -34.5 172.5 -103.5 215.5s-179.167 64.5 -330.5 64.5h-232v-541h257zM0 -0.999023l-0.000976562 5.99902l11 -1c6.66699 0 15.334 1.33301 26.001 4c44 12 66.333 50.667 67 116v1180c-0.666992 26.667 -4.33398 48 -11.001 64s-15.167 28 -25.5 36
s-20.666 13.333 -30.999 16s-18.833 4 -25.5 4h-11v5h133v5h409c166 0 287.833 -27.333 365.5 -82s116.5 -135.667 116.5 -243v-29c0 -132.667 -60.333 -218.667 -181 -258c106.667 -27.333 183 -76.5 229 -147.5s69 -150.5 69 -238.5v-20
c0 -77.333 -14.667 -146.666 -44 -207.999c-66 -136 -202.667 -204 -410 -204h-456v-5h-231z" />
    <glyph glyph-name="C" unicode="C" horiz-adv-x="1149" 
d="M652 2h-1.99902c-195.333 5.33301 -352.5 75.666 -471.5 210.999s-178.5 303 -178.5 503s59.5 367.667 178.5 503s276.167 205.666 471.5 210.999h2c104.667 0 191 -22.333 259 -67s120.333 -95 157 -151s60 -103.333 70 -142c6.66699 -22 10 -47.667 10 -77
c0 -2.66699 -0.166992 -13 -0.5 -31s-8.83301 -40.833 -25.5 -68.5s-46 -45.167 -88 -52.5l-14 -1c-21.333 0 -32 7.66699 -32 23c0 16 4.66699 35 14 57c12 31.333 18 61 18 89c0 39.333 -12 85.666 -36 138.999s-66 103 -126 149s-129.333 69 -208 69
c-42.667 0 -72.334 -1.33301 -89.001 -4c-124.667 -21.333 -229 -98.666 -313 -231.999c-75.333 -120 -113 -259 -113 -417l1 -50c24 -203.333 91.667 -350.166 203 -440.499s215 -137.166 311 -140.499c16 -1.33301 32 -2 48 -2c168.667 0 296.667 89.333 384 268l43 -17
c-46 -106.667 -106.167 -188.167 -180.5 -244.5s-171.833 -84.5 -292.5 -84.5z" />
    <glyph glyph-name="D" unicode="D" horiz-adv-x="1233" 
d="M491 1372l-260.001 0.000976562v-1318h253c163.333 0 290 31.167 380 93.5s152.833 143.666 188.5 243.999s53.5 208.166 53.5 323.499c0 118.667 -15.667 227.834 -47 327.501s-91.166 179.5 -179.499 239.5s-217.833 90 -388.5 90zM-0.000976562 -0.999023v5.99902h11
c6.66699 -0.666992 15.167 0.5 25.5 3.5s20.5 8.5 30.5 16.5s18.5 20 25.5 36s10.833 37 11.5 63v1180c-0.666992 26.667 -4.33398 48 -11.001 64s-15.167 28 -25.5 36s-20.666 13.333 -30.999 16s-18.833 4 -25.5 4h-11v5h600c151.333 0 273.333 -31.667 366 -95
s160.334 -149 203.001 -257s64 -228.667 64 -362s-23 -254.166 -69 -362.499s-115.833 -194.333 -209.5 -258s-211.834 -95.5 -354.501 -95.5h-600z" />
    <glyph glyph-name="E" unicode="E" horiz-adv-x="992" 
d="M104 1304c-0.666992 26.667 -4.33301 48 -11 64s-15.167 28 -25.5 36s-20.5 13.333 -30.5 16s-18.667 4 -26 4h-11v5h962l8 -54l22 -154h-18v2l-1 2c-0.666992 2.66699 -1.33398 6.66699 -2.00098 12c-2 10 -6.33301 22.667 -13 38s-16.5 30.5 -29.5 45.5
s-30.167 27.833 -51.5 38.5s-48 16 -80 16h-566v-633h435c25.333 0.666992 45.666 4.5 60.999 11.5s26.833 15.5 34.5 25.5s12.834 20 15.501 30s4 18.667 4 26v10h5v-261h-5v11c0 6.66699 -1.33301 15 -4 25s-8 20 -16 30s-19.667 18.5 -35 25.5s-36 10.833 -62 11.5h-433
v-633h566c32 0 58.667 5.16699 80 15.5s38.5 23 51.5 38s22.833 30.167 29.5 45.5s11 28.333 13 39c0.666992 4.66699 1.33398 8.33398 2.00098 11.001l1 3v1h18l-22 -153l-8 -55h-962v6h11c6.66699 -0.666992 15 0.333008 25 3s20.167 8 30.5 16s19 19.667 26 35
s10.833 35.666 11.5 60.999v1184z" />
    <glyph glyph-name="F" unicode="F" horiz-adv-x="992" 
d="M104 1304c-0.666992 26.667 -4.33203 47.9971 -10.999 63.9971s-15.167 28 -25.5 36s-20.5 13.333 -30.5 16s-18.667 4 -26 4h-11v5h962l8 -54l22 -154h-18v2l-1 2c-0.666992 2.66699 -1.33398 6.66699 -2.00098 12c-2 10 -6.33301 22.667 -13 38s-16.5 30.5 -29.5 45.5
s-30.167 27.833 -51.5 38.5s-48 16 -80 16h-566v-633h435c25.333 0.666992 45.666 4.5 60.999 11.5s26.833 15.5 34.5 25.5s12.834 20 15.501 30s4 18.667 4 26v10h5v-261h-5v11c0 6.66699 -1.33301 15 -4 25s-8 20 -16 30s-19.833 18.5 -35.5 25.5
s-36.167 10.833 -61.5 11.5h-433v-576c1.33301 -23.333 5.66602 -42.166 12.999 -56.499s16 -25.166 26 -32.499s19.833 -12.166 29.5 -14.499s17.834 -3.16602 24.501 -2.49902h10v-6h-334v6h11c6.66699 -0.666992 15 0.333008 25 3s20.167 8 30.5 16s19 19.667 26 35
s10.833 35.666 11.5 60.999v1184z" />
    <glyph glyph-name="G" unicode="G" horiz-adv-x="1200" 
d="M650 4c-195.333 5.33301 -352.5 76.1641 -471.5 212.497s-178.5 304.5 -178.5 504.5c0 199.333 59.5 366.833 178.5 502.5s276.167 205.834 471.5 210.501c0.666992 0 1 0.333008 1 1h1c104.667 0 191 -22.5 259 -67.5s120.333 -95.333 157 -151s60 -102.834 70 -141.501
c6.66699 -22 10 -48 10 -78v-31c0 -18 -8.5 -40.667 -25.5 -68s-46.5 -44.666 -88.5 -51.999l-16 -1c-20 0 -30 6.66699 -30 20c0 16 4.66699 35.667 14 59c12 29.333 18 59.333 18 90c0 40 -12 87.167 -36 141.5s-66 105.333 -126 153s-129.333 71.5 -208 71.5
c-103.333 0 -193.333 -31 -270 -93s-136 -142.667 -178 -242c-44 -104 -66 -216 -66 -336c0 -117.333 20 -225 60 -323s98.667 -177.167 176 -237.5s170 -90.5 278 -90.5c136.667 0 240.5 47.5 311.5 142.5s106.5 213.167 106.5 354.5h-400v55h531v-55h1
c0 -157.333 -49.833 -287.666 -149.5 -390.999s-233.167 -156.666 -400.5 -159.999z" />
    <glyph glyph-name="H" unicode="H" horiz-adv-x="1196" 
d="M1196 2l-230 0.000976562l-103 1v5h14c17.333 0 34.333 6 51 18c22.667 16.667 35.334 47 38.001 91v573h-736v-563c0 -47.333 12 -80.666 36 -99.999c16.667 -13.333 35.667 -20 57 -20h10v-5h-230l-103 1v5h14c16.667 0 33.334 6 50.001 18
c23.333 17.333 36.333 47.666 39 90.999v1195c-1.33301 46 -13.666 78 -36.999 96c-18 12.667 -36.667 19 -56 19h-10v5h333v-5h-10c-20.667 0 -39.334 -6.66699 -56.001 -20c-24.667 -18.667 -37 -52 -37 -100v-562h736v562c0 47.333 -12 80.666 -36 99.999
c-16.667 13.333 -35.334 20 -56.001 20h-11v5h333v-5h-10c-20.667 0 -39.334 -6.66699 -56.001 -20c-24.667 -18.667 -37 -52 -37 -100v-1180c1.33301 -48.667 13.666 -82 36.999 -100c16.667 -13.333 35.334 -20 56.001 -20h10v-5z" />
    <glyph glyph-name="I" unicode="I" 
d="M333 1l-229 0.000976562h-104v5h10c19.333 0 37.666 6.33301 54.999 19c23.333 17.333 36.333 47.666 39 90.999v1205c-3.33301 42 -16.666 71.333 -39.999 88c-16.667 11.333 -33.334 17 -50.001 17h-14v5l104 1v-1h126v1h104v-5h-11c-19.333 0 -38 -7 -56 -21
c-23.333 -18 -35.666 -51 -36.999 -99v-1181c1.33301 -48 13.666 -81 36.999 -99c16.667 -14 35.334 -21 56.001 -21h10v-5z" />
    <glyph glyph-name="J" unicode="J" horiz-adv-x="1071" 
d="M968 1309l0.00390625 37.9971v-796v-1v0c0 -86.667 -12.5 -171.667 -37.5 -255s-71.5 -152.166 -139.5 -206.499s-165.333 -83.5 -292 -87.5v0h-1h-2h-2h-2h-2h-3v0c-152 10.667 -265.833 57.834 -341.5 141.501s-120.834 156.5 -135.501 218.5
c-6.66699 24 -9.83398 52.5 -9.50098 85.5s9 63.333 26 91s46.5 45.167 88.5 52.5c30 3.33301 45.167 -3.16699 45.5 -19.5s-4.5 -36.166 -14.5 -59.499c-4.66699 -12 -8.66699 -23.667 -12 -35c-17.333 -87.333 8.5 -176.5 77.5 -267.5s163.5 -140.5 283.5 -148.5
c101.333 3.33301 176.833 38.5 226.5 105.5s81.5 146.333 95.5 238s21 172.5 21 242.5v0v1l3 679c-2 22 -6.83301 39.667 -14.5 53s-16.334 23.5 -26.001 30.5s-19.334 11.667 -29.001 14s-17.667 3.33301 -24 3l-9.5 -0.5v5l103 1v0h127v0h103v-5h-10.5
c-7 0 -15.5 -1.5 -25.5 -4.5s-20.167 -8.5 -30.5 -16.5s-19 -20 -26 -36s-10.5 -37 -10.5 -63v0v-1v3z" />
    <glyph glyph-name="K" unicode="K" horiz-adv-x="1163" 
d="M1163 7l0.00292969 -5.00098l-100 -1v0h-153v0l-103 1v5l6 1c4 0.666992 8.66699 2 14 4s10.666 5 15.999 9s9.5 9.66699 12.5 17s4.16699 16.166 3.5 26.499s-4.33398 23.166 -11.001 38.499l-410 667l-208 -221v-503l1 78v2v0v0c0 -26 3.33301 -47 10 -63
s15.167 -28 25.5 -36s20.666 -13.5 30.999 -16.5s19 -4.5 26 -4.5h10.5v-5h-104v0h-127v0l-103 1v5l10.5 -0.5c7 -0.333008 15.333 0.833984 25 3.50098s19.667 7.83398 30 15.501s19 19.167 26 34.5s10.833 35.333 11.5 60v1191c0 26 -3.5 46.667 -10.5 62
s-15.667 27 -26 35s-20.5 13.333 -30.5 16s-18.5 4 -25.5 4h-10.5v5h104v0h126v-2h104v-5h-10.5c-7 0 -15.333 -1.33301 -25 -4s-19.5 -7.66699 -29.5 -15s-18.667 -18.5 -26 -33.5s-11.666 -34.833 -12.999 -59.5v-683l657 701c9.33301 12.667 15.666 23.834 18.999 33.501
s4.66602 18 3.99902 25s-2.66699 12.833 -6 17.5s-7.16602 8.33398 -11.499 11.001s-8 4.5 -11 5.5l-4.5 1.5v5h103v0h78v0h99v-5l-32 -8c-21.333 -5.33301 -47.5 -15.5 -78.5 -30.5s-61.833 -37.167 -92.5 -66.5l-426 -455l458 -740v0v0v0c18 -28 37 -50.167 57 -66.5
s39 -28.333 57 -36s33 -12.334 45 -14.001z" />
    <glyph glyph-name="L" unicode="L" horiz-adv-x="991" 
d="M103 1306c0 26 -3.5 47.001 -10.5 63.001s-15.667 28.167 -26 36.5s-20.5 13.833 -30.5 16.5s-18.667 4 -26 4h-10v5h103l230 -1v-5l-10 1c-6.66699 0 -14.667 -1.33301 -24 -4c-42.667 -10.667 -65.667 -45.667 -69 -105v-1262h566c56.667 0 100.667 18 132 54
c22 26 36 54 42 84l3 16h18l-21 -154l-9 -54h-961v5h10c6.66699 0 15 1.33301 25 4c43.333 11.333 66 48.666 68 111.999v1184z" />
    <glyph glyph-name="M" unicode="M" horiz-adv-x="1460" 
d="M1459 1l-230 -0.00195312h-103v5h11c20 0 38.667 6.66699 56 20c24 18.667 36 51.334 36 98.001v1154l-488 -1277h-135l-448 1274v-1149c0 -47.333 12 -80.666 36 -99.999c16.667 -13.333 35.667 -20 57 -20h10v-5h-261v5h10c19.333 0 37.333 6 54 18
c23.333 17.333 36.333 47 39 89v1206c-2.66699 43.333 -15.667 73.333 -39 90c-17.333 12 -35.333 18 -54 18h-10v5l103 -1v1h130l480 -1353l516 1353h127l104 -1v-5h-15c-18 0 -35 -6.33301 -51 -19c-24 -19.333 -36.667 -51 -38 -95v-1186
c1.33301 -48 13.666 -81 36.999 -99c16.667 -14 35.334 -21 56.001 -21h10v-5z" />
    <glyph glyph-name="N" unicode="N" horiz-adv-x="1167" 
d="M1064 -4l-54.9971 0.000976562l-851 1209v-1084c0 -26.667 3.5 -48 10.5 -64s15.667 -28 26 -36s20.5 -13.333 30.5 -16s18.667 -4 26 -4h10v-5h-261v5h10c6.66699 0 15 1.33301 25 4c43.333 11.333 66 48 68 110v1193c-0.666992 25.333 -4.33398 45.666 -11.001 60.999
c-12.667 26.667 -31.334 43.334 -56.001 50.001c-10 2.66699 -18.667 4 -26 4l-10 -1v6l158 -1l851 -1208v1082c-0.666992 26.667 -4.33398 47.667 -11.001 63c-12 28 -30.667 45.667 -56 53c-10 2.66699 -18.667 4 -26 4h-11v5h262v-5h-10c-6.66699 0 -15 -1.33301 -25 -4
c-42 -10.667 -64.667 -45.334 -68 -104.001v-1317z" />
    <glyph glyph-name="O" unicode="O" horiz-adv-x="1304" 
d="M652 0c-192.667 0 -349.5 69 -470.5 207s-181.5 307 -181.5 507c0 200.667 60.5 370 181.5 508s277.833 207 470.5 207c193.333 0 350.333 -69 471 -207s181 -307.333 181 -508c0 -200 -60.333 -369 -181 -507s-277.667 -207 -471 -207zM697 58
c154 0 285.331 75.667 393.998 227c62 86.667 93 199.334 93 338.001c0 59.333 -5.66699 123.666 -17 192.999c-84.667 371.333 -265 557 -541 557c-33.333 0 -66.666 -3.66699 -99.999 -11c-118 -20 -222.333 -89.333 -313 -208c-62.667 -82.667 -94 -195 -94 -337
c0 -62 6 -130 18 -204c55.333 -232 148.333 -387.333 279 -466c98.667 -59.333 192.334 -89 281.001 -89z" />
    <glyph glyph-name="P" unicode="P" horiz-adv-x="1066" 
d="M334 1l-334 -0.00292969v5h10c7.33301 0 16 1.33301 26 4s20 7.83398 30 15.501s18.5 19 25.5 34s11.167 35.167 12.5 60.5v1191c-0.666992 25.333 -4.5 45.833 -11.5 61.5s-15.667 27.5 -26 35.5s-20.5 13.333 -30.5 16s-18.333 4 -25 4h-11v5h612
c207.333 0 344 -68 410 -204c29.333 -61.333 44 -127.666 44 -198.999v-20c0 -77.333 -14.667 -146.666 -44 -207.999c-66 -136 -202.667 -204 -410 -204h-381v-472c0 -26.667 3.5 -48 10.5 -64s15.5 -28 25.5 -36s20.167 -13.333 30.5 -16s18.833 -4 25.5 -4h11v-5z
M533 652.997c100.667 0 180.667 15.667 240 47c110.667 59.333 166 159.666 166 300.999v20c0 68.667 -12.667 129.334 -38 182.001c-57.333 116.667 -180 175 -368 175h-302v-725h302z" />
    <glyph glyph-name="Q" unicode="Q" horiz-adv-x="1304" 
d="M652 2c-193.333 0 -350.333 69 -471 207s-181 307.333 -181 508c-0 200 60.333 369 181 507s277.667 207 471 207s350.333 -69 471 -207s181 -307 181 -507c0 -200.667 -60.333 -370 -181 -508s-277.667 -207 -471 -207zM697 60c154 0 285.333 75.667 394 227
c62 86.667 93 199.334 93 338.001c0 59.333 -5.66699 123.666 -17 192.999c-84.667 372 -264.667 558 -540 558c-34 0 -68 -4 -102 -12c-118 -20 -222.333 -89.333 -313 -208c-62.667 -82.667 -94 -194.667 -94 -336c0 -62.667 6 -131 18 -205
c55.333 -232 148.333 -387.333 279 -466c99.333 -59.333 193.333 -89 282 -89zM848 -324c-15.333 0 -24.668 21 -28.001 63c-1.33301 15.333 -3.66602 30 -6.99902 44c-26 78 -64.667 133.833 -116 167.5s-92 50.5 -122 50.5h16c8.66699 1.33301 17.667 2 27 2
c44 0 100.333 -12.667 169 -38c60.667 -28 104 -71 130 -129c8.66699 -20 13 -38.667 13 -56c0 -34.667 -16.333 -65 -49 -91c-14 -8.66699 -25 -13 -33 -13z" />
    <glyph glyph-name="R" unicode="R" horiz-adv-x="1168" 
d="M532 653c132.667 0 233.667 30.168 303 90.501s104 146.166 104 257.499v20c0 199.333 -100.667 316 -302 350c-32 4.66699 -67 7 -105 7h-302v-725h302zM859 646.001l4 2zM1168 1.00098l-333.999 -0.000976562v5c40.667 0 62.334 37 65.001 111l-155 493
c-40.667 -8 -85 -12 -133 -12h-381v-472c2 -80 36.333 -120 103 -120v-5h-333v5c66.667 0 101 38 103 114v1191c-0.666992 25.333 -4.33398 46 -11.001 62c-12.667 27.333 -31.334 44.333 -56.001 51c-10 2.66699 -22 4 -36 4v5h611c207.333 0 344 -68 410 -204
c30 -61.333 45 -127.666 45 -198.999v-20c0 -173.333 -67.667 -294 -203 -362l169 -540c28 -68 73.333 -102 136 -102v-5z" />
    <glyph glyph-name="S" unicode="S" horiz-adv-x="1072" 
d="M523 -4c-92.667 0 -171.663 11.6621 -236.996 34.9951s-118.5 52 -159.5 86s-70.833 67.667 -89.5 101c-12.667 21.333 -23 48.333 -31 81c-4 14.667 -6 29.334 -6 44.001c0 16.667 3.66699 37 11 61s30.333 44.667 69 62c12 4.66699 21.667 7 29 7
c16 0 24 -14.333 24 -43c0 -9.33301 -0.833008 -20.333 -2.5 -33s-2.5 -24.667 -2.5 -36c0 -68.667 19.5 -126 58.5 -172s88.667 -80.667 149 -104s122.833 -35 187.5 -35c270 0 405 87 405 261c0 128.667 -162 267 -486 415c-58.667 26.667 -116.667 56.334 -174 89.001
s-105.333 71.5 -144 116.5s-58 100.167 -58 165.5c0 82.667 45.167 157.334 135.5 224.001s214.833 102 373.5 106c132.667 -1.33301 234.667 -18 306 -50c103.333 -47.333 165.333 -113.666 186 -198.999c3.33301 -14 5 -28 5 -42c0 -18 -3.83301 -39.167 -11.5 -63.5
s-30.834 -45.5 -69.501 -63.5c-12 -4.66699 -22 -7 -30 -7c-15.333 0 -23 14.667 -23 44c0 8.66699 0.666992 18.167 2 28.5s2 20.5 2 30.5v10c-4.66699 93.333 -39.834 159.5 -105.501 198.5s-152.834 58.5 -261.501 58.5c-111.333 0 -203 -26 -275 -78
s-108 -116.667 -108 -194c0 -62 25.667 -111 77 -147s115.333 -71 192 -105c40 -18.667 81.667 -39.334 125 -62.001l31 -17c87.333 -44.667 164.166 -88.167 230.499 -130.5s118.166 -89.666 155.499 -141.999s56 -117.166 56 -194.499c0 -54 -17.667 -104.167 -53 -150.5
s-92.166 -83.833 -170.499 -112.5s-182.5 -43 -312.5 -43z" />
    <glyph glyph-name="T" unicode="T" horiz-adv-x="1125" 
d="M729 -1h-229h-104v5h10c6.66699 0 15 1.33301 25 4c42.667 10.667 65.667 46 69 106v1261h-305c-32 0 -58.667 -5.33301 -80 -16c-37.333 -18.667 -64 -46.667 -80 -84c-11.333 -24.667 -17 -42.667 -17 -54h-18l30 208h1065l9 -54l21 -154h-17l-4 16
c-6 30 -20 57.667 -42 83c-30.667 36.667 -74.334 55 -131.001 55h-305v-1251c0.666992 -26 4.33398 -47 11.001 -63s15.167 -28.167 25.5 -36.5s20.5 -13.833 30.5 -16.5s18.667 -4 26 -4h10v-5z" />
    <glyph glyph-name="U" unicode="U" horiz-adv-x="1270" 
d="M674 0c-17.333 0 -28.667 0.331055 -34 0.998047h-5c-126 6 -228 36.167 -306 90.5s-135.167 123 -171.5 206s-54.5 167.167 -54.5 252.5v757c0 47.333 -12 80.333 -36 99c-18.667 14 -37.334 21 -56.001 21h-11v5h230l103 -1v-5h-14c-16.667 0 -32.667 -5.33301 -48 -16
c-24 -17.333 -37.667 -45.333 -41 -84l3 -680c0 -105.333 6.16699 -188.666 18.5 -249.999s38.5 -117.666 78.5 -168.999c44 -54 95 -94.333 153 -121c68.667 -32 127.667 -48 177 -48c19.333 -1.33301 36.333 -2 51 -2c11.333 0 24 0.666992 38 2c20.667 2 35 4.33301 43 7
c71.333 12.667 138 48.667 200 108c34.667 31.333 63.334 68 86.001 110s34 102.667 34 182l2 853c-1.33301 24 -5.66602 43.333 -12.999 58c-12.667 26 -31 42 -55 48l-35 3v5h259v-5h-9c-19.333 0 -37 -5.66699 -53 -17c-22.667 -15.333 -36.334 -43.333 -41.001 -84
l1 -861c0 -126 -38.333 -231 -115 -315s-170.667 -133 -282 -147c-28 -2 -60.333 -3 -97 -3z" />
    <glyph glyph-name="V" unicode="V" horiz-adv-x="1280" 
d="M686 -1l-135 -0.000976562l-413 1320c-11.333 27.333 -24.666 48.5 -39.999 63.5s-30.5 25.333 -45.5 31s-27.5 8.83398 -37.5 9.50098l-15 1v5h103l4 -11l-4 11h233v-5l-25 -3c-17.333 -4 -30.333 -13.667 -39 -29c-6 -9.33301 -9 -22 -9 -38c0 -12.667 3 -28 9 -46
l386 -1222l419 1224c5.33301 17.333 8 32.333 8 45c0 36 -15.333 58 -46 66l-25 3v5h266v-5l-16 -1c-30.667 -2 -59.334 -15.667 -86.001 -41c-18 -17.333 -32.667 -43 -44 -77z" />
    <glyph glyph-name="W" unicode="W" horiz-adv-x="2120" 
d="M1527 -1h-135.001l-337 1075l-368 -1075h-135l-413 1320c-11.333 27.333 -24.666 48.666 -39.999 63.999c-25.333 24.667 -53 38 -83 40l-16 1v5h104l3 -11l-3 11h233v-5h-7c-26.667 -2 -45.667 -12.667 -57 -32c-6 -9.33301 -9 -22 -9 -38c0 -12.667 2.66699 -28 8 -46
l387 -1222l368 1077l-48 156c-11.333 27.333 -24.666 48.5 -39.999 63.5s-30.5 25.333 -45.5 31s-27.5 8.83398 -37.5 9.50098l-16 1v5h104l3 -11l-3 11h233v-5h-7c-26.667 -2 -45.667 -12.667 -57 -32c-6 -9.33301 -9 -22 -9 -38c0 -12.667 2.66699 -28 8 -46l387 -1222
l418 1224c5.33301 17.333 8 32.333 8 45c0 36.667 -15 58.667 -45 66l-25 3v5h265v-5l-15 -1c-30.667 -2 -59.334 -15.667 -86.001 -41c-18.667 -18 -33.667 -43.667 -45 -77z" />
    <glyph glyph-name="X" unicode="X" horiz-adv-x="1280" 
d="M1262 -3l-356.002 -0.000976562v5l10 2c7.33301 0.666992 15.833 5.5 25.5 14.5s14.834 20.5 15.501 34.5c0 5.33301 -1.16699 13.166 -3.5 23.499s-113.833 194.5 -334.5 552.5l-3 3l-366 -525c-14 -22 -21 -42.667 -21 -62s9 -32 27 -38l21 -5v-5h-105l3 3l-3 -3h-172
v5l28 5c55.333 10.667 105 42.334 149 95.001l405 582l-389 635c-28 42.667 -65.333 73.334 -112 92.001l-63 15v6h355v-6l-5 -1c-29.333 -7.33301 -44 -24 -44 -50c0 -4.66699 0.666992 -11.167 2 -19.5s113.666 -193.833 336.999 -556.5l3 -2l366 525
c14 20.667 21 39.667 21 57c0 19.333 -9.33301 33 -28 41l-19 6v6h104l-2 -3l2 3h170v-6l-27 -5c-55.333 -10.667 -104.666 -42 -147.999 -94l-408 -583l392 -635c28.667 -42 66.334 -72.333 113.001 -91l60 -16v-5z" />
    <glyph glyph-name="Y" unicode="Y" horiz-adv-x="1262" 
d="M771 -3h-337.001v5h10c58 0 89.333 35.667 94 107v617l-366 593c-28 42.667 -65.333 73.334 -112 92.001l-60 15v6h355v-6l-10 -1c-6.66699 -1.33301 -15 -6.5 -25 -15.5s-15.333 -20.5 -16 -34.5c0 -4.66699 1.33301 -12.334 4 -23.001s115 -195.667 337 -555l369 525
c12.667 22 19.334 41 20.001 57c0 18 -9.33301 31.667 -28 41l-21 6v6h105l-3 -3l3 3h172v-6l-29 -5c-55.333 -10 -105 -41.333 -149 -94l-418 -601v-604c0 -48.667 12.333 -82 37 -100c16.667 -13.333 33 -20.333 49 -21l19 1v-5z" />
    <glyph glyph-name="Z" unicode="Z" horiz-adv-x="1009" 
d="M979 3h-979l823 1373h-628c-56.667 0 -100.667 -18 -132 -54c-22 -26 -36 -54 -42 -84l-3 -15h-18l30 208h975l-818 -1374h627c57.333 0 101.333 18 132 54c22 26 36 54 42 84l3 16h18l-21 -154z" />
    <glyph glyph-name="bracketleft" unicode="[" horiz-adv-x="536" 
d="M260 -11c28.667 -39.333 55.834 -66.8359 81.501 -82.5029l67 -42c19 -12.333 34.833 -18.5 47.5 -18.5c-176.667 -56 -295.667 -18.333 -357 113c-10.667 31.333 -16.5 74.5 -17.5 129.5s-0.5 112.833 1.5 173.5c1.33301 56 2 200.167 2 432.5s-0.666992 376.5 -2 432.5
c-2 60.667 -2.5 118.334 -1.5 173.001s6.83301 97.667 17.5 129c61.333 132 176.666 169.667 345.999 113c7.33301 0 -1.66699 -6 -27 -18s-48.333 -25.5 -69 -40.5s-40 -31 -58 -48s-28.333 -28.833 -31 -35.5c-9.33301 -27.333 -14.333 -63.666 -15 -108.999
s-0.333984 -95.666 0.999023 -150.999c2 -60 3 -208.5 3 -445.5s-1 -385.5 -3 -445.5c-1.33301 -56 -1.66602 -106.5 -0.999023 -151.5s5.66699 -81.167 15 -108.5z" />
    <glyph glyph-name="backslash" unicode="\" horiz-adv-x="850" 
d="M707 -249l-627 1833l64 18l626 -1829z" />
    <glyph glyph-name="bracketright" unicode="]" horiz-adv-x="536" 
d="M276 -11c9.33301 27.333 14.333 63.5029 15 108.503s0.333984 95.5 -0.999023 151.5c-2 60 -3 208.5 -3 445.5s1 385.5 3 445.5c1.33301 55.333 1.66602 105.666 0.999023 150.999s-5.66699 81.666 -15 108.999c-2.66699 6.66699 -13 18.5 -31 35.5s-37.333 33 -58 48
s-43.667 28.5 -69 40.5s-34.333 18 -27 18c169.333 56.667 284.666 19 345.999 -113c10.667 -31.333 16.5 -74.333 17.5 -129s0.5 -112.334 -1.5 -173.001c-1.33301 -56 -2 -200.167 -2 -432.5s0.666992 -376.5 2 -432.5c2 -60.667 2.5 -118.5 1.5 -173.5
s-6.83301 -98.167 -17.5 -129.5c-61.333 -131.333 -180.333 -169 -357 -113c12.667 0 28.5 6.16699 47.5 18.5l67 42c25.667 15.667 52.834 43.167 81.501 82.5z" />
    <glyph glyph-name="asciicircum" unicode="^" horiz-adv-x="742" 
d="M80 1134l232 302h118l232 -302h-58l-233 266l-233 -266h-58z" />
    <glyph glyph-name="underscore" unicode="_" horiz-adv-x="997" 
d="M80 -103v67h835l2 -67h-837z" />
    <glyph glyph-name="grave" unicode="`" horiz-adv-x="621" 
d="M541 1080h-69l-392 285l74 71z" />
    <glyph glyph-name="a" unicode="a" horiz-adv-x="943" 
d="M745 23c-14.667 16 -23.6699 39.667 -27.0029 71c-36 -22.667 -80 -43.834 -132 -63.501s-101.333 -33.167 -148 -40.5c-46.667 -8 -100.667 -8.83301 -162 -2.5s-118.666 28.166 -171.999 65.499c-41.333 32 -69 66.667 -83 104s-21 76.333 -21 117v9
c0 27.333 8.66699 62.5 26 105.5s50 85.167 98 126.5c46.667 38.667 113.167 69.5 199.5 92.5s189.833 28.833 310.5 17.5c28 -2.66699 52.333 -5.66699 73 -9c-13.333 84.667 -41.666 158.334 -84.999 221.001s-102 97.667 -176 105c-18 2 -45.333 1.5 -82 -1.5
s-72.834 -15.833 -108.501 -38.5s-61.167 -62.667 -76.5 -120c-2.66699 -12.667 -4.66699 -26 -6 -40c-1.33301 -24.667 -5.5 -43.834 -12.5 -57.501s-23.5 -12.5 -49.5 3.5c-50 40 -61.667 88.667 -35 146s69.667 101 129 131c44 18.667 85.5 29.5 124.5 32.5
s71.833 3.5 98.5 1.5c6.66699 -0.666992 12.667 -1 18 -1c140.667 -9.33301 241.834 -60.166 303.501 -152.499s92.5 -209.166 92.5 -350.499v0v-378c0.666992 -16.667 4.33398 -30.834 11.001 -42.501s15 -21.167 25 -28.5s20 -13 30 -17s18.333 -6.83301 25 -8.5l10 -2.5
l-23 -7c-15.333 -4.66699 -34 -8.66699 -56 -12s-43.833 -3.66602 -65.5 -0.999023s-39.5 11 -53.5 25zM714.997 156v88.0039v76v15v177c0 15.333 -0.666992 31 -2 47c-30 5.33301 -60.333 9.66602 -91 12.999c-138 13.333 -250.333 -0.333984 -337 -41.001
s-139.334 -110.334 -158.001 -209.001c-10.667 -91.333 17.333 -158.333 84 -201s142.334 -61.334 227.001 -56.001c60.667 6 116.5 19 167.5 39s87.5 37.333 109.5 52z" />
    <glyph glyph-name="b" unicode="b" horiz-adv-x="905" 
d="M4 1463h-1h1zM0 -7l0.00488281 5.99805h15c17.333 0 34.666 6.33301 51.999 19c23.333 18.667 35.666 50.667 36.999 96v1303c-1.33301 18.667 -7 32.167 -17 40.5s-23 12.5 -39 12.5c-17.333 0 -32 -2.33301 -44 -7c6 2.66699 20.667 7.33398 44 14.001
s49.5 13.334 78.5 20.001s53.833 10 74.5 10c20 0 30 -26 30 -78v-530c70.667 66.667 166 100 286 100c92.667 0 165 -22 217 -66c89.333 -76 143 -184 161 -324c6 -48 9 -85.333 9 -112v-2c0 -98 -18.333 -192.333 -55 -283c-60.667 -145.333 -171.334 -218 -332.001 -218
c-70.667 0 -129.834 10.833 -177.501 32.5s-83.834 44.167 -108.501 67.5v-100h-127zM489.005 47.998c191.333 0 287 149.333 287 448c0 64.667 -6.66699 131.667 -20 201c-30.667 164.667 -119.667 247 -267 247c-62.667 0 -116.667 -17.167 -162 -51.5
s-77.333 -72.833 -96 -115.5v-600c63.333 -86 149.333 -129 258 -129z" />
    <glyph glyph-name="c" unicode="c" horiz-adv-x="864" 
d="M513 -1l-20.998 0.00195312c-138.667 0 -255.334 42.5 -350.001 127.5s-142 211.5 -142 379.5c0 226 85.667 375.667 257 449c76.667 32.667 161 49 253 49h18c22 0 47.167 -2 75.5 -6s65.5 -16.333 111.5 -37c59.333 -29.333 102.333 -71.333 129 -126
c8.66699 -18.667 13 -36.334 13 -53.001c0 -32.667 -16.333 -62 -49 -88c-14.667 -10 -26.334 -15 -35.001 -15c-16 0 -25 20.333 -27 61c-7.33301 72 -31 124.833 -71 158.5s-90 50.5 -150 50.5c-26.667 0 -50.667 -1 -72 -3c-86.667 -11.333 -162.5 -55.333 -227.5 -132
s-97.833 -181 -98.5 -313c7.33301 -122.667 48.833 -222.167 124.5 -298.5s162.167 -117.5 259.5 -123.5c132 0 235.333 54.333 310 163l43 -17c-16 -30 -38 -62.333 -66 -97s-65 -64.834 -111 -90.501s-104 -38.5 -174 -38.5z" />
    <glyph glyph-name="d" unicode="d" horiz-adv-x="902" 
d="M387 -1c-162 0 -272.667 72.6641 -332 217.997c-36.667 88.667 -55 180.667 -55 276v15c0 92 18.667 183.667 56 275c60 147.333 170.333 221 331 221c122 0 217.667 -33.667 287 -101v519c-2.66699 35.333 -21.334 53 -56.001 53c-17.333 0 -32 -2.33301 -44 -7
c6 2.66699 20.667 7.33398 44 14.001s49.5 13.334 78.5 20.001s53.833 10 74.5 10c12 0 19.833 -7.66699 23.5 -23s5.83398 -33.666 6.50098 -54.999v-1201h-1c0 -26.667 0.333008 -49 1 -67v-44c0 -42 21.667 -71.667 65 -89l36 -11l-23 -7
c-32.667 -10 -63.667 -15 -93 -15c-10 0 -22.667 1 -38 3c-42 5.33301 -66 38 -72 98c-72 -68 -168.333 -102 -289 -102zM415 52.9971c108.667 0 195.002 42.999 259.002 128.999v599c-18.667 42.667 -50.834 81.334 -96.501 116.001s-99.834 52 -162.501 52
c-147.333 0 -236.666 -82.333 -267.999 -247c-12.667 -69.333 -19 -136.333 -19 -201s6.33301 -131.667 19 -201c31.333 -164.667 120.666 -247 267.999 -247zM574.002 1468h-1h1z" />
    <glyph glyph-name="e" unicode="e" horiz-adv-x="863" 
d="M513 -6h-22c-138 0 -254.333 42.5 -349 127.5s-142 211.5 -142 379.5c0 120.667 23.5 217.334 70.5 290.001s108.667 125.5 185 158.5s159.5 49.5 249.5 49.5h12c130.667 0 221 -37.833 271 -113.5s75 -204.5 75 -386.5c0 -0.666992 -2.33301 -1 -7 -1h-729v-2
c6.66699 -122.667 48 -222.167 124 -298.5s162.333 -117.5 259 -123.5c132 0 235.333 54.333 310 163l43 -17c-15.333 -30 -37 -62.333 -65 -97s-65 -64.834 -111 -90.501s-104 -38.5 -174 -38.5zM737 553l1 54.0029c0 89.333 -9.66699 164.666 -29 225.999
s-66.333 97.333 -141 108c-18 2 -37.333 3 -58 3c-20 0 -39 -1 -57 -3c-80 -10.667 -151.333 -49.334 -214 -116.001s-99.667 -157.334 -111 -272.001h609z" />
    <glyph glyph-name="f" unicode="f" horiz-adv-x="838" 
d="M363 -1h-333.999v5h10c20.667 0 39 6.33301 55 19c23.333 18 36.333 48.333 39 91v836h-133v55h133v12c0 150.667 27.167 270 81.5 358s146.5 133 276.5 135h23c20 0 43.667 -2 71 -6s64 -16.333 110 -37c59.333 -29.333 102.333 -71.333 129 -126
c9.33301 -19.333 14 -37.333 14 -54c0 -32.667 -16.333 -61.667 -49 -87c-15.333 -10 -27.333 -15 -36 -15c-14.667 0 -23.334 20.333 -26.001 61c-1.33301 13.333 -3.33301 26.333 -6 39c-14 55.333 -35.333 95 -64 119c-41.333 34 -93.666 51 -156.999 51h-8
c-132.667 0 -206.667 -85.333 -222 -256c-6.66699 -70 -10 -134.667 -10 -194h351v-55h-351v-834c1.33301 -24.667 5.66602 -44.334 12.999 -59.001c12 -27.333 30.333 -43.666 55 -48.999l35 -4v-5z" />
    <glyph glyph-name="g" unicode="g" horiz-adv-x="840" 
d="M439 -455c-74 0 -144.501 5.16992 -211.501 15.5029s-121.5 30.166 -163.5 59.499s-63 72.666 -63 129.999c0 42.667 12.167 75.667 36.5 99s52.5 39.333 84.5 48s60 13 84 13c-41.333 -24.667 -66.666 -53.334 -75.999 -86.001c-4 -16 -6 -31.667 -6 -47
s3.33301 -33.833 10 -55.5s16.667 -38.834 30 -51.501c26.667 -26.667 60.167 -45 100.5 -55s101.166 -15 182.499 -15c34.667 0 80.334 4.66699 137.001 14s99.667 29 129 59c22 28 33 55.667 33 83c0 3.33301 -0.666992 13.166 -2 29.499s-10.666 35.833 -27.999 58.5
s-35.333 38.334 -54 47.001c-32 12 -79.333 18 -142 18l-38 -1c-17.333 -0.666992 -35 -1 -53 -1c-96.667 0 -198 13.667 -304 41c-83.333 24.667 -125 72 -125 142l1 21c13.333 80.667 87 128.667 221 144c-138 80 -207 197.333 -207 352c0 110 36.667 202.5 110 277.5
s165.666 114.833 276.999 119.5h8c62.667 0 123 -14 181 -42c45.333 81.333 91 122 137 122c28.667 0 57.334 -15.333 86.001 -46c2 -1.33301 5.66699 -5 11 -11c10 -12 15 -24.667 15 -38c0 -4.66699 -0.666992 -9.66699 -2 -15c-8 -24 -21 -40.333 -39 -49
c-8.66699 -4 -16.667 -6 -24 -6c-20.667 0 -40.667 15.333 -60 46c-10 15.333 -18.333 23 -25 23c-10.667 0 -26.334 -19.333 -47.001 -58c108 -80.667 162 -188.334 162 -323.001c0 -112 -38.167 -206.333 -114.5 -283s-169.833 -115 -280.5 -115
c-52 0 -101 9.33301 -147 28c-44 -7.33301 -81 -21 -111 -41c-20 -13.333 -30 -30.666 -30 -51.999c0 -10.667 2.66699 -22.667 8 -36c20 -38.667 57 -61.667 111 -69c33.333 -4 69.333 -6 108 -6c23.333 0 48 1 74 3s51.333 3 76 3c80.667 0 152 -12.667 214 -38
c82 -43.333 124 -110.666 126 -201.999c-0.666992 -73.333 -25 -128.333 -73 -165s-104 -60.667 -168 -72s-117 -17 -159 -17zM409.999 264.003c62 0 112.667 17.167 152 51.5s68.5 77.833 87.5 130.5s28.5 106.334 28.5 161.001c0 94 -23.333 175 -70 243
c-48.667 66 -114.667 99 -198 99c-81.333 0 -146.333 -34.833 -195 -104.5s-73 -148.834 -73 -237.501c0 -56 10 -110.167 30 -162.5s49.833 -95.5 89.5 -129.5s89.167 -51 148.5 -51zM651.999 720.003l-5 5z" />
    <glyph glyph-name="h" unicode="h" horiz-adv-x="1015" 
d="M335 -1h-335.001v6h15c18 0 35 6.33301 51 19c24 18 36.667 49.333 38 94v1348c0 20 -4.33301 34.333 -13 43c-11.333 10 -26.666 15 -45.999 15c-6.66699 0 -14.167 -0.833008 -22.5 -2.5s-14.166 -3.16699 -17.499 -4.5c6 2 20.667 6.5 44 13.5s49.5 13.833 78.5 20.5
s53.833 10 74.5 10c14.667 0 23.334 -11.333 26.001 -34c2 -18.667 3 -43.667 3 -75v-556c70.667 72.667 169.334 109 296.001 109c93.333 0 166.333 -18.667 219 -56c90 -66 143.333 -168 160 -306c4.66699 -45.333 7 -85.333 7 -120l1 -402c0 -16.667 3.66699 -31 11 -43
c11.333 -20.667 29.666 -36 54.999 -46l35 -10l-23 -7c-32.667 -10 -63.334 -15 -92.001 -15c-10 0 -22.667 1 -38 3c-50 6 -75 51.333 -75 136l-1 362c0 86 -6.5 162.833 -19.5 230.5s-40 121 -81 160s-103.167 58.5 -186.5 58.5c-69.333 0 -127.833 -20.5 -175.5 -61.5
s-78.5 -84.833 -92.5 -131.5v-633c1.33301 -48.667 13.666 -81.667 36.999 -99c16 -14 35 -21 57 -21h10v-5z" />
    <glyph glyph-name="i" unicode="i" 
d="M3 961l1 1zM334 -2l-334.003 0.000976562v6h14c18 0 35 6.33301 51 19c24 18 36.667 49.333 38 94v794c0 20 -4.33301 34.333 -13 43c-11.333 10 -26.666 15 -45.999 15c-6.66699 0 -14.167 -0.833008 -22.5 -2.5s-14.166 -3.16699 -17.499 -4.5c6 2 20.667 6.5 44 13.5
s49.5 13.833 78.5 20.5s53.833 10 74.5 10c14.667 0 23.334 -11.667 26.001 -35c2.66699 -18.667 4 -43.334 4 -74.001v-283h-1v-571l1 80c0 -46.667 12 -79.667 36 -99c16 -14 35 -21 57 -21h10v-5zM145.997 1148c-23.333 0 -43.166 8.16699 -59.499 24.5
s-24.5 36.166 -24.5 59.499s8.16699 43.166 24.5 59.499s36.166 24.5 59.499 24.5s43.166 -8.16699 59.499 -24.5s24.5 -36.166 24.5 -59.499s-8.16699 -43.166 -24.5 -59.499s-36.166 -24.5 -59.499 -24.5z" />
    <glyph glyph-name="j" unicode="j" horiz-adv-x="602" 
d="M245 -508l-18.0059 -0.000976562c-22 0 -47.167 2 -75.5 6s-65.5 16.333 -111.5 37c-59.333 29.333 -102.333 71.333 -129 126c-8.66699 18.667 -13 36.334 -13 53.001c0 32.667 16.333 62 49 88c14.667 10 26.334 15 35.001 15c16 0 25 -20.333 27 -61
c0.666992 -13.333 2.33398 -26.333 5.00098 -39c14.667 -55.333 36.334 -95 65.001 -119c40.667 -34 92.667 -51 156 -51h6c79.333 0 135 25.333 167 76s51.167 111 57.5 181s9.5 134.667 9.5 194v909c0 38.667 -19.667 58 -59 58c-15.333 0 -28.666 -2.33301 -39.999 -7
c88 29.333 153.667 44 197 44c14.667 0 23.334 -11.667 26.001 -35c2 -18 3 -37.333 3 -58v-924c0 -150.667 -27.167 -270 -81.5 -358s-146.166 -133 -275.499 -135zM373.994 956.999l2 1zM517.994 1144c-23.333 0 -43.166 8.16699 -59.499 24.5s-24.5 36.166 -24.5 59.499
s8.16699 43.166 24.5 59.499s36.166 24.5 59.499 24.5s43.166 -8.16699 59.499 -24.5s24.5 -36.166 24.5 -59.499s-8.16699 -43.166 -24.5 -59.499s-36.166 -24.5 -59.499 -24.5z" />
    <glyph glyph-name="k" unicode="k" horiz-adv-x="988" 
d="M334 -2h-334.003v6h14c18 0 35 6.33301 51 19c24 18 36.667 49.333 38 94v1348c0 20 -4.33301 34.333 -13 43c-11.333 10 -26.666 15 -45.999 15c-6.66699 0 -14.167 -0.833008 -22.5 -2.5s-14.166 -3.16699 -17.499 -4.5c6 2 20.667 6.5 44 13.5s49.5 13.833 78.5 20.5
s53.833 10 74.5 10c14.667 0 23.334 -11.333 26.001 -34c2.66699 -19.333 4 -44.333 4 -75v-283h-1v-750l512 582h73l-274 -312l384 -687h-140l-337 581l-218 -247l1 -212c0 -46.667 12 -79.667 36 -99c16 -14 35 -21 57 -21h10v-5zM855.997 123
c20.667 -46.667 43 -79.667 67 -99c16 -14 35 -21 57 -21h10v-5h-334v6h14c18 0 35 6.33301 51 19c24 18 23.667 49.333 -1 94zM644.997 885c14 16.667 26.001 31.666 36.001 44.999c26 32.667 10.667 54.667 -46 66l-25 3v5h266v-5h-11
c-7.33301 -0.666992 -16.833 -2.5 -28.5 -5.5s-23.5 -8.83301 -35.5 -17.5s-24.833 -20.667 -38.5 -36s-52.834 -33.666 -117.501 -54.999z" />
    <glyph glyph-name="l" unicode="l" 
d="M334 -2l-333.998 -0.000976562v6h14c17.333 0 34.666 6.33301 51.999 19c22.667 16.667 35.334 48 38.001 94v1305c-2 32 -17.667 49.667 -47 53c-14.667 0 -26.334 -0.833008 -35.001 -2.5l-18 -3.5c6 2 20.667 6.33301 44 13s49.666 13.334 78.999 20.001s54 10 74 10
s30 -26 30 -78v-1311c0 -47.333 12.333 -80.333 37 -99c16 -14 34.667 -21 56 -21h10v-5z" />
    <glyph glyph-name="m" unicode="m" horiz-adv-x="1577" 
d="M995 -2l-102.999 1.00098h-230v5h10c18.667 0 36.334 5.66699 53.001 17c23.333 15.333 36.666 43.666 39.999 84.999v394c0 86 -6.66699 162.833 -20 230.5s-40.333 121.167 -81 160.5s-102.667 59 -186 59c-68.667 0 -124 -20.333 -166 -61s-69 -84 -81 -130v-636
c0 -47.333 12.333 -80.333 37 -99c16 -14 34.667 -21 56 -21h10v-5h-334v6h14c17.333 0 34.666 6.33301 51.999 19c22.667 16.667 35.334 48 38.001 94v792c0 20 -4.33301 34.333 -13 43c-11.333 10 -26.666 15 -45.999 15c-13.333 0 -27 -2.33301 -41 -7
c6 2 20.667 6.5 44 13.5s49.666 13.833 78.999 20.5s54 10 74 10c14.667 0 23.667 -11.333 27 -34c2 -18 3 -42.667 3 -74c62 72 153.333 108 274 108c126 0 220 -38.333 282 -115c22 24.667 58 50 108 76s114.667 39 194 39c257.333 0 386 -161.333 386 -484l1 -400
c0 -16.667 3.33301 -31 10 -43c11.333 -20.667 29.666 -36 54.999 -46l36 -10l-23 -7c-32.667 -10 -63.667 -15 -93 -15c-9.33301 0 -22 1 -38 3c-49.333 6 -74 51.333 -74 136l-1 362c0 86 -6.66699 162.833 -20 230.5s-40.333 121.167 -81 160.5s-102.667 59 -186 59
c-51.333 0 -96.833 -12 -136.5 -36s-71.5 -52.667 -95.5 -86c28.667 -57.333 46.667 -116 54 -176c6 -50 9 -94 9 -132v-396c0 -48 12.333 -81.333 37 -100c16.667 -13.333 34 -20 52 -20h14v-6z" />
    <glyph glyph-name="n" unicode="n" horiz-adv-x="1015" 
d="M335 -6h-335v6h15c18 -0 35 6.33301 51 19c24 18 36.667 49.333 38 94v792c0 20 -4.33301 34.333 -13 43c-11.333 10 -26.666 15 -45.999 15c-14.667 0 -28 -2.33301 -40 -7c6 2 20.667 6.5 44 13.5s49.5 13.833 78.5 20.5s53.5 10 73.5 10
c15.333 0 24.333 -11.333 27 -34c2 -18 3 -43 3 -75c23.333 24.667 59.5 49 108.5 73s111.5 36 187.5 36c257.333 0 386 -161.333 386 -484l1 -400c0 -16.667 3.66699 -31 11 -43c11.333 -20.667 29.333 -36 54 -46l36 -10l-23 -7c-32.667 -10 -63.667 -15 -93 -15
c-9.33301 0 -22 1 -38 3c-49.333 6.66699 -74 52 -74 136l-1 362c0 86 -6.66699 162.833 -20 230.5s-40.333 121.167 -81 160.5s-102.667 59 -186 59c-69.333 0 -127.833 -20.667 -175.5 -62s-78.5 -85 -92.5 -131v-634c1.33301 -48.667 13.666 -81.667 36.999 -99
c16 -14 35 -21 57 -21h10v-5z" />
    <glyph glyph-name="o" unicode="o" horiz-adv-x="902" 
d="M444 -5c-136.667 5.33301 -244.832 55.5029 -324.499 150.503s-119.5 214.5 -119.5 358.5c4 144.667 47.167 263.167 129.5 355.5s192.166 139.166 329.499 140.499c136.667 -4.66699 244.667 -54.334 324 -149.001s119 -213.334 119 -356.001v-4
c-4 -144 -47 -262.333 -129 -355s-191.667 -139.667 -329 -141zM484.002 54.0029c20.667 0 41.667 1.99902 63 5.99902c159.333 41.333 239 159 239 353c0 48.667 -6.33301 100.334 -19 155.001c-26 114.667 -75 209.334 -147 284.001c-58 60 -126 90 -204 90
c-20 0 -40.333 -2 -61 -6c-104.667 -28.667 -174 -91.667 -208 -189c-19.333 -55.333 -29 -113.333 -29 -174c0 -47.333 5.66699 -96 17 -146c26 -114.667 75 -209.334 147 -284.001c56.667 -59.333 124 -89 202 -89z" />
    <glyph glyph-name="p" unicode="p" horiz-adv-x="908" 
d="M335 -523l-335 0.000976562v5h11c20 0 38.333 6.66699 55 20c22.667 17.333 35.334 48.666 38.001 93.999v1304c0 38.667 -19.667 58 -59 58c-15.333 0 -28.666 -2.33301 -39.999 -7c5.33301 2 19.833 6.5 43.5 13.5s50 13.833 79 20.5s53.5 10 73.5 10
c14.667 0 23.667 -10.667 27 -32c2 -17.333 3 -36.333 3 -57v-15c24 24 60.167 47.333 108.5 70s108.833 34 181.5 34c162 0 273 -73.667 333 -221c36 -90 54 -181 54 -273v-17c0 -95.333 -18 -187.333 -54 -276c-60 -145.333 -171 -218 -333 -218
c-72.667 0 -133.167 11.333 -181.5 34s-84.5 46 -108.5 70v-492c1.33301 -48.667 13.666 -82 36.999 -100c17.333 -13.333 34.666 -20 51.999 -20h15v-5zM494 44.001c146.667 0 235.665 82.333 266.998 247c13.333 69.333 20 136.333 20 201s-6.66699 131.667 -20 201
c-31.333 165.333 -120.333 248 -267 248c-65.333 0 -121.166 -18.667 -167.499 -56s-78.166 -78 -95.499 -122v-585c63.333 -89.333 151 -134 263 -134zM4.99805 951.001h-2h2z" />
    <glyph glyph-name="q" unicode="q" horiz-adv-x="908" 
d="M905 960h-2h2zM573 -515l-0.00292969 6h15c17.333 0 35 6.66699 53 20c23.333 18 35 51.333 35 100l1 -2v494c-69.333 -69.333 -166.333 -104 -291 -104c-161.333 0 -271.666 72.667 -330.999 218c-36.667 89.333 -55 179.333 -55 270v27c0 89.333 18.333 179 55 269
c60 147.333 170.333 221 331 221c124.667 0 221.667 -34.667 291 -104v15c0 20.667 1.33301 40.667 4 60s11 29 25 29c20.667 0 45.5 -3.33301 74.5 -10s55.167 -13.5 78.5 -20.5s38 -11.5 44 -13.5c-11.333 4.66699 -24.666 7 -39.999 7
c-4.66699 0 -11.167 -0.5 -19.5 -1.5s-17 -5.66699 -26 -14s-13.5 -22.5 -13.5 -42.5v-1304c1.33301 -44.667 14 -76 38 -94c16.667 -13.333 35.334 -20 56.001 -20h10v-5h-231zM413.997 53c112 0 199.665 44.667 262.998 134v425h-1l1 159
c-17.333 44.667 -49.166 85.5 -95.499 122.5s-102.166 55.5 -167.499 55.5c-147.333 0 -236.333 -82.333 -267 -247c-13.333 -69.333 -20 -136.333 -20 -201s6.66699 -131.667 20 -201c30.667 -164.667 119.667 -247 267 -247z" />
    <glyph glyph-name="r" unicode="r" horiz-adv-x="797" 
d="M334 -6h-334.001v6h14c17.333 -0 34.666 6.33301 51.999 19c22.667 16.667 35.334 48 38.001 94v792c0 20 -4.33301 34.333 -13 43c-11.333 10 -26.666 15 -45.999 15c-13.333 0 -27 -2.33301 -41 -7c6 2 20.667 6.5 44 13.5s49.666 13.833 78.999 20.5s54 10 74 10
c15.333 0 24.333 -11.333 27 -34c2 -18 3 -54 3 -108c27.333 28.667 74 60.667 140 96c70.667 30.667 139 46 205 46c24.667 0 65 -5.33301 121 -16s89 -45 99 -103c0.666992 -1.33301 1 -3.33301 1 -6c0 -25.333 -9 -44.333 -27 -57c-14.667 -8.66699 -29 -13 -43 -13
c-28.667 0 -47 12.667 -55 38c-6 38.667 -32.333 66 -79 82c-14.667 5.33301 -31.667 8 -51 8c-41.333 0 -92.666 -11.667 -153.999 -35c-56.667 -24.667 -109 -65.667 -157 -123v-656c0 -47.333 12.333 -80.333 37 -99c16 -14 34.667 -21 56 -21h10v-5z" />
    <glyph glyph-name="s" unicode="s" horiz-adv-x="787" 
d="M355 -6c-23.333 0 -53.332 1.66406 -89.999 4.99707s-77 14 -121 32c-60.667 28 -104 71 -130 129c-9.33301 20 -14 39 -14 57c0 34 16.667 64 50 90c14 8.66699 25 13 33 13c15.333 0 24.333 -20.667 27 -62c1.33301 -16 3.66602 -31 6.99902 -45
c16.667 -51.333 43.334 -88.666 80.001 -111.999c54.667 -34.667 118.334 -52 191.001 -52c26.667 0 61 3.66699 103 11c110.667 20 166 66.333 166 139c0 44 -22.333 82.167 -67 114.5s-100.334 65.5 -167.001 99.5c-40.667 23.333 -78.667 43.666 -114 60.999
c-46 22.667 -90.167 47.334 -132.5 74.001s-77.5 57.5 -105.5 92.5s-42 77.5 -42 127.5c0 74 30.167 130.5 90.5 169.5s143.5 59.833 249.5 62.5h15c8.66699 1.33301 17.667 2 27 2c44 0 100.667 -12.333 170 -37c60.667 -28.667 104 -72 130 -130
c8.66699 -20 13 -38.667 13 -56c0 -34.667 -16.333 -65 -49 -91c-14 -8.66699 -25 -13 -33 -13c-15.333 0 -24.666 21 -27.999 63c-1.33301 16 -3.66602 30.667 -6.99902 44c-27.333 89.333 -76 142.333 -146 159c-28.667 6 -55 9 -79 9
c-22.667 0 -50.834 -4.83301 -84.501 -14.5s-64.834 -27.5 -93.501 -53.5s-43 -62.333 -43 -109c0 -39.333 16.833 -71 50.5 -95s74.5 -47 122.5 -69c32.667 -15.333 66 -33 100 -53l69 -38c45.333 -24.667 89.666 -51.167 132.999 -79.5s79.333 -60.166 108 -95.499
s43 -76 43 -122c0 -89.333 -37 -149.666 -111 -180.999c-69.333 -30 -156 -45 -260 -45z" />
    <glyph glyph-name="t" unicode="t" horiz-adv-x="725" 
d="M464 -10l-18.001 1c-84 6.66699 -147.5 35.5 -190.5 86.5s-71.333 126.833 -85 227.5s-20.5 229.667 -20.5 387v253h-150v54c47.333 0 87.333 9.66699 120 29s59.334 42.833 80.001 70.5s36.334 55.334 47.001 83.001s18 51.167 22 70.5l6 29l2 -282h448v-54h-448l1 -253
l-1 -98l-1 -78c0 -60 2.16699 -123.333 6.5 -190s19.833 -121.334 46.5 -164.001c49.333 -67.333 102.666 -101 159.999 -101c46 0 89.5 12.833 130.5 38.5s72.833 50.5 95.5 74.5l-2 -54c-29.333 -42.667 -69.333 -75.667 -120 -99c-44 -20.667 -87 -31 -129 -31z" />
    <glyph glyph-name="u" unicode="u" horiz-adv-x="1015" 
d="M900 -5c-10 0 -22.835 0.999023 -38.502 2.99902s-30.5 10 -44.5 24c-18 19.333 -27.667 50.333 -29 93c-22 -24.667 -58 -50 -108 -76s-114.667 -39 -194 -39c-165.333 0 -276.333 65.333 -333 196c-35.333 81.333 -53 177 -53 287v422c0 38.667 -20 58 -60 58
c-15.333 0 -28.666 -2.33301 -39.999 -7c88 29.333 153.667 44 197 44c14.667 0 23.667 -11.333 27 -34c2 -18 3 -37.667 3 -59v-298h-1l1 -106c0 -86 6.5 -162.667 19.5 -230s40 -120.666 81 -159.999s103.167 -59 186.5 -59c76.667 0 139.834 24.5 189.501 73.5
s77.5 97.833 83.5 146.5v631c0 38.667 -19.667 58 -59 58c-15.333 0 -28.666 -2.33301 -39.999 -7c88 29.333 153.333 44 196 44c15.333 0 24.333 -11.333 27 -34c2 -18 3 -37.667 3 -59v-791c0 -16.667 3.66699 -31 11 -43c12 -20.667 30.333 -36 55 -46l35 -10l-23 -7
c-32.667 -10 -63.334 -15 -92.001 -15z" />
    <glyph glyph-name="v" unicode="v" horiz-adv-x="1002" 
d="M554 -1l-135.001 -0.00390625l-281 895c-10.667 28 -23.667 49.333 -39 64s-30.5 24.834 -45.5 30.501s-27.5 8.83398 -37.5 9.50098l-16 1v5h104l1 -4l-1 4h234v-5h-9c-17.333 -1.33301 -32.333 -7.66602 -45 -18.999s-19 -27.666 -19 -48.999c0 -8 0.666992 -17 2 -27
l259 -817l273 798c5.33301 17.333 8 32.333 8 45c0 36 -15.333 58 -46 66l-25 3v5h266v-5h-11c-7.33301 -0.666992 -16.833 -2.5 -28.5 -5.5s-24.167 -8.66699 -37.5 -17s-26.166 -20.333 -38.499 -36s-22.5 -36.167 -30.5 -61.5z" />
    <glyph glyph-name="w" unicode="w" horiz-adv-x="1609" 
d="M1160 -1h-135.002l-226 721l-247 -721h-135l-285 909c-11.333 24 -24.333 42.333 -39 55c-26 21.333 -52.333 33 -79 35l-14 1v5h234l7 -24l-7 24h104v-5h-7c-27.333 -2 -46.666 -13 -57.999 -33c-6 -9.33301 -9 -21.666 -9 -36.999c0 -13.333 3 -29 9 -47
c-0.666992 0 -1 -0.333008 -1 -1l252 -794l247 722l-27 87c-11.333 27.333 -24.666 48.333 -39.999 63c-26 24 -53.333 37 -82 39l-15 1v5h337v-5h-9c-17.333 -1.33301 -32.333 -7.83301 -45 -19.5s-19 -27.834 -19 -48.501c0 -8.66699 1 -18.334 3 -29.001l258 -815
l275 802c4 16.667 6 31 6 43c0 14.667 -2.66699 26.667 -8 36c-9.33301 14.667 -22 24 -38 28l-24 3v5h162l-30 -85l30 85h104v-5h-11c-22.667 -1.33301 -45 -8.66602 -67 -21.999c-32 -20 -55 -52.667 -69 -98v2z" />
    <glyph glyph-name="x" unicode="x" horiz-adv-x="977" 
d="M797 893l-254.002 -364.001l274 -442c22.667 -24.667 45.834 -43 69.501 -55s43.5 -19.5 59.5 -22.5l24 -4.5v-5h-99v0h-4v0v0h-146v0h-1h-1v0h-102v5l6 1.5c4 1 8.83301 2.83301 14.5 5.5s11 6.5 16 11.5s8.83301 11.333 11.5 19s2.83398 17.334 0.500977 29.001
s-7.83301 25.5 -16.5 41.5l-185 302l-219 -313c-8 -14.667 -12.833 -27.167 -14.5 -37.5s-1.16699 -19.166 1.5 -26.499s6.33398 -13.166 11.001 -17.499s9.66699 -7.5 15 -9.5s9.83301 -3.5 13.5 -4.5l5.5 -1.5v-5h-103v0v0v0v0h-68v0v0v0v0h-103v5l29 5.5
c19.333 3.66699 42.833 13 70.5 28s54.5 39.167 80.5 72.5l249 356l-270 438c-23.333 28 -47.5 48.667 -72.5 62s-46.167 21.666 -63.5 24.999l-26 5v6h101v0h148v0h104v-6l-6.5 -1c-4.33301 -0.666992 -9.33301 -2.5 -15 -5.5s-11 -7.16699 -16 -12.5
s-8.66699 -12.166 -11 -20.499s-2 -18.833 1 -31.5s9.5 -27.667 19.5 -45v0v0l186 -300l222 317c8 15.333 13.167 28.333 15.5 39s2.16602 19.667 -0.500977 27s-6.33398 13.166 -11.001 17.499s-9.66699 7.66602 -15 9.99902s-9.83301 3.83301 -13.5 4.5l-5.5 1v6h103v0h68
v0h103v-6l-29 -5c-19.333 -3.33301 -42.666 -12.5 -69.999 -27.5s-54.333 -38.833 -81 -71.5z" />
    <glyph glyph-name="y" unicode="y" horiz-adv-x="1002" 
d="M194 -530c-23.333 0 -44.666 6.66211 -63.999 19.9951c-2 1.33301 -5.33301 5 -10 11c-12 12.667 -18 25.334 -18 38.001c0 4.66699 0.666992 9.33398 2 14.001c6 24.667 17.667 41.667 35 51c9.33301 4.66699 18.333 7 27 7c8 0 16 -2 24 -6c16 -12 34 -18 54 -18
c18 0 43.5 8.16699 76.5 24.5s68.833 68.833 107.5 157.5c11.333 26.667 22.333 56.334 33 89.001l-321 1023c-11.333 28.667 -24.666 50.667 -39.999 66s-30.666 26 -45.999 32s-28 9.33301 -38 10l-16 1v5h338v-5h-9c-17.333 -1.33301 -32.333 -7.5 -45 -18.5
s-19 -27.167 -19 -48.5c0 -7.33301 0.666992 -16 2 -26l259 -819l272 795c6 20.667 9 38 9 52c-0.666992 13.333 -3.33398 24.333 -8.00098 33c-8.66699 14.667 -21.334 24.334 -38.001 29.001l-25 3v5h266v-5l-16 -1c-10.667 -0.666992 -23.667 -4 -39 -10
c-38 -14.667 -67 -46.667 -87 -96c-203.333 -595.333 -308.333 -905.333 -315 -930c-23.333 -84 -45 -154.333 -65 -211c-38.667 -99.333 -94.334 -174.666 -167.001 -225.999c-44 -30.667 -83.667 -46 -119 -46z" />
    <glyph glyph-name="z" unicode="z" horiz-adv-x="830" 
d="M779 -1l-779 -0.00195312l640 950h-396c-32 0 -58.667 -5.16699 -80 -15.5s-38.5 -23.166 -51.5 -38.499s-22.833 -30.666 -29.5 -45.999s-11 -28 -13 -38l-3 -16h-18l29 209h599v1h153l-639 -951h422c56.667 0 100.667 18 132 54c22 26 36 54 42 84l3 16h18z" />
    <glyph glyph-name="braceleft" unicode="{" horiz-adv-x="734" 
d="M533.5 -95.5l75.5 -37.9971c26.667 -13.667 39 -20.5 37 -20.5c-155.333 -51.333 -261.666 -16 -318.999 106c-11.333 34 -17.5 79 -18.5 135s-0.833008 114.667 0.5 176c2 56 2.66699 105.167 2 147.5s-6.66699 79.5 -18 111.5c-0.666992 1.33301 -9.5 12.5 -26.5 33.5
s-35.667 41.667 -56 62s-47.166 40.166 -80.499 59.499l-50 29c22 0 43.833 8.33301 65.5 25l63.5 51c20.667 17.333 39.667 35.166 57 53.499s29 34.5 35 48.5c6 18 9.33301 48.833 10 92.5s0 93.5 -2 149.5c-1.33301 61.333 -1.5 119.833 -0.5 175.5
s7.16699 100.5 18.5 134.5c57.333 122.667 166.333 158 327 106c-13.333 0 -37.5 -7.83301 -72.5 -23.5s-63.833 -32.667 -86.5 -51s-38.334 -40.833 -47.001 -67.5c-10 -29.333 -15.333 -66.166 -16 -110.499s-0.333984 -93.833 0.999023 -148.5
c2 -61.333 2.5 -120 1.5 -176s-7.16699 -100.667 -18.5 -134c-27.333 -69.333 -64 -113.333 -110 -132c45.333 -22.667 82 -70.334 110 -143.001c11.333 -32.667 17.5 -76.834 18.5 -132.501s0.5 -114.167 -1.5 -175.5c-1.33301 -55.333 -0.5 -111.666 2.5 -168.999
s14.167 -97.833 33.5 -121.5s40.833 -41.334 64.5 -53.001z" />
    <glyph glyph-name="bar" unicode="|" horiz-adv-x="223" 
d="M80 1577h63v-1995h-63v1995z" />
    <glyph glyph-name="braceright" unicode="}" horiz-adv-x="734" 
d="M265 -42.5c19.333 23.667 30.499 64.1641 33.499 121.497s3.83301 113.666 2.5 168.999c-2 61.333 -2.5 119.833 -1.5 175.5s6.83301 99.834 17.5 132.501c28 72.667 65 120.334 111 143.001c-46 18.667 -83 62.667 -111 132c-10.667 33.333 -16.5 78 -17.5 134
s-0.5 114.667 1.5 176c1.33301 54.667 1.66602 104.167 0.999023 148.5s-6 81.166 -16 110.499c-9.33301 26.667 -25.333 49.167 -48 67.5s-51.334 35.333 -86.001 51s-58.667 23.5 -72 23.5c160.667 52 269.667 16.667 327 -106c11.333 -34 17.5 -78.833 18.5 -134.5
s0.833008 -114.167 -0.5 -175.5c-2 -56 -2.66699 -105.833 -2 -149.5s4 -74.5 10 -92.5c5.33301 -14 16.833 -30.167 34.5 -48.5s36.667 -36.166 57 -53.499s41.333 -34.333 63 -51s43.834 -25 66.501 -25l-50 -29c-33.333 -19.333 -60.166 -39.166 -80.499 -59.499
s-39.166 -41 -56.499 -62s-26.333 -32.167 -27 -33.5c-10.667 -32 -16.334 -69.167 -17.001 -111.5s0 -91.5 2 -147.5c1.33301 -61.333 1.5 -120 0.5 -176s-7.16699 -101 -18.5 -135c-57.333 -122 -163.666 -157.333 -318.999 -106c-2.66699 0 9.5 6.83301 36.5 20.5l76 38
c23.667 11.667 45.167 29.334 64.5 53.001z" />
    <glyph glyph-name="asciitilde" unicode="~" horiz-adv-x="734" 
d="M654 1353c-13.333 -48.667 -36.1699 -89.167 -68.5029 -121.5s-75.833 -48.5 -130.5 -48.5c-33.333 0 -71.5 10.333 -114.5 31s-83.833 31 -122.5 31c-39.333 0 -67.333 -27.333 -84 -82h-54c12.667 50.667 35.334 91.667 68.001 123s72.334 47 119.001 47
c37.333 0 77.833 -9.33301 121.5 -28s84.834 -28 123.501 -28c40 0 69.333 25.333 88 76h54z" />
    <glyph glyph-name="exclamdown" unicode="&#xa1;" horiz-adv-x="338" 
d="M165 610h35l58 -1090h-177l48 1090h36zM165 958c22.667 0 42.334 -8.16699 59.001 -24.5s25 -36.166 25 -59.499s-8.33301 -43.166 -25 -59.499s-36.334 -24.5 -59.001 -24.5c-23.333 0 -43.333 8.16699 -60 24.5s-25 36.166 -25 59.499s8.33301 43.166 25 59.499
s36.667 24.5 60 24.5z" />
    <glyph glyph-name="cent" unicode="&#xa2;" horiz-adv-x="1024" 
d="M593 -1l-20.998 0.00195312c-138.667 0 -255.334 42.5 -350.001 127.5s-142 211.5 -142 379.5c0 226 85.667 375.667 257 449c76.667 32.667 161 49 253 49h18c22 0 47.167 -2 75.5 -6s65.5 -16.333 111.5 -37c59.333 -29.333 102.333 -71.333 129 -126
c8.66699 -18.667 13 -36.334 13 -53.001c0 -32.667 -16.333 -62 -49 -88c-14.667 -10 -26.334 -15 -35.001 -15c-16 0 -25 20.333 -27 61c-7.33301 72 -31 124.833 -71 158.5s-90 50.5 -150 50.5c-26.667 0 -50.667 -1 -72 -3c-86.667 -11.333 -162.5 -55.333 -227.5 -132
s-97.833 -181 -98.5 -313c7.33301 -122.667 48.833 -222.167 124.5 -298.5s162.167 -117.5 259.5 -123.5c132 0 235.333 54.333 310 163l43 -17c-16 -30 -38 -62.333 -66 -97s-65 -64.834 -111 -90.501s-104 -38.5 -174 -38.5zM265.002 -192.998l-53 2l475 1387l54 -2z" />
    <glyph glyph-name="sterling" unicode="&#xa3;" horiz-adv-x="1206" 
d="M92 2l-2.00195 60.999h50c136 108 145 372 27 792c-20 70.667 -30 126.334 -30 167.001c0 163.333 87.333 283 262 359c72.667 29.333 136.334 44 191.001 44l35 1c90.667 0 171.334 -18.667 242.001 -56c81.333 -41.333 143.666 -93 186.999 -155
c26 -35.333 39 -76 39 -122c0 -57.333 -27 -99.666 -81 -126.999c-10.667 -4.66699 -19.667 -7 -27 -7c-15.333 0 -23 14.333 -23 43l1 70c-29.333 195.333 -146.666 294.666 -351.999 297.999c-91.333 0 -172.333 -26.667 -243 -80c-84 -67.333 -126 -139 -126 -215
c0 -45.333 10.333 -114.333 31 -207c41.333 -226 67.5 -396.167 78.5 -510.5s-8.5 -212.5 -58.5 -294.5h833v-61h-1034zM79.998 526.999v67h437l1 -67h-438z" />
    <glyph glyph-name="currency" unicode="&#xa4;" horiz-adv-x="929" 
d="M308 560c27.333 -26.667 60.333 -45.6641 99 -56.9971c19.333 -5.33301 38.666 -8 57.999 -8s38.666 2.66699 57.999 8c38.667 11.333 71.667 30.333 99 57c26.667 27.333 45.667 60.333 57 99c6 19.333 9 38.666 9 57.999s-3 38.666 -9 57.999
c-11.333 38.667 -30.333 71.667 -57 99c-27.333 26.667 -60.666 45.667 -99.999 57c-19.333 5.33301 -38.666 8 -57.999 8s-38.666 -3 -57.999 -9c-38.667 -11.333 -71.334 -30 -98.001 -56c-26 -26.667 -44.667 -59.334 -56 -98.001c-6.66699 -20 -10 -40 -10 -60
c0 -18.667 3 -37.334 9 -56.001c10.667 -39.333 29.667 -72.666 57 -99.999zM198 903.003l-118.001 118l80 81l118 -118c29.333 20 62.333 35.333 99 46c29.333 9.33301 59 14 89 14c27.333 0 55 -4 83 -12c38 -11.333 72 -27.333 102 -48l118 118l80 -81l-117 -117
c20.667 -30.667 36.667 -64.667 48 -102c8 -28 12 -56.333 12 -85c0 -28 -4 -56.333 -12 -85c-11.333 -37.333 -27.333 -71.333 -48 -102l117 -117l-80 -81l-118 118c-30 -21.333 -63.667 -37.333 -101 -48c-28 -8 -56.333 -12 -85 -12c-28 0 -56.333 4 -85 12
c-38 10.667 -72 26.667 -102 48l-118 -118l-80 81l118 117c-21.333 30.667 -37.333 65 -48 103c-8 28 -12 56 -12 84c0 29.333 4.33301 58.333 13 87c10.667 36.667 26.334 69.667 47.001 99z" />
    <glyph glyph-name="yen" unicode="&#xa5;" horiz-adv-x="1233" 
d="M735 -3h-286.002v5h9c48.667 0 75.334 35.667 80.001 107v617l-311 593c-24 42.667 -56 73.334 -96 92.001l-51 15v6h302v-6l-9 -1c-5.33301 -1.33301 -12.166 -6.5 -20.499 -15.5s-12.833 -20.5 -13.5 -34.5c0 -4.66699 1 -12.334 3 -23.001s97.667 -195.667 287 -555
l313 525c10.667 22 16 41 16 57c0 18 -7.66699 31.667 -23 41l-18 6v6h89l-2 -3l2 3h147v-6l-25 -5c-46.667 -10 -88.667 -41.333 -126 -94l-356 -601v-604c0 -48.667 10.333 -82 31 -100c14 -13.333 28 -20.333 42 -21l16 1v-5zM245.998 412v67h835l2 -67h-837z
M245.998 546v67h835l2 -67h-837z" />
    <glyph glyph-name="brokenbar" unicode="&#xa6;" horiz-adv-x="223" 
d="M80 1579h63v-858h-63v858zM80 439h63v-858h-63v858z" />
    <glyph glyph-name="section" unicode="&#xa7;" horiz-adv-x="947" 
d="M200 267c-48 27.333 -83.334 65.998 -106.001 115.998c-9.33301 20 -14 39 -14 57v22c0 89.333 37 149.666 111 180.999c60 26 132.667 40.667 218 44l-20 10c-46 22.667 -90.167 47.334 -132.5 74.001s-77.5 57.5 -105.5 92.5s-42 77.5 -42 127.5
c0 74 30.167 130.5 90.5 169.5s143.5 59.833 249.5 62.5h15c8.66699 1.33301 17.667 2 27 2c44 0 100.667 -12.333 170 -37c60.667 -28.667 104 -72 130 -130c8.66699 -20 13 -38.667 13 -56c0 -34.667 -16.333 -65 -49 -91c-14 -8.66699 -25 -13 -33 -13
c-15.333 0 -24.666 21 -27.999 63c-1.33301 16 -3.66602 30.667 -6.99902 44c-27.333 89.333 -76 142.333 -146 159c-28.667 6 -55 9 -79 9c-22.667 0 -50.834 -4.83301 -84.501 -14.5s-64.834 -27.5 -93.501 -53.5s-43 -62.333 -43 -109c0 -39.333 16.833 -71 50.5 -95
s74.5 -47 122.5 -69c32.667 -15.333 66 -33 100 -53l69 -38c45.333 -24.667 89.666 -51 132.999 -79c10.667 -7.33301 21 -15 31 -23c48 -27.333 83.333 -66 106 -116c9.33301 -20 14 -39 14 -57v-22c0 -89.333 -37 -149.666 -111 -180.999
c-59.333 -26 -131.666 -40.667 -216.999 -44c6.66699 -3.33301 13 -6.66602 19 -9.99902c46 -22.667 90.167 -47.334 132.5 -74.001s77.5 -57.5 105.5 -92.5s42 -77.5 42 -127.5c0 -74 -30.167 -130.5 -90.5 -169.5s-143.5 -59.833 -249.5 -62.5h-15
c-8.66699 -1.33301 -17.667 -2 -27 -2c-44 0 -100.667 12.333 -170 37c-60.667 28.667 -104 72 -130 130c-8.66699 20 -13 39 -13 57c0 34 16.333 64 49 90c14 9.33301 25 14 33 14c15.333 0 24.666 -21.333 27.999 -64c1.33301 -16 3.66602 -30.667 6.99902 -44
c28 -89.333 77 -142 147 -158c28 -6.66699 54 -10 78 -10c22.667 0 50.834 4.83301 84.501 14.5s64.834 27.5 93.501 53.5s43 62.333 43 109c0 39.333 -16.833 71 -50.5 95s-74.5 47 -122.5 69c-32.667 15.333 -66 33 -100 53l-69 38
c-45.333 24.667 -89.666 51.334 -132.999 80.001c-10.667 6.66699 -21 14 -31 22zM437.999 272.998c10 -0.666992 20 -1 30 -1c26.667 0 61 3.66699 103 11c110.667 20 166 66.333 166 139c0 44 -22.333 82.333 -67 115c-43.333 31.333 -97 63.333 -161 96
c-10 0.666992 -20 1 -30 1c-26.667 0 -60.667 -3.66699 -102 -11c-111.333 -20 -167 -66.333 -167 -139c0 -44 22.333 -82 67 -114c43.333 -32 97 -64.333 161 -97z" />
    <glyph glyph-name="dieresis" unicode="&#xa8;" horiz-adv-x="657" 
d="M152 1203c-20 0 -37 7 -51 21s-21 31 -21 51s7 37 21 51s31 21 51 21c19.333 0 36 -7 50 -21s21 -31 21 -51s-7 -37 -21 -51s-30.667 -21 -50 -21zM506 1203c-20 0 -37 7 -51 21s-21 31 -21 51s7 37 21 51s31 21 51 21c19.333 0 36 -7 50 -21s21 -31 21 -51
s-7 -37 -21 -51s-30.667 -21 -50 -21z" />
    <glyph glyph-name="copyright" unicode="&#xa9;" horiz-adv-x="1559" 
d="M780 18c-128.667 0 -246 31.5 -352 94.5s-190.5 147.333 -253.5 253s-94.5 222.834 -94.5 351.501s31.5 246 94.5 352s147.5 190.5 253.5 253.5s223.333 94.5 352 94.5s245.834 -31.5 351.501 -94.5s190 -147.5 253 -253.5s94.5 -223.333 94.5 -352
s-31.5 -245.834 -94.5 -351.501s-147.333 -190 -253 -253s-222.834 -94.5 -351.501 -94.5zM780 108c112 0 214.167 27.5 306.5 82.5s165.833 128.667 220.5 221s82 194.5 82 306.5s-27.333 214.167 -82 306.5s-128.167 166 -220.5 221s-194.5 82.5 -306.5 82.5
s-214.167 -27.5 -306.5 -82.5s-166 -128.667 -221 -221s-82.5 -194.5 -82.5 -306.5s27.5 -214.167 82.5 -306.5s128.667 -166 221 -221s194.5 -82.5 306.5 -82.5zM825 269l-18.998 0.00195312c-122.667 0 -225.834 37.667 -309.501 113s-125.5 187 -125.5 335
c0 200 75.667 332.333 227 397c68 29.333 142.667 44 224 44h16c19.333 0 41.5 -1.83301 66.5 -5.5s57.833 -14.5 98.5 -32.5c52.667 -26 91 -63.333 115 -112c7.33301 -16 11 -31.667 11 -47c0 -28.667 -14.333 -54.334 -43 -77.001
c-13.333 -8.66699 -23.666 -13 -30.999 -13c-14 0 -22 17.667 -24 53c-6.66699 64 -27.667 111 -63 141s-79.666 45 -132.999 45c-23.333 0 -44.333 -1 -63 -3c-76.667 -10 -143.834 -49 -201.501 -117s-86.834 -160.333 -87.501 -277
c6.66699 -108.667 43.5 -196.667 110.5 -264s143.5 -103.666 229.5 -108.999c116.667 0 208 48 274 144l38 -15c-14 -26.667 -33.333 -55.334 -58 -86.001s-57.334 -57.334 -98.001 -80.001s-92 -34 -154 -34z" />
    <glyph glyph-name="ordfeminine" unicode="&#xaa;" horiz-adv-x="783" 
d="M572 993c-10 9.33301 -15.9971 23.334 -17.9971 42.001c-24 -13.333 -53.167 -25.833 -87.5 -37.5s-66.833 -19.834 -97.5 -24.501s-66.334 -5.16699 -107.001 -1.5s-78.334 16.5 -113.001 38.5c-28 19.333 -46.5 40.333 -55.5 63s-13.5 46 -13.5 70v6
c0 16 5.66699 37 17 63s33 51.333 65 76c30.667 23.333 74.5 41.833 131.5 55.5s125.167 17.167 204.5 10.5c18.667 -2 34.667 -4 48 -6c-8.66699 51.333 -27.334 95.666 -56.001 132.999s-67 58.333 -115 63c-12 1.33301 -30.167 1 -54.5 -1s-48.333 -9.83301 -72 -23.5
s-40.5 -37.5 -50.5 -71.5c-1.33301 -7.33301 -2.66602 -15.333 -3.99902 -24c-0.666992 -14.667 -3.33398 -26.167 -8.00098 -34.5s-15.334 -7.5 -32.001 2.5c-33.333 23.333 -41.333 52.333 -24 87s45.666 61 84.999 79c29.333 11.333 56.833 17.833 82.5 19.5
s47.5 1.83398 65.5 0.500977h12c92.667 -6 159.334 -36.667 200.001 -92s61 -125.333 61 -210v0v-227c0 -10 2.33301 -18.5 7 -25.5s10.167 -12.667 16.5 -17s12.833 -7.83301 19.5 -10.5s12.334 -4.33398 17.001 -5.00098l7 -1l-15.5 -4.5
c-10.333 -3 -22.833 -5.5 -37.5 -7.5s-29.167 -2.16699 -43.5 -0.5s-25.833 6.83398 -34.5 15.501zM552.003 1072v53.002v46v9v106c0 9.33301 -0.333008 18.666 -1 27.999c-20 3.33301 -40.333 6 -61 8c-90.667 8 -164.667 -0.166992 -222 -24.5s-92 -66.166 -104 -125.499
c-7.33301 -54.667 11.167 -94.834 55.5 -120.501s94.166 -36.834 149.499 -33.501c40 3.33301 76.833 11 110.5 23s57.834 22.333 72.501 31zM206.003 835.003v67h418l1 -67h-419z" />
    <glyph glyph-name="guillemotleft" unicode="&#xab;" horiz-adv-x="829" 
d="M80 479l342 303h14v-37l-205 -266l205 -266v-37h-14zM393 479l342 303h14v-37l-205 -266l205 -266v-37h-14z" />
    <glyph glyph-name="logicalnot" unicode="&#xac;" horiz-adv-x="1000" 
d="M80 767h840v-491l-1 -1h-98v392h-741v100z" />
    <glyph glyph-name="registered" unicode="&#xae;" horiz-adv-x="1561" 
d="M781 13c-129.333 0 -247 31.5 -353 94.5s-190.5 147.5 -253.5 253.5s-94.5 223.333 -94.5 352c0 129.333 31.5 247 94.5 353s147.5 190.5 253.5 253.5s223.667 94.5 353 94.5c128.667 0 246 -31.5 352 -94.5s190.5 -147.5 253.5 -253.5s94.5 -223.667 94.5 -353
c0 -128.667 -31.5 -246 -94.5 -352s-147.5 -190.5 -253.5 -253.5s-223.333 -94.5 -352 -94.5zM781 103c112 0 214.167 27.5 306.5 82.5s166 128.667 221 221s82.5 194.5 82.5 306.5s-27.5 214.333 -82.5 307s-128.667 166.5 -221 221.5s-194.5 82.5 -306.5 82.5
c-112.667 0 -215.167 -27.5 -307.5 -82.5s-166 -128.833 -221 -221.5s-82.5 -195 -82.5 -307s27.5 -214.167 82.5 -306.5s128.667 -166 221 -221s194.833 -82.5 307.5 -82.5zM772 683c76.667 0 135.167 17.667 175.5 53s60.5 85.333 60.5 150v11c0 116 -58.333 184 -175 204
c-18.667 2.66699 -39 4 -61 4h-176v-422h176zM962 679l2 1zM1142 304l-195.002 -0.000976562v3c24 0 36.667 21.333 38 64l-90 287c-24 -4.66699 -50 -7 -78 -7h-221v-274c1.33301 -46.667 21.333 -70 60 -70v-3h-194v3c38.667 0 58.667 22 60 66v693
c-0.666992 14.667 -3 26.667 -7 36c-7.33301 16 -18 26 -32 30c-6 1.33301 -13 2 -21 2v3h355c120.667 0 200.334 -39.667 239.001 -119c17.333 -35.333 26 -73.666 26 -114.999v-12c0 -100.667 -39.333 -171 -118 -211l98 -314c16.667 -39.333 43.334 -59 80.001 -59v-3z
" />
    <glyph glyph-name="macron" unicode="&#xaf;" horiz-adv-x="598" 
d="M80 1137v67h437l1 -67h-438z" />
    <glyph glyph-name="degree" unicode="&#xb0;" horiz-adv-x="716" 
d="M359 1372c-57.333 0 -106.501 -20.333 -147.501 -61s-61.5 -90 -61.5 -148s20.333 -107 61 -147s90 -60 148 -60s107 20 147 60s60 89 60 147s-20.167 107.333 -60.5 148s-89.166 61 -146.499 61zM358.999 1442c76.667 0 142.002 -27.167 196.002 -81.5
s81 -119.833 81 -196.5c0 -76 -27.333 -141.333 -82 -196s-120.334 -82 -197.001 -82c-78 0 -143.667 27 -197 81s-80 119.667 -80 197s27.167 143 81.5 197s120.166 81 197.499 81z" />
    <glyph glyph-name="plusminus" unicode="&#xb1;" horiz-adv-x="997" 
d="M80 645v67h835l2 -67h-837zM465 1097h67v-835l-67 -2v837zM80 83v67h835l2 -67h-837z" />
    <glyph glyph-name="uni00B2" unicode="&#xb2;" horiz-adv-x="618" 
d="M536 798l-455.999 0.000976562v56c0 92.667 79.667 178 239 256c48.667 22 89.667 46.333 123 73c30 22.667 45 52 45 88c0 33.333 -18.333 64.333 -55 93c-31.333 23.333 -73 35.666 -125 36.999c-90.667 -1.33301 -142.334 -45 -155.001 -131v-31
c0 -12.667 -3.33301 -19 -10 -19c-3.33301 0 -7.33301 1 -12 3c-23.333 12 -35 30.667 -35 56c0 20.667 5.66699 38.667 17 54c18.667 27.333 46 50 82 68c31.333 16.667 67 25 107 25h15c36 -2 72 -10.333 108 -25c73.333 -30 110 -81 110 -153c0 -18 -3 -35.333 -9 -52
c-24 -56 -80 -101.333 -168 -136c-60.667 -24.667 -105.667 -51 -135 -79c-46.667 -44 -70 -97 -70 -159h306c38.667 0 58 18.667 58 56l-1 11h7z" />
    <glyph glyph-name="uni00B3" unicode="&#xb3;" horiz-adv-x="584" 
d="M305 799l-22.002 0.000976562c-85.333 0 -147.333 25.333 -186 76c-11.333 15.333 -17 33 -17 53c0 26 11.667 44.333 35 55c6 2.66699 10.667 4 14 4c6 0 9 -6 9 -18l-1 -31c6 -42.667 22 -72.334 48 -89.001s61.333 -25 106 -25c23.333 0 44.666 4 63.999 12l2 1
c48.667 18.667 77 45 85 79c2.66699 10.667 4 21.334 4 32.001c0 22.667 -7.66699 47.667 -23 75c-22 41.333 -57.333 68 -106 80l-59 9l39 12c26.667 7.33301 44 13 52 17c56 36.667 84 77.667 84 123c0 33.333 -12.333 63.666 -37 90.999s-57.667 43.666 -99 48.999
c-46.667 0 -83.5 -8 -110.5 -24s-43.5 -45.667 -49.5 -89l1 -32c0 -12 -3.33301 -18 -10 -18c-3.33301 0 -7.66602 1 -12.999 3c-23.333 10.667 -35 29.334 -35 56.001c0 18.667 5.66699 36.667 17 54c38.667 50 100 75 184 75l22 -1c48.667 -2 90.334 -17.5 125.001 -46.5
s53.334 -64.833 56.001 -107.5c-1.33301 -70.667 -34.333 -124.667 -99 -162c25.333 -7.33301 50 -22.333 74 -45c28.667 -26.667 43 -60.334 43 -101.001c0 -38 -9 -69.167 -27 -93.5s-42.5 -42.666 -73.5 -54.999s-63.167 -18.5 -96.5 -18.5z" />
    <glyph glyph-name="acute" unicode="&#xb4;" horiz-adv-x="621" 
d="M80 1080l387 356l74 -71l-392 -285h-69z" />
    <glyph glyph-name="paragraph" unicode="&#xb6;" horiz-adv-x="996" 
d="M916 1435l-0.000976562 -70h-127v-1365h-82v1365h-166v-1365h-84v738c-116 5.33301 -207.833 39.5 -275.5 102.5s-101.5 144.833 -101.5 245.5c0 104.667 35.833 189 107.5 253s166.834 96 285.501 96h443z" />
    <glyph glyph-name="periodcentered" unicode="&#xb7;" horiz-adv-x="303" 
d="M152 645c-20 0 -37 7 -51 21s-21 31 -21 51s7 37 21 51s31 21 51 21c19.333 0 36 -7 50 -21s21 -31 21 -51s-7 -37 -21 -51s-30.667 -21 -50 -21z" />
    <glyph glyph-name="periodcentered" unicode="&#x2219;" horiz-adv-x="303" 
d="M152 645c-20 0 -37 7 -51 21s-21 31 -21 51s7 37 21 51s31 21 51 21c19.333 0 36 -7 50 -21s21 -31 21 -51s-7 -37 -21 -51s-30.667 -21 -50 -21z" />
    <glyph glyph-name="cedilla" unicode="&#xb8;" horiz-adv-x="568" 
d="M90 -310c56.667 -34.667 107.333 -51.999 152 -51.999c44 0 80.5 7.16699 109.5 21.5s43.5 43.166 43.5 86.499c0 50 -26.333 81.333 -79 94c-26.667 10.667 -60.667 16 -102 16c-10.667 0 -22 -0.666992 -34 -2l38 146h63l-37 -104
c21.333 2.66699 42 4.33398 62 5.00098c57.333 0 102 -13.5 134 -40.5s48 -64.833 48 -113.5c0 -50.667 -19.5 -90.834 -58.5 -120.501s-92.5 -44.5 -160.5 -44.5c-72.667 0 -135.667 10.667 -189 32z" />
    <glyph glyph-name="uni00B9" unicode="&#xb9;" horiz-adv-x="343" 
d="M261 796l-157.001 0.000976562v2h5l12 2c20 5.33301 30.667 22.666 32 51.999v556h-73v26h14c25.333 1.33301 49.333 6.33301 72 15c30.667 12 46 31.333 46 58v-652c0.666992 -30.667 11.334 -49 32.001 -55l12 -2h5v-2z" />
    <glyph glyph-name="ordmasculine" unicode="&#xba;" horiz-adv-x="755" 
d="M373 976c-90 3.33301 -161.333 33.5039 -214 90.5039s-79 128.5 -79 214.5c2.66699 87.333 31.167 158.666 85.5 213.999s126.833 83.333 217.5 84c90 -2.66699 161.167 -32.334 213.5 -89.001s78.5 -128 78.5 -214v-2c-2.66699 -86.667 -31 -157.834 -85 -213.501
s-126.333 -83.834 -217 -84.501zM400 1011c13.333 0 27.001 1.33301 41.001 4c105.333 24.667 158 95.334 158 212.001c0 29.333 -4.33301 60.333 -13 93c-17.333 68.667 -49.666 125.334 -96.999 170.001c-38 36 -83 54 -135 54c-12.667 0 -26 -1 -40 -3
c-68.667 -17.333 -114.334 -55.333 -137.001 -114c-12.667 -32.667 -19 -67.334 -19 -104.001c0 -28.667 3.66699 -58 11 -88c17.333 -68.667 49.666 -125.334 96.999 -170.001c37.333 -36 82 -54 134 -54zM192.001 842.004v67h418l1 -67h-419z" />
    <glyph glyph-name="guillemotright" unicode="&#xbb;" horiz-adv-x="829" 
d="M94 176h-14v37l205 266l-205 266v37h14l342 -303zM407 176h-14v37l205 266l-205 266v37h14l342 -303z" />
    <glyph glyph-name="questiondown" unicode="&#xbf;" horiz-adv-x="1035" 
d="M548 537l73.001 -0.00488281c2 -28 3 -48 3 -60c0 -17.333 -2 -40.5 -6 -69.5s-17.833 -64.333 -41.5 -106s-60.5 -82.5 -110.5 -122.5c-98 -67.333 -161.667 -133.666 -191 -198.999c-11.333 -35.333 -17 -69.333 -17 -102c0 -26 3.33301 -51.333 10 -76
c15.333 -56.667 38.666 -100 69.999 -130s67.666 -51 108.999 -63s83.333 -16 126 -12c136.667 12.667 211 90 223 232c6.66699 42.667 6.16699 74.334 -1.5 95.001s-11.5 43.334 -11.5 68.001c0 33.333 9.83301 56.333 29.5 69s37.834 19 54.501 19l7 -1
c24.667 -4.66699 44.334 -16.5 59.001 -35.5s22 -47.5 22 -85.5c0 -37.333 -1.66699 -67.333 -5 -90c-4.66699 -41.333 -20.167 -89 -46.5 -143s-66.5 -100.167 -120.5 -138.5s-125.333 -60.5 -214 -66.5l-46 -1c-80 0 -153 14.333 -219 43s-118 70 -156 124
c-27.333 37.333 -44 82.333 -50 135c-12 76.667 -1 147.667 33 213c31.333 44.667 64.166 84.334 98.499 119.001s89.833 78.334 166.5 131.001c68.667 44 111.167 91.667 127.5 143s24.5 83.333 24.5 96v14zM586.001 957.995c23.333 0 43.166 -8.16699 59.499 -24.5
s24.5 -36.166 24.5 -59.499s-8.16699 -43.166 -24.5 -59.499s-36.166 -24.5 -59.499 -24.5s-43.166 8.16699 -59.499 24.5s-24.5 36.166 -24.5 59.499s8.16699 43.166 24.5 59.499s36.166 24.5 59.499 24.5z" />
    <glyph glyph-name="Agrave" unicode="&#xc0;" horiz-adv-x="1280" 
d="M1280 -1l-104.001 0.000976562l-3 11l3 -11h-233v6h8c4.66699 0 10.667 1 18 3c31.333 9.33301 47 31.333 47 66c0 13.333 -2.66699 29 -8 47l-75 237h-648l-82 -239c-5.33301 -18 -8 -33.333 -8 -46c0 -14.667 2.66699 -26.667 8 -36
c8.66699 -15.333 21.334 -25 38.001 -29l24 -3v-6h-265v6l16 1c10.667 0 23.667 3 39 9c38.667 15.333 67.667 47.666 87 96.999l438 1279c-26.667 20.667 -52 31.667 -76 33h-14v5h238l414 -1319c10.667 -28 23.667 -49.333 39 -64c27.333 -26 55.333 -39.333 84 -40l15 -1
v-6zM914.999 413.001c-192.667 609.333 -291 918 -295 926l-317 -926h612zM787.999 1556h-69l-392 285l74 71z" />
    <glyph glyph-name="Aacute" unicode="&#xc1;" horiz-adv-x="1280" 
d="M1280 -1l-104.001 0.000976562l-3 11l3 -11h-233v6h8c4.66699 0 10.667 1 18 3c31.333 9.33301 47 31.333 47 66c0 13.333 -2.66699 29 -8 47l-75 237h-648l-82 -239c-5.33301 -18 -8 -33.333 -8 -46c0 -14.667 2.66699 -26.667 8 -36
c8.66699 -15.333 21.334 -25 38.001 -29l24 -3v-6h-265v6l16 1c10.667 0 23.667 3 39 9c38.667 15.333 67.667 47.666 87 96.999l438 1279c-26.667 20.667 -52 31.667 -76 33h-14v5h238l414 -1319c10.667 -28 23.667 -49.333 39 -64c27.333 -26 55.333 -39.333 84 -40l15 -1
v-6zM914.999 413.001c-192.667 609.333 -291 918 -295 926l-317 -926h612zM519.999 1556l387 356l74 -71l-392 -285h-69z" />
    <glyph glyph-name="Acircumflex" unicode="&#xc2;" horiz-adv-x="1280" 
d="M1280 -1l-104.001 0.000976562l-3 11l3 -11h-233v6h8c4.66699 0 10.667 1 18 3c31.333 9.33301 47 31.333 47 66c0 13.333 -2.66699 29 -8 47l-75 237h-648l-82 -239c-5.33301 -18 -8 -33.333 -8 -46c0 -14.667 2.66699 -26.667 8 -36
c8.66699 -15.333 21.334 -25 38.001 -29l24 -3v-6h-265v6l16 1c10.667 0 23.667 3 39 9c38.667 15.333 67.667 47.666 87 96.999l438 1279c-26.667 20.667 -52 31.667 -76 33h-14v5h238l414 -1319c10.667 -28 23.667 -49.333 39 -64c27.333 -26 55.333 -39.333 84 -40l15 -1
v-6zM914.999 413.001c-192.667 609.333 -291 918 -295 926l-317 -926h612zM362.999 1610l232 302h118l232 -302h-58l-233 266l-233 -266h-58z" />
    <glyph glyph-name="Atilde" unicode="&#xc3;" horiz-adv-x="1280" 
d="M1280 -1l-104.001 0.000976562l-3 11l3 -11h-233v6h8c4.66699 0 10.667 1 18 3c31.333 9.33301 47 31.333 47 66c0 13.333 -2.66699 29 -8 47l-75 237h-648l-82 -239c-5.33301 -18 -8 -33.333 -8 -46c0 -14.667 2.66699 -26.667 8 -36
c8.66699 -15.333 21.334 -25 38.001 -29l24 -3v-6h-265v6l16 1c10.667 0 23.667 3 39 9c38.667 15.333 67.667 47.666 87 96.999l438 1279c-26.667 20.667 -52 31.667 -76 33h-14v5h238l414 -1319c10.667 -28 23.667 -49.333 39 -64c27.333 -26 55.333 -39.333 84 -40l15 -1
v-6zM914.999 413.001c-192.667 609.333 -291 918 -295 926l-317 -926h612zM960.999 1829c-13.333 -48.667 -36.1699 -89.167 -68.5029 -121.5s-75.833 -48.5 -130.5 -48.5c-33.333 0 -71.5 10.333 -114.5 31s-83.833 31 -122.5 31c-39.333 0 -67.333 -27.333 -84 -82h-54
c12.667 50.667 35.334 91.667 68.001 123s72.334 47 119.001 47c37.333 0 77.833 -9.33301 121.5 -28s84.834 -28 123.501 -28c40 0 69.333 25.333 88 76h54z" />
    <glyph glyph-name="Adieresis" unicode="&#xc4;" horiz-adv-x="1280" 
d="M1280 -1l-104.001 0.000976562l-3 11l3 -11h-233v6h8c4.66699 0 10.667 1 18 3c31.333 9.33301 47 31.333 47 66c0 13.333 -2.66699 29 -8 47l-75 237h-648l-82 -239c-5.33301 -18 -8 -33.333 -8 -46c0 -14.667 2.66699 -26.667 8 -36
c8.66699 -15.333 21.334 -25 38.001 -29l24 -3v-6h-265v6l16 1c10.667 0 23.667 3 39 9c38.667 15.333 67.667 47.666 87 96.999l438 1279c-26.667 20.667 -52 31.667 -76 33h-14v5h238l414 -1319c10.667 -28 23.667 -49.333 39 -64c27.333 -26 55.333 -39.333 84 -40l15 -1
v-6zM914.999 413.001c-192.667 609.333 -291 918 -295 926l-317 -926h612zM466.999 1679c-20 0 -37 7 -51 21s-21 31 -21 51s7 37 21 51s31 21 51 21c19.333 0 36 -7 50 -21s21 -31 21 -51s-7 -37 -21 -51s-30.667 -21 -50 -21zM820.999 1679c-20 0 -37 7 -51 21
s-21 31 -21 51s7 37 21 51s31 21 51 21c19.333 0 36 -7 50 -21s21 -31 21 -51s-7 -37 -21 -51s-30.667 -21 -50 -21z" />
    <glyph glyph-name="Aring" unicode="&#xc5;" horiz-adv-x="1280" 
d="M1280 -1l-104.001 0.000976562l-3 11l3 -11h-233v6h8c4.66699 0 10.667 1 18 3c31.333 9.33301 47 31.333 47 66c0 13.333 -2.66699 29 -8 47l-75 237h-648l-82 -239c-5.33301 -18 -8 -33.333 -8 -46c0 -14.667 2.66699 -26.667 8 -36
c8.66699 -15.333 21.334 -25 38.001 -29l24 -3v-6h-265v6l16 1c10.667 0 23.667 3 39 9c38.667 15.333 67.667 47.666 87 96.999l438 1279c-26.667 20.667 -52 31.667 -76 33h-14v5h238l414 -1319c10.667 -28 23.667 -49.333 39 -64c27.333 -26 55.333 -39.333 84 -40l15 -1
v-6zM914.999 413.001c-192.667 609.333 -291 918 -295 926l-317 -926h612zM522.999 1734c0 -28.667 11.1709 -54.167 33.5039 -76.5s51.166 -33.5 86.499 -33.5s64.166 11.167 86.499 33.5s33.5 47.833 33.5 76.5c0 27.333 -11.333 52.333 -34 75s-51.334 34 -86.001 34
s-63.334 -11.333 -86.001 -34s-34 -47.667 -34 -75zM487.003 1734c0 49.333 15.5 89.5 46.5 120.5s67.5 46.5 109.5 46.5c43.333 0 80.666 -15.667 111.999 -47s47 -71.333 47 -120c0 -49.333 -15.667 -89.666 -47 -120.999s-68.666 -47 -111.999 -47
c-42 0 -78.5 15.667 -109.5 47s-46.5 71.666 -46.5 120.999z" />
    <glyph glyph-name="AE" unicode="&#xc6;" horiz-adv-x="1648" 
d="M680 1304c-0.666992 26.667 -4.33301 48 -11 64s-15.167 28 -25.5 36s-20.5 13.333 -30.5 16s-18.667 4 -26 4h-11v5h962l8 -54l22 -154h-18v2l-1 2c-0.666992 2.66699 -1.33398 6.66699 -2.00098 12c-2 10 -6.33301 22.667 -13 38s-16.5 30.5 -29.5 45.5
s-30.167 27.833 -51.5 38.5s-48 16 -80 16h-566v-633h435c25.333 0.666992 45.666 4.5 60.999 11.5s26.833 15.5 34.5 25.5s12.834 20 15.501 30s4 18.667 4 26v10h5v-261h-5v11c0 6.66699 -1.33301 15 -4 25s-8 20 -16 30s-19.667 18.5 -35 25.5s-36 10.833 -62 11.5h-433
v-633h566c32 0 58.667 5.16699 80 15.5s38.5 23 51.5 38s22.833 30.167 29.5 45.5s11 28.333 13 39c0.666992 4.66699 1.33398 8.33398 2.00098 11.001l1 3v1h18l-22 -153l-8 -55h-962v6h11c6.66699 -0.666992 15 0.333008 25 3s20.167 8 30.5 16s19 19.667 26 35
s10.833 35.666 11.5 60.999v1184zM766.001 1135c-42 132 -64.001 200.001 -66.001 204.001l-317 -926h380v-55h-398l-82 -239c-5.33301 -18 -8 -33.333 -8 -46c0 -14.667 2.66699 -26.667 8 -36c8.66699 -15.333 21.334 -25 38.001 -29l24 -3v-6h-265v6l16 1
c10.667 0 23.667 3 39 9c38.667 15.333 67.667 47.666 87 96.999l438 1279c-26.667 20.667 -52 31.667 -76 33h-14v5h238l6 -18h-48v-276z" />
    <glyph glyph-name="Ccedilla" unicode="&#xc7;" horiz-adv-x="1149" 
d="M652 2h-1.99902c-195.333 5.33301 -352.5 75.666 -471.5 210.999s-178.5 303 -178.5 503s59.5 367.667 178.5 503s276.167 205.666 471.5 210.999h2c104.667 0 191 -22.333 259 -67s120.333 -95 157 -151s60 -103.333 70 -142c6.66699 -22 10 -47.667 10 -77
c0 -2.66699 -0.166992 -13 -0.5 -31s-8.83301 -40.833 -25.5 -68.5s-46 -45.167 -88 -52.5l-14 -1c-21.333 0 -32 7.66699 -32 23c0 16 4.66699 35 14 57c12 31.333 18 61 18 89c0 39.333 -12 85.666 -36 138.999s-66 103 -126 149s-129.333 69 -208 69
c-42.667 0 -72.334 -1.33301 -89.001 -4c-124.667 -21.333 -229 -98.666 -313 -231.999c-75.333 -120 -113 -259 -113 -417l1 -50c24 -203.333 91.667 -350.166 203 -440.499s215 -137.166 311 -140.499c16 -1.33301 32 -2 48 -2c168.667 0 296.667 89.333 384 268l43 -17
c-46 -106.667 -106.167 -188.167 -180.5 -244.5s-171.833 -84.5 -292.5 -84.5zM388.001 -280c56.667 -34.667 107.333 -51.999 152 -51.999c44 0 80.5 7.16699 109.5 21.5s43.5 43.166 43.5 86.499c0 50 -26.333 81.333 -79 94c-26.667 10.667 -60.667 16 -102 16
c-10.667 0 -22 -0.666992 -34 -2l38 146h63l-37 -104c21.333 2.66699 42 4.33398 62 5.00098c57.333 0 102 -13.5 134 -40.5s48 -64.833 48 -113.5c0 -50.667 -19.5 -90.834 -58.5 -120.501s-92.5 -44.5 -160.5 -44.5c-72.667 0 -135.667 10.667 -189 32z" />
    <glyph glyph-name="Egrave" unicode="&#xc8;" horiz-adv-x="992" 
d="M104 1304c-0.666992 26.667 -4.33301 48 -11 64s-15.167 28 -25.5 36s-20.5 13.333 -30.5 16s-18.667 4 -26 4h-11v5h962l8 -54l22 -154h-18v2l-1 2c-0.666992 2.66699 -1.33398 6.66699 -2.00098 12c-2 10 -6.33301 22.667 -13 38s-16.5 30.5 -29.5 45.5
s-30.167 27.833 -51.5 38.5s-48 16 -80 16h-566v-633h435c25.333 0.666992 45.666 4.5 60.999 11.5s26.833 15.5 34.5 25.5s12.834 20 15.501 30s4 18.667 4 26v10h5v-261h-5v11c0 6.66699 -1.33301 15 -4 25s-8 20 -16 30s-19.667 18.5 -35 25.5s-36 10.833 -62 11.5h-433
v-633h566c32 0 58.667 5.16699 80 15.5s38.5 23 51.5 38s22.833 30.167 29.5 45.5s11 28.333 13 39c0.666992 4.66699 1.33398 8.33398 2.00098 11.001l1 3v1h18l-22 -153l-8 -55h-962v6h11c6.66699 -0.666992 15 0.333008 25 3s20.167 8 30.5 16s19 19.667 26 35
s10.833 35.666 11.5 60.999v1184zM700.001 1556h-69l-392 285l74 71z" />
    <glyph glyph-name="Eacute" unicode="&#xc9;" horiz-adv-x="992" 
d="M104 1304c-0.666992 26.667 -4.33301 48 -11 64s-15.167 28 -25.5 36s-20.5 13.333 -30.5 16s-18.667 4 -26 4h-11v5h962l8 -54l22 -154h-18v2l-1 2c-0.666992 2.66699 -1.33398 6.66699 -2.00098 12c-2 10 -6.33301 22.667 -13 38s-16.5 30.5 -29.5 45.5
s-30.167 27.833 -51.5 38.5s-48 16 -80 16h-566v-633h435c25.333 0.666992 45.666 4.5 60.999 11.5s26.833 15.5 34.5 25.5s12.834 20 15.501 30s4 18.667 4 26v10h5v-261h-5v11c0 6.66699 -1.33301 15 -4 25s-8 20 -16 30s-19.667 18.5 -35 25.5s-36 10.833 -62 11.5h-433
v-633h566c32 0 58.667 5.16699 80 15.5s38.5 23 51.5 38s22.833 30.167 29.5 45.5s11 28.333 13 39c0.666992 4.66699 1.33398 8.33398 2.00098 11.001l1 3v1h18l-22 -153l-8 -55h-962v6h11c6.66699 -0.666992 15 0.333008 25 3s20.167 8 30.5 16s19 19.667 26 35
s10.833 35.666 11.5 60.999v1184zM393.001 1556l387 356l74 -71l-392 -285h-69z" />
    <glyph glyph-name="Ecircumflex" unicode="&#xca;" horiz-adv-x="992" 
d="M104 1304c-0.666992 26.667 -4.33301 48 -11 64s-15.167 28 -25.5 36s-20.5 13.333 -30.5 16s-18.667 4 -26 4h-11v5h962l8 -54l22 -154h-18v2l-1 2c-0.666992 2.66699 -1.33398 6.66699 -2.00098 12c-2 10 -6.33301 22.667 -13 38s-16.5 30.5 -29.5 45.5
s-30.167 27.833 -51.5 38.5s-48 16 -80 16h-566v-633h435c25.333 0.666992 45.666 4.5 60.999 11.5s26.833 15.5 34.5 25.5s12.834 20 15.501 30s4 18.667 4 26v10h5v-261h-5v11c0 6.66699 -1.33301 15 -4 25s-8 20 -16 30s-19.667 18.5 -35 25.5s-36 10.833 -62 11.5h-433
v-633h566c32 0 58.667 5.16699 80 15.5s38.5 23 51.5 38s22.833 30.167 29.5 45.5s11 28.333 13 39c0.666992 4.66699 1.33398 8.33398 2.00098 11.001l1 3v1h18l-22 -153l-8 -55h-962v6h11c6.66699 -0.666992 15 0.333008 25 3s20.167 8 30.5 16s19 19.667 26 35
s10.833 35.666 11.5 60.999v1184zM256.001 1610l232 302h118l232 -302h-58l-233 266l-233 -266h-58z" />
    <glyph glyph-name="Edieresis" unicode="&#xcb;" horiz-adv-x="992" 
d="M104 1304c-0.666992 26.667 -4.33301 48 -11 64s-15.167 28 -25.5 36s-20.5 13.333 -30.5 16s-18.667 4 -26 4h-11v5h962l8 -54l22 -154h-18v2l-1 2c-0.666992 2.66699 -1.33398 6.66699 -2.00098 12c-2 10 -6.33301 22.667 -13 38s-16.5 30.5 -29.5 45.5
s-30.167 27.833 -51.5 38.5s-48 16 -80 16h-566v-633h435c25.333 0.666992 45.666 4.5 60.999 11.5s26.833 15.5 34.5 25.5s12.834 20 15.501 30s4 18.667 4 26v10h5v-261h-5v11c0 6.66699 -1.33301 15 -4 25s-8 20 -16 30s-19.667 18.5 -35 25.5s-36 10.833 -62 11.5h-433
v-633h566c32 0 58.667 5.16699 80 15.5s38.5 23 51.5 38s22.833 30.167 29.5 45.5s11 28.333 13 39c0.666992 4.66699 1.33398 8.33398 2.00098 11.001l1 3v1h18l-22 -153l-8 -55h-962v6h11c6.66699 -0.666992 15 0.333008 25 3s20.167 8 30.5 16s19 19.667 26 35
s10.833 35.666 11.5 60.999v1184zM359.001 1679c-20 0 -37 7 -51 21s-21 31 -21 51s7 37 21 51s31 21 51 21c19.333 0 36 -7 50 -21s21 -31 21 -51s-7 -37 -21 -51s-30.667 -21 -50 -21zM713.001 1679c-20 0 -37 7 -51 21s-21 31 -21 51s7 37 21 51s31 21 51 21
c19.333 0 36 -7 50 -21s21 -31 21 -51s-7 -37 -21 -51s-30.667 -21 -50 -21z" />
    <glyph glyph-name="Igrave" unicode="&#xcc;" 
d="M333 1l-229 0.000976562h-104v5h10c19.333 0 37.666 6.33301 54.999 19c23.333 17.333 36.333 47.666 39 90.999v1205c-3.33301 42 -16.666 71.333 -39.999 88c-16.667 11.333 -33.334 17 -50.001 17h-14v5l104 1v-1h126v1h104v-5h-11c-19.333 0 -38 -7 -56 -21
c-23.333 -18 -35.666 -51 -36.999 -99v-1181c1.33301 -48 13.666 -81 36.999 -99c16.667 -14 35.334 -21 56.001 -21h10v-5zM392 1556h-69l-392 285l74 71z" />
    <glyph glyph-name="Iacute" unicode="&#xcd;" 
d="M333 1l-229 0.000976562h-104v5h10c19.333 0 37.666 6.33301 54.999 19c23.333 17.333 36.333 47.666 39 90.999v1205c-3.33301 42 -16.666 71.333 -39.999 88c-16.667 11.333 -33.334 17 -50.001 17h-14v5l104 1v-1h126v1h104v-5h-11c-19.333 0 -38 -7 -56 -21
c-23.333 -18 -35.666 -51 -36.999 -99v-1181c1.33301 -48 13.666 -81 36.999 -99c16.667 -14 35.334 -21 56.001 -21h10v-5zM-35 1556l387 356l74 -71l-392 -285h-69z" />
    <glyph glyph-name="Icircumflex" unicode="&#xce;" 
d="M333 1l-229 0.000976562h-104v5h10c19.333 0 37.666 6.33301 54.999 19c23.333 17.333 36.333 47.666 39 90.999v1205c-3.33301 42 -16.666 71.333 -39.999 88c-16.667 11.333 -33.334 17 -50.001 17h-14v5l104 1v-1h126v1h104v-5h-11c-19.333 0 -38 -7 -56 -21
c-23.333 -18 -35.666 -51 -36.999 -99v-1181c1.33301 -48 13.666 -81 36.999 -99c16.667 -14 35.334 -21 56.001 -21h10v-5zM-133 1610l232 302h118l232 -302h-58l-233 266l-233 -266h-58z" />
    <glyph glyph-name="Idieresis" unicode="&#xcf;" 
d="M333 1l-229 0.000976562h-104v5h10c19.333 0 37.666 6.33301 54.999 19c23.333 17.333 36.333 47.666 39 90.999v1205c-3.33301 42 -16.666 71.333 -39.999 88c-16.667 11.333 -33.334 17 -50.001 17h-14v5l104 1v-1h126v1h104v-5h-11c-19.333 0 -38 -7 -56 -21
c-23.333 -18 -35.666 -51 -36.999 -99v-1181c1.33301 -48 13.666 -81 36.999 -99c16.667 -14 35.334 -21 56.001 -21h10v-5zM-19 1679c-20 0 -37 7 -51 21s-21 31 -21 51s7 37 21 51s31 21 51 21c19.333 0 36 -7 50 -21s21 -31 21 -51s-7 -37 -21 -51s-30.667 -21 -50 -21z
M335 1679c-20 0 -37 7 -51 21s-21 31 -21 51s7 37 21 51s31 21 51 21c19.333 0 36 -7 50 -21s21 -31 21 -51s-7 -37 -21 -51s-30.667 -21 -50 -21z" />
    <glyph glyph-name="Eth" unicode="&#xd0;" horiz-adv-x="1233" 
d="M491 1372l-260.001 0.000976562v-1318h253c163.333 0 290 31.167 380 93.5s152.833 143.666 188.5 243.999s53.5 208.166 53.5 323.499c0 118.667 -15.667 227.834 -47 327.501s-91.166 179.5 -179.499 239.5s-217.833 90 -388.5 90zM-0.000976562 -0.999023v5.99902h11
c6.66699 -0.666992 15.167 0.5 25.5 3.5s20.5 8.5 30.5 16.5s18.5 20 25.5 36s10.833 37 11.5 63v1180c-0.666992 26.667 -4.33398 48 -11.001 64s-15.167 28 -25.5 36s-20.666 13.333 -30.999 16s-18.833 4 -25.5 4h-11v5h600c151.333 0 273.333 -31.667 366 -95
s160.334 -149 203.001 -257s64 -228.667 64 -362s-23 -254.166 -69 -362.499s-115.833 -194.333 -209.5 -258s-211.834 -95.5 -354.501 -95.5h-600zM-248.001 750v67h835l2 -67h-837z" />
    <glyph glyph-name="Ntilde" unicode="&#xd1;" horiz-adv-x="1167" 
d="M1064 -4l-54.9971 0.000976562l-851 1209v-1084c0 -26.667 3.5 -48 10.5 -64s15.667 -28 26 -36s20.5 -13.333 30.5 -16s18.667 -4 26 -4h10v-5h-261v5h10c6.66699 0 15 1.33301 25 4c43.333 11.333 66 48 68 110v1193c-0.666992 25.333 -4.33398 45.666 -11.001 60.999
c-12.667 26.667 -31.334 43.334 -56.001 50.001c-10 2.66699 -18.667 4 -26 4l-10 -1v6l158 -1l851 -1208v1082c-0.666992 26.667 -4.33398 47.667 -11.001 63c-12 28 -30.667 45.667 -56 53c-10 2.66699 -18.667 4 -26 4h-11v5h262v-5h-10c-6.66699 0 -15 -1.33301 -25 -4
c-42 -10.667 -64.667 -45.334 -68 -104.001v-1317zM884.003 1829c-13.333 -48.667 -36.1699 -89.167 -68.5029 -121.5s-75.833 -48.5 -130.5 -48.5c-33.333 0 -71.5 10.333 -114.5 31s-83.833 31 -122.5 31c-39.333 0 -67.333 -27.333 -84 -82h-54
c12.667 50.667 35.334 91.667 68.001 123s72.334 47 119.001 47c37.333 0 77.833 -9.33301 121.5 -28s84.834 -28 123.501 -28c40 0 69.333 25.333 88 76h54z" />
    <glyph glyph-name="Ograve" unicode="&#xd2;" horiz-adv-x="1304" 
d="M652 0c-192.667 0 -349.5 69 -470.5 207s-181.5 307 -181.5 507c0 200.667 60.5 370 181.5 508s277.833 207 470.5 207c193.333 0 350.333 -69 471 -207s181 -307.333 181 -508c0 -200 -60.333 -369 -181 -507s-277.667 -207 -471 -207zM697 58
c154 0 285.331 75.667 393.998 227c62 86.667 93 199.334 93 338.001c0 59.333 -5.66699 123.666 -17 192.999c-84.667 371.333 -265 557 -541 557c-33.333 0 -66.666 -3.66699 -99.999 -11c-118 -20 -222.333 -89.333 -313 -208c-62.667 -82.667 -94 -195 -94 -337
c0 -62 6 -130 18 -204c55.333 -232 148.333 -387.333 279 -466c98.667 -59.333 192.334 -89 281.001 -89zM813.998 1556h-69l-392 285l74 71z" />
    <glyph glyph-name="Oacute" unicode="&#xd3;" horiz-adv-x="1304" 
d="M652 0c-192.667 0 -349.5 69 -470.5 207s-181.5 307 -181.5 507c0 200.667 60.5 370 181.5 508s277.833 207 470.5 207c193.333 0 350.333 -69 471 -207s181 -307.333 181 -508c0 -200 -60.333 -369 -181 -507s-277.667 -207 -471 -207zM697 58
c154 0 285.331 75.667 393.998 227c62 86.667 93 199.334 93 338.001c0 59.333 -5.66699 123.666 -17 192.999c-84.667 371.333 -265 557 -541 557c-33.333 0 -66.666 -3.66699 -99.999 -11c-118 -20 -222.333 -89.333 -313 -208c-62.667 -82.667 -94 -195 -94 -337
c0 -62 6 -130 18 -204c55.333 -232 148.333 -387.333 279 -466c98.667 -59.333 192.334 -89 281.001 -89zM506.998 1556l387 356l74 -71l-392 -285h-69z" />
    <glyph glyph-name="Ocircumflex" unicode="&#xd4;" horiz-adv-x="1304" 
d="M652 0c-192.667 0 -349.5 69 -470.5 207s-181.5 307 -181.5 507c0 200.667 60.5 370 181.5 508s277.833 207 470.5 207c193.333 0 350.333 -69 471 -207s181 -307.333 181 -508c0 -200 -60.333 -369 -181 -507s-277.667 -207 -471 -207zM697 58
c154 0 285.331 75.667 393.998 227c62 86.667 93 199.334 93 338.001c0 59.333 -5.66699 123.666 -17 192.999c-84.667 371.333 -265 557 -541 557c-33.333 0 -66.666 -3.66699 -99.999 -11c-118 -20 -222.333 -89.333 -313 -208c-62.667 -82.667 -94 -195 -94 -337
c0 -62 6 -130 18 -204c55.333 -232 148.333 -387.333 279 -466c98.667 -59.333 192.334 -89 281.001 -89zM369.998 1610l232 302h118l232 -302h-58l-233 266l-233 -266h-58z" />
    <glyph glyph-name="Otilde" unicode="&#xd5;" horiz-adv-x="1304" 
d="M652 0c-192.667 0 -349.5 69 -470.5 207s-181.5 307 -181.5 507c0 200.667 60.5 370 181.5 508s277.833 207 470.5 207c193.333 0 350.333 -69 471 -207s181 -307.333 181 -508c0 -200 -60.333 -369 -181 -507s-277.667 -207 -471 -207zM697 58
c154 0 285.331 75.667 393.998 227c62 86.667 93 199.334 93 338.001c0 59.333 -5.66699 123.666 -17 192.999c-84.667 371.333 -265 557 -541 557c-33.333 0 -66.666 -3.66699 -99.999 -11c-118 -20 -222.333 -89.333 -313 -208c-62.667 -82.667 -94 -195 -94 -337
c0 -62 6 -130 18 -204c55.333 -232 148.333 -387.333 279 -466c98.667 -59.333 192.334 -89 281.001 -89zM947.998 1829c-13.333 -48.667 -36.1699 -89.167 -68.5029 -121.5s-75.833 -48.5 -130.5 -48.5c-33.333 0 -71.5 10.333 -114.5 31s-83.833 31 -122.5 31
c-39.333 0 -67.333 -27.333 -84 -82h-54c12.667 50.667 35.334 91.667 68.001 123s72.334 47 119.001 47c37.333 0 77.833 -9.33301 121.5 -28s84.834 -28 123.501 -28c40 0 69.333 25.333 88 76h54z" />
    <glyph glyph-name="Odieresis" unicode="&#xd6;" horiz-adv-x="1304" 
d="M652 0c-192.667 0 -349.5 69 -470.5 207s-181.5 307 -181.5 507c0 200.667 60.5 370 181.5 508s277.833 207 470.5 207c193.333 0 350.333 -69 471 -207s181 -307.333 181 -508c0 -200 -60.333 -369 -181 -507s-277.667 -207 -471 -207zM697 58
c154 0 285.331 75.667 393.998 227c62 86.667 93 199.334 93 338.001c0 59.333 -5.66699 123.666 -17 192.999c-84.667 371.333 -265 557 -541 557c-33.333 0 -66.666 -3.66699 -99.999 -11c-118 -20 -222.333 -89.333 -313 -208c-62.667 -82.667 -94 -195 -94 -337
c0 -62 6 -130 18 -204c55.333 -232 148.333 -387.333 279 -466c98.667 -59.333 192.334 -89 281.001 -89zM482.998 1679c-20 0 -37 7 -51 21s-21 31 -21 51s7 37 21 51s31 21 51 21c19.333 0 36 -7 50 -21s21 -31 21 -51s-7 -37 -21 -51s-30.667 -21 -50 -21zM836.998 1679
c-20 0 -37 7 -51 21s-21 31 -21 51s7 37 21 51s31 21 51 21c19.333 0 36 -7 50 -21s21 -31 21 -51s-7 -37 -21 -51s-30.667 -21 -50 -21z" />
    <glyph glyph-name="multiply" unicode="&#xd7;" horiz-adv-x="799" 
d="M352 679l-272 272l47 47l273 -272l272 272l47 -47l-272 -272l271 -271l-46 -49l-272 272l-271 -271l-49 46z" />
    <glyph glyph-name="Oslash" unicode="&#xd8;" horiz-adv-x="1304" 
d="M652 0c-192.667 0 -349.5 69 -470.5 207s-181.5 307 -181.5 507c0 200.667 60.5 370 181.5 508s277.833 207 470.5 207c193.333 0 350.333 -69 471 -207s181 -307.333 181 -508c0 -200 -60.333 -369 -181 -507s-277.667 -207 -471 -207zM697 58
c154 0 285.331 75.667 393.998 227c62 86.667 93 199.334 93 338.001c0 59.333 -5.66699 123.666 -17 192.999c-84.667 371.333 -265 557 -541 557c-33.333 0 -66.666 -3.66699 -99.999 -11c-118 -20 -222.333 -89.333 -313 -208c-62.667 -82.667 -94 -195 -94 -337
c0 -62 6 -130 18 -204c55.333 -232 148.333 -387.333 279 -466c98.667 -59.333 192.334 -89 281.001 -89zM343.998 -206l-70 2l633 1849l71 -2z" />
    <glyph glyph-name="Ugrave" unicode="&#xd9;" horiz-adv-x="1270" 
d="M674 0c-17.333 0 -28.667 0.331055 -34 0.998047h-5c-126 6 -228 36.167 -306 90.5s-135.167 123 -171.5 206s-54.5 167.167 -54.5 252.5v757c0 47.333 -12 80.333 -36 99c-18.667 14 -37.334 21 -56.001 21h-11v5h230l103 -1v-5h-14c-16.667 0 -32.667 -5.33301 -48 -16
c-24 -17.333 -37.667 -45.333 -41 -84l3 -680c0 -105.333 6.16699 -188.666 18.5 -249.999s38.5 -117.666 78.5 -168.999c44 -54 95 -94.333 153 -121c68.667 -32 127.667 -48 177 -48c19.333 -1.33301 36.333 -2 51 -2c11.333 0 24 0.666992 38 2c20.667 2 35 4.33301 43 7
c71.333 12.667 138 48.667 200 108c34.667 31.333 63.334 68 86.001 110s34 102.667 34 182l2 853c-1.33301 24 -5.66602 43.333 -12.999 58c-12.667 26 -31 42 -55 48l-35 3v5h259v-5h-9c-19.333 0 -37 -5.66699 -53 -17c-22.667 -15.333 -36.334 -43.333 -41.001 -84
l1 -861c0 -126 -38.333 -231 -115 -315s-170.667 -133 -282 -147c-28 -2 -60.333 -3 -97 -3zM854.999 1556h-69l-392 285l74 71z" />
    <glyph glyph-name="Uacute" unicode="&#xda;" horiz-adv-x="1270" 
d="M674 0c-17.333 0 -28.667 0.331055 -34 0.998047h-5c-126 6 -228 36.167 -306 90.5s-135.167 123 -171.5 206s-54.5 167.167 -54.5 252.5v757c0 47.333 -12 80.333 -36 99c-18.667 14 -37.334 21 -56.001 21h-11v5h230l103 -1v-5h-14c-16.667 0 -32.667 -5.33301 -48 -16
c-24 -17.333 -37.667 -45.333 -41 -84l3 -680c0 -105.333 6.16699 -188.666 18.5 -249.999s38.5 -117.666 78.5 -168.999c44 -54 95 -94.333 153 -121c68.667 -32 127.667 -48 177 -48c19.333 -1.33301 36.333 -2 51 -2c11.333 0 24 0.666992 38 2c20.667 2 35 4.33301 43 7
c71.333 12.667 138 48.667 200 108c34.667 31.333 63.334 68 86.001 110s34 102.667 34 182l2 853c-1.33301 24 -5.66602 43.333 -12.999 58c-12.667 26 -31 42 -55 48l-35 3v5h259v-5h-9c-19.333 0 -37 -5.66699 -53 -17c-22.667 -15.333 -36.334 -43.333 -41.001 -84
l1 -861c0 -126 -38.333 -231 -115 -315s-170.667 -133 -282 -147c-28 -2 -60.333 -3 -97 -3zM547.999 1556l387 356l74 -71l-392 -285h-69z" />
    <glyph glyph-name="Ucircumflex" unicode="&#xdb;" horiz-adv-x="1270" 
d="M674 0c-17.333 0 -28.667 0.331055 -34 0.998047h-5c-126 6 -228 36.167 -306 90.5s-135.167 123 -171.5 206s-54.5 167.167 -54.5 252.5v757c0 47.333 -12 80.333 -36 99c-18.667 14 -37.334 21 -56.001 21h-11v5h230l103 -1v-5h-14c-16.667 0 -32.667 -5.33301 -48 -16
c-24 -17.333 -37.667 -45.333 -41 -84l3 -680c0 -105.333 6.16699 -188.666 18.5 -249.999s38.5 -117.666 78.5 -168.999c44 -54 95 -94.333 153 -121c68.667 -32 127.667 -48 177 -48c19.333 -1.33301 36.333 -2 51 -2c11.333 0 24 0.666992 38 2c20.667 2 35 4.33301 43 7
c71.333 12.667 138 48.667 200 108c34.667 31.333 63.334 68 86.001 110s34 102.667 34 182l2 853c-1.33301 24 -5.66602 43.333 -12.999 58c-12.667 26 -31 42 -55 48l-35 3v5h259v-5h-9c-19.333 0 -37 -5.66699 -53 -17c-22.667 -15.333 -36.334 -43.333 -41.001 -84
l1 -861c0 -126 -38.333 -231 -115 -315s-170.667 -133 -282 -147c-28 -2 -60.333 -3 -97 -3zM410.999 1610l232 302h118l232 -302h-58l-233 266l-233 -266h-58z" />
    <glyph glyph-name="Udieresis" unicode="&#xdc;" horiz-adv-x="1270" 
d="M674 0c-17.333 0 -28.667 0.331055 -34 0.998047h-5c-126 6 -228 36.167 -306 90.5s-135.167 123 -171.5 206s-54.5 167.167 -54.5 252.5v757c0 47.333 -12 80.333 -36 99c-18.667 14 -37.334 21 -56.001 21h-11v5h230l103 -1v-5h-14c-16.667 0 -32.667 -5.33301 -48 -16
c-24 -17.333 -37.667 -45.333 -41 -84l3 -680c0 -105.333 6.16699 -188.666 18.5 -249.999s38.5 -117.666 78.5 -168.999c44 -54 95 -94.333 153 -121c68.667 -32 127.667 -48 177 -48c19.333 -1.33301 36.333 -2 51 -2c11.333 0 24 0.666992 38 2c20.667 2 35 4.33301 43 7
c71.333 12.667 138 48.667 200 108c34.667 31.333 63.334 68 86.001 110s34 102.667 34 182l2 853c-1.33301 24 -5.66602 43.333 -12.999 58c-12.667 26 -31 42 -55 48l-35 3v5h259v-5h-9c-19.333 0 -37 -5.66699 -53 -17c-22.667 -15.333 -36.334 -43.333 -41.001 -84
l1 -861c0 -126 -38.333 -231 -115 -315s-170.667 -133 -282 -147c-28 -2 -60.333 -3 -97 -3zM493.999 1679c-20 0 -37 7 -51 21s-21 31 -21 51s7 37 21 51s31 21 51 21c19.333 0 36 -7 50 -21s21 -31 21 -51s-7 -37 -21 -51s-30.667 -21 -50 -21zM847.999 1679
c-20 0 -37 7 -51 21s-21 31 -21 51s7 37 21 51s31 21 51 21c19.333 0 36 -7 50 -21s21 -31 21 -51s-7 -37 -21 -51s-30.667 -21 -50 -21z" />
    <glyph glyph-name="Yacute" unicode="&#xdd;" horiz-adv-x="1262" 
d="M771 -3h-337.001v5h10c58 0 89.333 35.667 94 107v617l-366 593c-28 42.667 -65.333 73.334 -112 92.001l-60 15v6h355v-6l-10 -1c-6.66699 -1.33301 -15 -6.5 -25 -15.5s-15.333 -20.5 -16 -34.5c0 -4.66699 1.33301 -12.334 4 -23.001s115 -195.667 337 -555l369 525
c12.667 22 19.334 41 20.001 57c0 18 -9.33301 31.667 -28 41l-21 6v6h105l-3 -3l3 3h172v-6l-29 -5c-55.333 -10 -105 -41.333 -149 -94l-418 -601v-604c0 -48.667 12.333 -82 37 -100c16.667 -13.333 33 -20.333 49 -21l19 1v-5zM563.999 1556l387 356l74 -71l-392 -285
h-69z" />
    <glyph glyph-name="Thorn" unicode="&#xde;" horiz-adv-x="1066" 
d="M334 -199l-334 -0.00390625v5h10c7.33301 0 16 1.33301 26 4s20 7.83398 30 15.501s18.5 19 25.5 34s11.167 35.167 12.5 60.5v1191c32.667 72.667 44 110.334 34 113.001s-18.333 4 -25 4h-11v5h510c207.333 0 344 -68 410 -204c29.333 -61.333 44 -127.666 44 -198.999
v-20c0 -77.333 -14.667 -146.666 -44 -207.999c-66 -136 -202.667 -204 -410 -204h-381v-472c0 -26.667 3.5 -48 10.5 -64s15.5 -28 25.5 -36s20.167 -13.333 30.5 -16s18.833 -4 25.5 -4h11v-5zM533 452.996c100.667 0 180.667 15.667 240 47
c110.667 59.333 166 159.666 166 300.999v20c0 68.667 -12.667 129.334 -38 182.001c-57.333 116.667 -180 175 -368 175h-302v-725h302zM104 115.996l-0.000976562 1205c-3.33301 42 -16.666 71.333 -39.999 88c-16.667 11.333 -33.334 17 -50.001 17h-14v5l104 1v-1h126v1
h104v-5h-11c-19.333 0 -38 -7 -56 -21c-23.333 -18 -35.666 -51 -36.999 -99v-1181c1.33301 -48 -20 -72.5 -64 -73.5s-64.667 20.167 -62 63.5z" />
    <glyph glyph-name="germandbls" unicode="&#xdf;" horiz-adv-x="1198" 
d="M209 839l0.000976562 -55.001h-1v-725h1l-1 -55l-127 -2v1302c-0.666992 26.667 -0.333984 70.334 0.999023 131.001l437 -1c166 0 287.833 -27.333 365.5 -82s116.5 -135.667 116.5 -243v-29c0 -132.667 -60.333 -218.667 -181 -258
c106.667 -27.333 183 -76.5 229 -147.5s69 -150.5 69 -238.5v-20c0 -77.333 -14.667 -146.666 -44 -207.999c-66 -136 -202.667 -204 -410 -204h-310v55h231c100.667 0 180.667 15.667 240 47c111.333 59.333 167 159.666 167 300.999v20c0 68.667 -13 129.667 -39 183
c-57.333 116 -180 174 -368 174h-231v55h111c138.667 0 241.5 16.833 308.5 50.5s100.5 97.167 100.5 190.5v20c0 100.667 -34.5 172.5 -103.5 215.5s-179.167 64.5 -330.5 64.5h-232v-541h1z" />
    <glyph glyph-name="agrave" unicode="&#xe0;" horiz-adv-x="943" 
d="M745 23c-14.667 16 -23.6699 39.667 -27.0029 71c-36 -22.667 -80 -43.834 -132 -63.501s-101.333 -33.167 -148 -40.5c-46.667 -8 -100.667 -8.83301 -162 -2.5s-118.666 28.166 -171.999 65.499c-41.333 32 -69 66.667 -83 104s-21 76.333 -21 117v9
c0 27.333 8.66699 62.5 26 105.5s50 85.167 98 126.5c46.667 38.667 113.167 69.5 199.5 92.5s189.833 28.833 310.5 17.5c28 -2.66699 52.333 -5.66699 73 -9c-13.333 84.667 -41.666 158.334 -84.999 221.001s-102 97.667 -176 105c-18 2 -45.333 1.5 -82 -1.5
s-72.834 -15.833 -108.501 -38.5s-61.167 -62.667 -76.5 -120c-2.66699 -12.667 -4.66699 -26 -6 -40c-1.33301 -24.667 -5.5 -43.834 -12.5 -57.501s-23.5 -12.5 -49.5 3.5c-50 40 -61.667 88.667 -35 146s69.667 101 129 131c44 18.667 85.5 29.5 124.5 32.5
s71.833 3.5 98.5 1.5c6.66699 -0.666992 12.667 -1 18 -1c140.667 -9.33301 241.834 -60.166 303.501 -152.499s92.5 -209.166 92.5 -350.499v0v-378c0.666992 -16.667 4.33398 -30.834 11.001 -42.501s15 -21.167 25 -28.5s20 -13 30 -17s18.333 -6.83301 25 -8.5l10 -2.5
l-23 -7c-15.333 -4.66699 -34 -8.66699 -56 -12s-43.833 -3.66602 -65.5 -0.999023s-39.5 11 -53.5 25zM714.997 156v88.0039v76v15v177c0 15.333 -0.666992 31 -2 47c-30 5.33301 -60.333 9.66602 -91 12.999c-138 13.333 -250.333 -0.333984 -337 -41.001
s-139.334 -110.334 -158.001 -209.001c-10.667 -91.333 17.333 -158.333 84 -201s142.334 -61.334 227.001 -56.001c60.667 6 116.5 19 167.5 39s87.5 37.333 109.5 52zM630.997 1080h-69l-392 285l74 71z" />
    <glyph glyph-name="aacute" unicode="&#xe1;" horiz-adv-x="943" 
d="M745 23c-14.667 16 -23.6699 39.667 -27.0029 71c-36 -22.667 -80 -43.834 -132 -63.501s-101.333 -33.167 -148 -40.5c-46.667 -8 -100.667 -8.83301 -162 -2.5s-118.666 28.166 -171.999 65.499c-41.333 32 -69 66.667 -83 104s-21 76.333 -21 117v9
c0 27.333 8.66699 62.5 26 105.5s50 85.167 98 126.5c46.667 38.667 113.167 69.5 199.5 92.5s189.833 28.833 310.5 17.5c28 -2.66699 52.333 -5.66699 73 -9c-13.333 84.667 -41.666 158.334 -84.999 221.001s-102 97.667 -176 105c-18 2 -45.333 1.5 -82 -1.5
s-72.834 -15.833 -108.501 -38.5s-61.167 -62.667 -76.5 -120c-2.66699 -12.667 -4.66699 -26 -6 -40c-1.33301 -24.667 -5.5 -43.834 -12.5 -57.501s-23.5 -12.5 -49.5 3.5c-50 40 -61.667 88.667 -35 146s69.667 101 129 131c44 18.667 85.5 29.5 124.5 32.5
s71.833 3.5 98.5 1.5c6.66699 -0.666992 12.667 -1 18 -1c140.667 -9.33301 241.834 -60.166 303.501 -152.499s92.5 -209.166 92.5 -350.499v0v-378c0.666992 -16.667 4.33398 -30.834 11.001 -42.501s15 -21.167 25 -28.5s20 -13 30 -17s18.333 -6.83301 25 -8.5l10 -2.5
l-23 -7c-15.333 -4.66699 -34 -8.66699 -56 -12s-43.833 -3.66602 -65.5 -0.999023s-39.5 11 -53.5 25zM714.997 156v88.0039v76v15v177c0 15.333 -0.666992 31 -2 47c-30 5.33301 -60.333 9.66602 -91 12.999c-138 13.333 -250.333 -0.333984 -337 -41.001
s-139.334 -110.334 -158.001 -209.001c-10.667 -91.333 17.333 -158.333 84 -201s142.334 -61.334 227.001 -56.001c60.667 6 116.5 19 167.5 39s87.5 37.333 109.5 52zM323.997 1080l387 356l74 -71l-392 -285h-69z" />
    <glyph glyph-name="acircumflex" unicode="&#xe2;" horiz-adv-x="943" 
d="M745 23c-14.667 16 -23.6699 39.667 -27.0029 71c-36 -22.667 -80 -43.834 -132 -63.501s-101.333 -33.167 -148 -40.5c-46.667 -8 -100.667 -8.83301 -162 -2.5s-118.666 28.166 -171.999 65.499c-41.333 32 -69 66.667 -83 104s-21 76.333 -21 117v9
c0 27.333 8.66699 62.5 26 105.5s50 85.167 98 126.5c46.667 38.667 113.167 69.5 199.5 92.5s189.833 28.833 310.5 17.5c28 -2.66699 52.333 -5.66699 73 -9c-13.333 84.667 -41.666 158.334 -84.999 221.001s-102 97.667 -176 105c-18 2 -45.333 1.5 -82 -1.5
s-72.834 -15.833 -108.501 -38.5s-61.167 -62.667 -76.5 -120c-2.66699 -12.667 -4.66699 -26 -6 -40c-1.33301 -24.667 -5.5 -43.834 -12.5 -57.501s-23.5 -12.5 -49.5 3.5c-50 40 -61.667 88.667 -35 146s69.667 101 129 131c44 18.667 85.5 29.5 124.5 32.5
s71.833 3.5 98.5 1.5c6.66699 -0.666992 12.667 -1 18 -1c140.667 -9.33301 241.834 -60.166 303.501 -152.499s92.5 -209.166 92.5 -350.499v0v-378c0.666992 -16.667 4.33398 -30.834 11.001 -42.501s15 -21.167 25 -28.5s20 -13 30 -17s18.333 -6.83301 25 -8.5l10 -2.5
l-23 -7c-15.333 -4.66699 -34 -8.66699 -56 -12s-43.833 -3.66602 -65.5 -0.999023s-39.5 11 -53.5 25zM714.997 156v88.0039v76v15v177c0 15.333 -0.666992 31 -2 47c-30 5.33301 -60.333 9.66602 -91 12.999c-138 13.333 -250.333 -0.333984 -337 -41.001
s-139.334 -110.334 -158.001 -209.001c-10.667 -91.333 17.333 -158.333 84 -201s142.334 -61.334 227.001 -56.001c60.667 6 116.5 19 167.5 39s87.5 37.333 109.5 52zM156.997 1134l232 302h118l232 -302h-58l-233 266l-233 -266h-58z" />
    <glyph glyph-name="atilde" unicode="&#xe3;" horiz-adv-x="943" 
d="M745 23c-14.667 16 -23.6699 39.667 -27.0029 71c-36 -22.667 -80 -43.834 -132 -63.501s-101.333 -33.167 -148 -40.5c-46.667 -8 -100.667 -8.83301 -162 -2.5s-118.666 28.166 -171.999 65.499c-41.333 32 -69 66.667 -83 104s-21 76.333 -21 117v9
c0 27.333 8.66699 62.5 26 105.5s50 85.167 98 126.5c46.667 38.667 113.167 69.5 199.5 92.5s189.833 28.833 310.5 17.5c28 -2.66699 52.333 -5.66699 73 -9c-13.333 84.667 -41.666 158.334 -84.999 221.001s-102 97.667 -176 105c-18 2 -45.333 1.5 -82 -1.5
s-72.834 -15.833 -108.501 -38.5s-61.167 -62.667 -76.5 -120c-2.66699 -12.667 -4.66699 -26 -6 -40c-1.33301 -24.667 -5.5 -43.834 -12.5 -57.501s-23.5 -12.5 -49.5 3.5c-50 40 -61.667 88.667 -35 146s69.667 101 129 131c44 18.667 85.5 29.5 124.5 32.5
s71.833 3.5 98.5 1.5c6.66699 -0.666992 12.667 -1 18 -1c140.667 -9.33301 241.834 -60.166 303.501 -152.499s92.5 -209.166 92.5 -350.499v0v-378c0.666992 -16.667 4.33398 -30.834 11.001 -42.501s15 -21.167 25 -28.5s20 -13 30 -17s18.333 -6.83301 25 -8.5l10 -2.5
l-23 -7c-15.333 -4.66699 -34 -8.66699 -56 -12s-43.833 -3.66602 -65.5 -0.999023s-39.5 11 -53.5 25zM714.997 156v88.0039v76v15v177c0 15.333 -0.666992 31 -2 47c-30 5.33301 -60.333 9.66602 -91 12.999c-138 13.333 -250.333 -0.333984 -337 -41.001
s-139.334 -110.334 -158.001 -209.001c-10.667 -91.333 17.333 -158.333 84 -201s142.334 -61.334 227.001 -56.001c60.667 6 116.5 19 167.5 39s87.5 37.333 109.5 52zM764.997 1353c-13.333 -48.667 -36.1699 -89.167 -68.5029 -121.5s-75.833 -48.5 -130.5 -48.5
c-33.333 0 -71.5 10.333 -114.5 31s-83.833 31 -122.5 31c-39.333 0 -67.333 -27.333 -84 -82h-54c12.667 50.667 35.334 91.667 68.001 123s72.334 47 119.001 47c37.333 0 77.833 -9.33301 121.5 -28s84.834 -28 123.501 -28c40 0 69.333 25.333 88 76h54z" />
    <glyph glyph-name="adieresis" unicode="&#xe4;" horiz-adv-x="943" 
d="M745 23c-14.667 16 -23.6699 39.667 -27.0029 71c-36 -22.667 -80 -43.834 -132 -63.501s-101.333 -33.167 -148 -40.5c-46.667 -8 -100.667 -8.83301 -162 -2.5s-118.666 28.166 -171.999 65.499c-41.333 32 -69 66.667 -83 104s-21 76.333 -21 117v9
c0 27.333 8.66699 62.5 26 105.5s50 85.167 98 126.5c46.667 38.667 113.167 69.5 199.5 92.5s189.833 28.833 310.5 17.5c28 -2.66699 52.333 -5.66699 73 -9c-13.333 84.667 -41.666 158.334 -84.999 221.001s-102 97.667 -176 105c-18 2 -45.333 1.5 -82 -1.5
s-72.834 -15.833 -108.501 -38.5s-61.167 -62.667 -76.5 -120c-2.66699 -12.667 -4.66699 -26 -6 -40c-1.33301 -24.667 -5.5 -43.834 -12.5 -57.501s-23.5 -12.5 -49.5 3.5c-50 40 -61.667 88.667 -35 146s69.667 101 129 131c44 18.667 85.5 29.5 124.5 32.5
s71.833 3.5 98.5 1.5c6.66699 -0.666992 12.667 -1 18 -1c140.667 -9.33301 241.834 -60.166 303.501 -152.499s92.5 -209.166 92.5 -350.499v0v-378c0.666992 -16.667 4.33398 -30.834 11.001 -42.501s15 -21.167 25 -28.5s20 -13 30 -17s18.333 -6.83301 25 -8.5l10 -2.5
l-23 -7c-15.333 -4.66699 -34 -8.66699 -56 -12s-43.833 -3.66602 -65.5 -0.999023s-39.5 11 -53.5 25zM714.997 156v88.0039v76v15v177c0 15.333 -0.666992 31 -2 47c-30 5.33301 -60.333 9.66602 -91 12.999c-138 13.333 -250.333 -0.333984 -337 -41.001
s-139.334 -110.334 -158.001 -209.001c-10.667 -91.333 17.333 -158.333 84 -201s142.334 -61.334 227.001 -56.001c60.667 6 116.5 19 167.5 39s87.5 37.333 109.5 52zM249.997 1203c-20 0 -37 7 -51 21s-21 31 -21 51s7 37 21 51s31 21 51 21c19.333 0 36 -7 50 -21
s21 -31 21 -51s-7 -37 -21 -51s-30.667 -21 -50 -21zM603.997 1203c-20 0 -37 7 -51 21s-21 31 -21 51s7 37 21 51s31 21 51 21c19.333 0 36 -7 50 -21s21 -31 21 -51s-7 -37 -21 -51s-30.667 -21 -50 -21z" />
    <glyph glyph-name="aring" unicode="&#xe5;" horiz-adv-x="943" 
d="M745 23c-14.667 16 -23.6699 39.667 -27.0029 71c-36 -22.667 -80 -43.834 -132 -63.501s-101.333 -33.167 -148 -40.5c-46.667 -8 -100.667 -8.83301 -162 -2.5s-118.666 28.166 -171.999 65.499c-41.333 32 -69 66.667 -83 104s-21 76.333 -21 117v9
c0 27.333 8.66699 62.5 26 105.5s50 85.167 98 126.5c46.667 38.667 113.167 69.5 199.5 92.5s189.833 28.833 310.5 17.5c28 -2.66699 52.333 -5.66699 73 -9c-13.333 84.667 -41.666 158.334 -84.999 221.001s-102 97.667 -176 105c-18 2 -45.333 1.5 -82 -1.5
s-72.834 -15.833 -108.501 -38.5s-61.167 -62.667 -76.5 -120c-2.66699 -12.667 -4.66699 -26 -6 -40c-1.33301 -24.667 -5.5 -43.834 -12.5 -57.501s-23.5 -12.5 -49.5 3.5c-50 40 -61.667 88.667 -35 146s69.667 101 129 131c44 18.667 85.5 29.5 124.5 32.5
s71.833 3.5 98.5 1.5c6.66699 -0.666992 12.667 -1 18 -1c140.667 -9.33301 241.834 -60.166 303.501 -152.499s92.5 -209.166 92.5 -350.499v0v-378c0.666992 -16.667 4.33398 -30.834 11.001 -42.501s15 -21.167 25 -28.5s20 -13 30 -17s18.333 -6.83301 25 -8.5l10 -2.5
l-23 -7c-15.333 -4.66699 -34 -8.66699 -56 -12s-43.833 -3.66602 -65.5 -0.999023s-39.5 11 -53.5 25zM714.997 156v88.0039v76v15v177c0 15.333 -0.666992 31 -2 47c-30 5.33301 -60.333 9.66602 -91 12.999c-138 13.333 -250.333 -0.333984 -337 -41.001
s-139.334 -110.334 -158.001 -209.001c-10.667 -91.333 17.333 -158.333 84 -201s142.334 -61.334 227.001 -56.001c60.667 6 116.5 19 167.5 39s87.5 37.333 109.5 52zM285.997 1258c0 -28.667 11.1709 -54.167 33.5039 -76.5s51.166 -33.5 86.499 -33.5
s64.166 11.167 86.499 33.5s33.5 47.833 33.5 76.5c0 27.333 -11.333 52.333 -34 75s-51.334 34 -86.001 34s-63.334 -11.333 -86.001 -34s-34 -47.667 -34 -75zM250.001 1258c0 49.333 15.5 89.5 46.5 120.5s67.5 46.5 109.5 46.5c43.333 0 80.666 -15.667 111.999 -47
s47 -71.333 47 -120c0 -49.333 -15.667 -89.666 -47 -120.999s-68.666 -47 -111.999 -47c-42 0 -78.5 15.667 -109.5 47s-46.5 71.666 -46.5 120.999z" />
    <glyph glyph-name="ae" unicode="&#xe6;" horiz-adv-x="1536" 
d="M745 23c-14.667 16 -23.6699 39.667 -27.0029 71c-36 -22.667 -80 -43.834 -132 -63.501s-101.333 -33.167 -148 -40.5c-46.667 -8 -100.667 -8.83301 -162 -2.5s-118.666 28.166 -171.999 65.499c-41.333 32 -69 66.667 -83 104s-21 76.333 -21 117v9
c0 27.333 8.66699 62.5 26 105.5s50 85.167 98 126.5c46.667 38.667 113.167 69.5 199.5 92.5s189.833 28.833 310.5 17.5c28 -2.66699 52.333 -5.66699 73 -9c-13.333 84.667 -41.666 158.334 -84.999 221.001s-102 97.667 -176 105c-18 2 -45.333 1.5 -82 -1.5
s-72.834 -15.833 -108.501 -38.5s-61.167 -62.667 -76.5 -120c-2.66699 -12.667 -4.66699 -26 -6 -40c-1.33301 -24.667 -5.5 -43.834 -12.5 -57.501s-23.5 -12.5 -49.5 3.5c-50 40 -61.667 88.667 -35 146s69.667 101 129 131c44 18.667 85.5 29.5 124.5 32.5
s71.833 3.5 98.5 1.5c6.66699 -0.666992 12.667 -1 18 -1c140.667 -9.33301 241.834 -60.166 303.501 -152.499s92.5 -209.166 92.5 -350.499v0v-378c0.666992 -16.667 4.33398 -30.834 11.001 -42.501s15 -21.167 25 -28.5s20 -13 30 -17s18.333 -6.83301 25 -8.5l10 -2.5
l-23 -7c-15.333 -4.66699 -34 -8.66699 -56 -12s-43.833 -3.66602 -65.5 -0.999023s-39.5 11 -53.5 25zM714.997 156v88.0039v76v15v177c0 15.333 -0.666992 31 -2 47c-30 5.33301 -60.333 9.66602 -91 12.999c-138 13.333 -250.333 -0.333984 -337 -41.001
s-139.334 -110.334 -158.001 -209.001c-10.667 -91.333 17.333 -158.333 84 -201s142.334 -61.334 227.001 -56.001c60.667 6 116.5 19 167.5 39s87.5 37.333 109.5 52zM1155 -5.99609h-22c-138 0 -254.333 42.5 -349 127.5s-142 211.5 -142 379.5
c0 120.667 23.5 217.334 70.5 290.001s108.667 125.5 185 158.5s159.5 49.5 249.5 49.5h12c130.667 0 221 -37.833 271 -113.5s75 -204.5 75 -386.5c0 -0.666992 -2.33301 -1 -7 -1h-729v-2c6.66699 -122.667 48 -222.167 124 -298.5s162.333 -117.5 259 -123.5
c132 0 235.333 54.333 310 163l43 -17c-15.333 -30 -37 -62.333 -65 -97s-65 -64.834 -111 -90.501s-104 -38.5 -174 -38.5zM1379 553.004l1 54.0029c0 89.333 -9.66699 164.666 -29 225.999s-66.333 97.333 -141 108c-18 2 -37.333 3 -58 3c-20 0 -39 -1 -57 -3
c-80 -10.667 -151.333 -49.334 -214 -116.001s-99.667 -157.334 -111 -272.001h609z" />
    <glyph glyph-name="ccedilla" unicode="&#xe7;" horiz-adv-x="864" 
d="M513 -1l-20.998 0.00195312c-138.667 0 -255.334 42.5 -350.001 127.5s-142 211.5 -142 379.5c0 226 85.667 375.667 257 449c76.667 32.667 161 49 253 49h18c22 0 47.167 -2 75.5 -6s65.5 -16.333 111.5 -37c59.333 -29.333 102.333 -71.333 129 -126
c8.66699 -18.667 13 -36.334 13 -53.001c0 -32.667 -16.333 -62 -49 -88c-14.667 -10 -26.334 -15 -35.001 -15c-16 0 -25 20.333 -27 61c-7.33301 72 -31 124.833 -71 158.5s-90 50.5 -150 50.5c-26.667 0 -50.667 -1 -72 -3c-86.667 -11.333 -162.5 -55.333 -227.5 -132
s-97.833 -181 -98.5 -313c7.33301 -122.667 48.833 -222.167 124.5 -298.5s162.167 -117.5 259.5 -123.5c132 0 235.333 54.333 310 163l43 -17c-16 -30 -38 -62.333 -66 -97s-65 -64.834 -111 -90.501s-104 -38.5 -174 -38.5zM254.002 -289.998
c56.667 -34.667 107.333 -51.999 152 -51.999c44 0 80.5 7.16699 109.5 21.5s43.5 43.166 43.5 86.499c0 50 -26.333 81.333 -79 94c-26.667 10.667 -60.667 16 -102 16c-10.667 0 -22 -0.666992 -34 -2l38 146h63l-37 -104c21.333 2.66699 42 4.33398 62 5.00098
c57.333 0 102 -13.5 134 -40.5s48 -64.833 48 -113.5c0 -50.667 -19.5 -90.834 -58.5 -120.501s-92.5 -44.5 -160.5 -44.5c-72.667 0 -135.667 10.667 -189 32z" />
    <glyph glyph-name="egrave" unicode="&#xe8;" horiz-adv-x="863" 
d="M513 -6h-22c-138 0 -254.333 42.5 -349 127.5s-142 211.5 -142 379.5c0 120.667 23.5 217.334 70.5 290.001s108.667 125.5 185 158.5s159.5 49.5 249.5 49.5h12c130.667 0 221 -37.833 271 -113.5s75 -204.5 75 -386.5c0 -0.666992 -2.33301 -1 -7 -1h-729v-2
c6.66699 -122.667 48 -222.167 124 -298.5s162.333 -117.5 259 -123.5c132 0 235.333 54.333 310 163l43 -17c-15.333 -30 -37 -62.333 -65 -97s-65 -64.834 -111 -90.501s-104 -38.5 -174 -38.5zM737 553l1 54.0029c0 89.333 -9.66699 164.666 -29 225.999
s-66.333 97.333 -141 108c-18 2 -37.333 3 -58 3c-20 0 -39 -1 -57 -3c-80 -10.667 -151.333 -49.334 -214 -116.001s-99.667 -157.334 -111 -272.001h609zM601 1080h-69l-392 285l74 71z" />
    <glyph glyph-name="eacute" unicode="&#xe9;" horiz-adv-x="863" 
d="M513 -6h-22c-138 0 -254.333 42.5 -349 127.5s-142 211.5 -142 379.5c0 120.667 23.5 217.334 70.5 290.001s108.667 125.5 185 158.5s159.5 49.5 249.5 49.5h12c130.667 0 221 -37.833 271 -113.5s75 -204.5 75 -386.5c0 -0.666992 -2.33301 -1 -7 -1h-729v-2
c6.66699 -122.667 48 -222.167 124 -298.5s162.333 -117.5 259 -123.5c132 0 235.333 54.333 310 163l43 -17c-15.333 -30 -37 -62.333 -65 -97s-65 -64.834 -111 -90.501s-104 -38.5 -174 -38.5zM737 553l1 54.0029c0 89.333 -9.66699 164.666 -29 225.999
s-66.333 97.333 -141 108c-18 2 -37.333 3 -58 3c-20 0 -39 -1 -57 -3c-80 -10.667 -151.333 -49.334 -214 -116.001s-99.667 -157.334 -111 -272.001h609zM294 1080l387 356l74 -71l-392 -285h-69z" />
    <glyph glyph-name="ecircumflex" unicode="&#xea;" horiz-adv-x="863" 
d="M513 -6h-22c-138 0 -254.333 42.5 -349 127.5s-142 211.5 -142 379.5c0 120.667 23.5 217.334 70.5 290.001s108.667 125.5 185 158.5s159.5 49.5 249.5 49.5h12c130.667 0 221 -37.833 271 -113.5s75 -204.5 75 -386.5c0 -0.666992 -2.33301 -1 -7 -1h-729v-2
c6.66699 -122.667 48 -222.167 124 -298.5s162.333 -117.5 259 -123.5c132 0 235.333 54.333 310 163l43 -17c-15.333 -30 -37 -62.333 -65 -97s-65 -64.834 -111 -90.501s-104 -38.5 -174 -38.5zM737 553l1 54.0029c0 89.333 -9.66699 164.666 -29 225.999
s-66.333 97.333 -141 108c-18 2 -37.333 3 -58 3c-20 0 -39 -1 -57 -3c-80 -10.667 -151.333 -49.334 -214 -116.001s-99.667 -157.334 -111 -272.001h609zM156 1134l232 302h118l232 -302h-58l-233 266l-233 -266h-58z" />
    <glyph glyph-name="edieresis" unicode="&#xeb;" horiz-adv-x="863" 
d="M513 -6h-22c-138 0 -254.333 42.5 -349 127.5s-142 211.5 -142 379.5c0 120.667 23.5 217.334 70.5 290.001s108.667 125.5 185 158.5s159.5 49.5 249.5 49.5h12c130.667 0 221 -37.833 271 -113.5s75 -204.5 75 -386.5c0 -0.666992 -2.33301 -1 -7 -1h-729v-2
c6.66699 -122.667 48 -222.167 124 -298.5s162.333 -117.5 259 -123.5c132 0 235.333 54.333 310 163l43 -17c-15.333 -30 -37 -62.333 -65 -97s-65 -64.834 -111 -90.501s-104 -38.5 -174 -38.5zM737 553l1 54.0029c0 89.333 -9.66699 164.666 -29 225.999
s-66.333 97.333 -141 108c-18 2 -37.333 3 -58 3c-20 0 -39 -1 -57 -3c-80 -10.667 -151.333 -49.334 -214 -116.001s-99.667 -157.334 -111 -272.001h609zM300 1203c-20 0 -37 7 -51 21s-21 31 -21 51s7 37 21 51s31 21 51 21c19.333 0 36 -7 50 -21s21 -31 21 -51
s-7 -37 -21 -51s-30.667 -21 -50 -21zM654 1203c-20 0 -37 7 -51 21s-21 31 -21 51s7 37 21 51s31 21 51 21c19.333 0 36 -7 50 -21s21 -31 21 -51s-7 -37 -21 -51s-30.667 -21 -50 -21z" />
    <glyph glyph-name="igrave" unicode="&#xec;" 
d="M334 -2l-334.003 0.000976562v6h14c18 0 35 6.33301 51 19c24 18 36.667 49.333 38 94v794c0 20 -4.33301 34.333 -13 43c-11.333 10 -26.666 15 -45.999 15c-6.66699 0 -14.167 -0.833008 -22.5 -2.5s-14.166 -3.16699 -17.499 -4.5c6 2 20.667 6.5 44 13.5
s49.5 13.833 78.5 20.5s53.833 10 74.5 10c14.667 0 23.334 -11.667 26.001 -35c2.66699 -18.667 4 -43.334 4 -74.001v-283h-1v-571l1 80c0 -46.667 12 -79.667 36 -99c16 -14 35 -21 57 -21h10v-5zM330.997 1080h-69l-392 285l74 71z" />
    <glyph glyph-name="iacute" unicode="&#xed;" 
d="M334 -2l-334.003 0.000976562v6h14c18 0 35 6.33301 51 19c24 18 36.667 49.333 38 94v794c0 20 -4.33301 34.333 -13 43c-11.333 10 -26.666 15 -45.999 15c-6.66699 0 -14.167 -0.833008 -22.5 -2.5s-14.166 -3.16699 -17.499 -4.5c6 2 20.667 6.5 44 13.5
s49.5 13.833 78.5 20.5s53.833 10 74.5 10c14.667 0 23.334 -11.667 26.001 -35c2.66699 -18.667 4 -43.334 4 -74.001v-283h-1v-571l1 80c0 -46.667 12 -79.667 36 -99c16 -14 35 -21 57 -21h10v-5zM-27.0029 1080l387 356l74 -71l-392 -285h-69z" />
    <glyph glyph-name="icircumflex" unicode="&#xee;" 
d="M334 -2l-334.003 0.000976562v6h14c18 0 35 6.33301 51 19c24 18 36.667 49.333 38 94v794c0 20 -4.33301 34.333 -13 43c-11.333 10 -26.666 15 -45.999 15c-6.66699 0 -14.167 -0.833008 -22.5 -2.5s-14.166 -3.16699 -17.499 -4.5c6 2 20.667 6.5 44 13.5
s49.5 13.833 78.5 20.5s53.833 10 74.5 10c14.667 0 23.334 -11.667 26.001 -35c2.66699 -18.667 4 -43.334 4 -74.001v-283h-1v-571l1 80c0 -46.667 12 -79.667 36 -99c16 -14 35 -21 57 -21h10v-5zM-134.003 1134l232 302h118l232 -302h-58l-233 266l-233 -266h-58z" />
    <glyph glyph-name="idieresis" unicode="&#xef;" 
d="M334 -2l-334.003 0.000976562v6h14c18 0 35 6.33301 51 19c24 18 36.667 49.333 38 94v794c0 20 -4.33301 34.333 -13 43c-11.333 10 -26.666 15 -45.999 15c-6.66699 0 -14.167 -0.833008 -22.5 -2.5s-14.166 -3.16699 -17.499 -4.5c6 2 20.667 6.5 44 13.5
s49.5 13.833 78.5 20.5s53.833 10 74.5 10c14.667 0 23.334 -11.667 26.001 -35c2.66699 -18.667 4 -43.334 4 -74.001v-283h-1v-571l1 80c0 -46.667 12 -79.667 36 -99c16 -14 35 -21 57 -21h10v-5zM-21.0029 1203c-20 0 -37 7 -51 21s-21 31 -21 51s7 37 21 51
s31 21 51 21c19.333 0 36 -7 50 -21s21 -31 21 -51s-7 -37 -21 -51s-30.667 -21 -50 -21zM332.997 1203c-20 0 -37 7 -51 21s-21 31 -21 51s7 37 21 51s31 21 51 21c19.333 0 36 -7 50 -21s21 -31 21 -51s-7 -37 -21 -51s-30.667 -21 -50 -21z" />
    <glyph glyph-name="eth" unicode="&#xf0;" horiz-adv-x="1233" 
d="M491 1372l-260.001 0.000976562v-1318h253c163.333 0 290 31.167 380 93.5s152.833 143.666 188.5 243.999s53.5 208.166 53.5 323.499c0 118.667 -15.667 227.834 -47 327.501s-91.166 179.5 -179.499 239.5s-217.833 90 -388.5 90zM-0.000976562 -0.999023v5.99902h11
c6.66699 -0.666992 15.167 0.5 25.5 3.5s20.5 8.5 30.5 16.5s18.5 20 25.5 36s10.833 37 11.5 63v1180c-0.666992 26.667 -4.33398 48 -11.001 64s-15.167 28 -25.5 36s-20.666 13.333 -30.999 16s-18.833 4 -25.5 4h-11v5h600c151.333 0 273.333 -31.667 366 -95
s160.334 -149 203.001 -257s64 -228.667 64 -362s-23 -254.166 -69 -362.499s-115.833 -194.333 -209.5 -258s-211.834 -95.5 -354.501 -95.5h-600zM-248.001 750v67h835l2 -67h-837z" />
    <glyph glyph-name="ntilde" unicode="&#xf1;" horiz-adv-x="1015" 
d="M335 -6h-335v6h15c18 -0 35 6.33301 51 19c24 18 36.667 49.333 38 94v792c0 20 -4.33301 34.333 -13 43c-11.333 10 -26.666 15 -45.999 15c-14.667 0 -28 -2.33301 -40 -7c6 2 20.667 6.5 44 13.5s49.5 13.833 78.5 20.5s53.5 10 73.5 10
c15.333 0 24.333 -11.333 27 -34c2 -18 3 -43 3 -75c23.333 24.667 59.5 49 108.5 73s111.5 36 187.5 36c257.333 0 386 -161.333 386 -484l1 -400c0 -16.667 3.66699 -31 11 -43c11.333 -20.667 29.333 -36 54 -46l36 -10l-23 -7c-32.667 -10 -63.667 -15 -93 -15
c-9.33301 0 -22 1 -38 3c-49.333 6.66699 -74 52 -74 136l-1 362c0 86 -6.66699 162.833 -20 230.5s-40.333 121.167 -81 160.5s-102.667 59 -186 59c-69.333 0 -127.833 -20.667 -175.5 -62s-78.5 -85 -92.5 -131v-634c1.33301 -48.667 13.666 -81.667 36.999 -99
c16 -14 35 -21 57 -21h10v-5zM801 1353c-13.333 -48.667 -36.1699 -89.167 -68.5029 -121.5s-75.833 -48.5 -130.5 -48.5c-33.333 0 -71.5 10.333 -114.5 31s-83.833 31 -122.5 31c-39.333 0 -67.333 -27.333 -84 -82h-54c12.667 50.667 35.334 91.667 68.001 123
s72.334 47 119.001 47c37.333 0 77.833 -9.33301 121.5 -28s84.834 -28 123.501 -28c40 0 69.333 25.333 88 76h54z" />
    <glyph glyph-name="ograve" unicode="&#xf2;" horiz-adv-x="902" 
d="M444 -5c-136.667 5.33301 -244.832 55.5029 -324.499 150.503s-119.5 214.5 -119.5 358.5c4 144.667 47.167 263.167 129.5 355.5s192.166 139.166 329.499 140.499c136.667 -4.66699 244.667 -54.334 324 -149.001s119 -213.334 119 -356.001v-4
c-4 -144 -47 -262.333 -129 -355s-191.667 -139.667 -329 -141zM484.002 54.0029c20.667 0 41.667 1.99902 63 5.99902c159.333 41.333 239 159 239 353c0 48.667 -6.33301 100.334 -19 155.001c-26 114.667 -75 209.334 -147 284.001c-58 60 -126 90 -204 90
c-20 0 -40.333 -2 -61 -6c-104.667 -28.667 -174 -91.667 -208 -189c-19.333 -55.333 -29 -113.333 -29 -174c0 -47.333 5.66699 -96 17 -146c26 -114.667 75 -209.334 147 -284.001c56.667 -59.333 124 -89 202 -89zM616.002 1080h-69l-392 285l74 71z" />
    <glyph glyph-name="oacute" unicode="&#xf3;" horiz-adv-x="902" 
d="M444 -5c-136.667 5.33301 -244.832 55.5029 -324.499 150.503s-119.5 214.5 -119.5 358.5c4 144.667 47.167 263.167 129.5 355.5s192.166 139.166 329.499 140.499c136.667 -4.66699 244.667 -54.334 324 -149.001s119 -213.334 119 -356.001v-4
c-4 -144 -47 -262.333 -129 -355s-191.667 -139.667 -329 -141zM484.002 54.0029c20.667 0 41.667 1.99902 63 5.99902c159.333 41.333 239 159 239 353c0 48.667 -6.33301 100.334 -19 155.001c-26 114.667 -75 209.334 -147 284.001c-58 60 -126 90 -204 90
c-20 0 -40.333 -2 -61 -6c-104.667 -28.667 -174 -91.667 -208 -189c-19.333 -55.333 -29 -113.333 -29 -174c0 -47.333 5.66699 -96 17 -146c26 -114.667 75 -209.334 147 -284.001c56.667 -59.333 124 -89 202 -89zM309.002 1080l387 356l74 -71l-392 -285h-69z" />
    <glyph glyph-name="ocircumflex" unicode="&#xf4;" horiz-adv-x="902" 
d="M444 -5c-136.667 5.33301 -244.832 55.5029 -324.499 150.503s-119.5 214.5 -119.5 358.5c4 144.667 47.167 263.167 129.5 355.5s192.166 139.166 329.499 140.499c136.667 -4.66699 244.667 -54.334 324 -149.001s119 -213.334 119 -356.001v-4
c-4 -144 -47 -262.333 -129 -355s-191.667 -139.667 -329 -141zM484.002 54.0029c20.667 0 41.667 1.99902 63 5.99902c159.333 41.333 239 159 239 353c0 48.667 -6.33301 100.334 -19 155.001c-26 114.667 -75 209.334 -147 284.001c-58 60 -126 90 -204 90
c-20 0 -40.333 -2 -61 -6c-104.667 -28.667 -174 -91.667 -208 -189c-19.333 -55.333 -29 -113.333 -29 -174c0 -47.333 5.66699 -96 17 -146c26 -114.667 75 -209.334 147 -284.001c56.667 -59.333 124 -89 202 -89zM171.002 1134l232 302h118l232 -302h-58l-233 266
l-233 -266h-58z" />
    <glyph glyph-name="otilde" unicode="&#xf5;" horiz-adv-x="902" 
d="M444 -5c-136.667 5.33301 -244.832 55.5029 -324.499 150.503s-119.5 214.5 -119.5 358.5c4 144.667 47.167 263.167 129.5 355.5s192.166 139.166 329.499 140.499c136.667 -4.66699 244.667 -54.334 324 -149.001s119 -213.334 119 -356.001v-4
c-4 -144 -47 -262.333 -129 -355s-191.667 -139.667 -329 -141zM484.002 54.0029c20.667 0 41.667 1.99902 63 5.99902c159.333 41.333 239 159 239 353c0 48.667 -6.33301 100.334 -19 155.001c-26 114.667 -75 209.334 -147 284.001c-58 60 -126 90 -204 90
c-20 0 -40.333 -2 -61 -6c-104.667 -28.667 -174 -91.667 -208 -189c-19.333 -55.333 -29 -113.333 -29 -174c0 -47.333 5.66699 -96 17 -146c26 -114.667 75 -209.334 147 -284.001c56.667 -59.333 124 -89 202 -89zM749.002 1353
c-13.333 -48.667 -36.1699 -89.167 -68.5029 -121.5s-75.833 -48.5 -130.5 -48.5c-33.333 0 -71.5 10.333 -114.5 31s-83.833 31 -122.5 31c-39.333 0 -67.333 -27.333 -84 -82h-54c12.667 50.667 35.334 91.667 68.001 123s72.334 47 119.001 47
c37.333 0 77.833 -9.33301 121.5 -28s84.834 -28 123.501 -28c40 0 69.333 25.333 88 76h54z" />
    <glyph glyph-name="odieresis" unicode="&#xf6;" horiz-adv-x="902" 
d="M444 -5c-136.667 5.33301 -244.832 55.5029 -324.499 150.503s-119.5 214.5 -119.5 358.5c4 144.667 47.167 263.167 129.5 355.5s192.166 139.166 329.499 140.499c136.667 -4.66699 244.667 -54.334 324 -149.001s119 -213.334 119 -356.001v-4
c-4 -144 -47 -262.333 -129 -355s-191.667 -139.667 -329 -141zM484.002 54.0029c20.667 0 41.667 1.99902 63 5.99902c159.333 41.333 239 159 239 353c0 48.667 -6.33301 100.334 -19 155.001c-26 114.667 -75 209.334 -147 284.001c-58 60 -126 90 -204 90
c-20 0 -40.333 -2 -61 -6c-104.667 -28.667 -174 -91.667 -208 -189c-19.333 -55.333 -29 -113.333 -29 -174c0 -47.333 5.66699 -96 17 -146c26 -114.667 75 -209.334 147 -284.001c56.667 -59.333 124 -89 202 -89zM275.002 1203c-20 0 -37 7 -51 21s-21 31 -21 51
s7 37 21 51s31 21 51 21c19.333 0 36 -7 50 -21s21 -31 21 -51s-7 -37 -21 -51s-30.667 -21 -50 -21zM629.002 1203c-20 0 -37 7 -51 21s-21 31 -21 51s7 37 21 51s31 21 51 21c19.333 0 36 -7 50 -21s21 -31 21 -51s-7 -37 -21 -51s-30.667 -21 -50 -21z" />
    <glyph glyph-name="divide" unicode="&#xf7;" horiz-adv-x="676" 
d="M338 55c-23.333 0 -43.166 8.16699 -59.499 24.5s-24.5 36.166 -24.5 59.499s8.16699 43.166 24.5 59.499s36.166 24.5 59.499 24.5s43.166 -8.16699 59.499 -24.5s24.5 -36.166 24.5 -59.499s-8.16699 -43.166 -24.5 -59.499s-36.166 -24.5 -59.499 -24.5zM338 688
c-23.333 0 -43.166 8.16699 -59.499 24.5s-24.5 36.166 -24.5 59.499s8.16699 43.166 24.5 59.499s36.166 24.5 59.499 24.5s43.166 -8.16699 59.499 -24.5s24.5 -36.166 24.5 -59.499s-8.16699 -43.166 -24.5 -59.499s-36.166 -24.5 -59.499 -24.5zM80 428v51h516v-51h-516
z" />
    <glyph glyph-name="oslash" unicode="&#xf8;" horiz-adv-x="902" 
d="M444 -5c-136.667 5.33301 -244.832 55.5029 -324.499 150.503s-119.5 214.5 -119.5 358.5c4 144.667 47.167 263.167 129.5 355.5s192.166 139.166 329.499 140.499c136.667 -4.66699 244.667 -54.334 324 -149.001s119 -213.334 119 -356.001v-4
c-4 -144 -47 -262.333 -129 -355s-191.667 -139.667 -329 -141zM484.002 54.0029c20.667 0 41.667 1.99902 63 5.99902c159.333 41.333 239 159 239 353c0 48.667 -6.33301 100.334 -19 155.001c-26 114.667 -75 209.334 -147 284.001c-58 60 -126 90 -204 90
c-20 0 -40.333 -2 -61 -6c-104.667 -28.667 -174 -91.667 -208 -189c-19.333 -55.333 -29 -113.333 -29 -174c0 -47.333 5.66699 -96 17 -146c26 -114.667 75 -209.334 147 -284.001c56.667 -59.333 124 -89 202 -89zM146.002 -420.998l-70 2l633 1849l71 -2z" />
    <glyph glyph-name="ugrave" unicode="&#xf9;" horiz-adv-x="1015" 
d="M900 -5c-10 0 -22.835 0.999023 -38.502 2.99902s-30.5 10 -44.5 24c-18 19.333 -27.667 50.333 -29 93c-22 -24.667 -58 -50 -108 -76s-114.667 -39 -194 -39c-165.333 0 -276.333 65.333 -333 196c-35.333 81.333 -53 177 -53 287v422c0 38.667 -20 58 -60 58
c-15.333 0 -28.666 -2.33301 -39.999 -7c88 29.333 153.667 44 197 44c14.667 0 23.667 -11.333 27 -34c2 -18 3 -37.667 3 -59v-298h-1l1 -106c0 -86 6.5 -162.667 19.5 -230s40 -120.666 81 -159.999s103.167 -59 186.5 -59c76.667 0 139.834 24.5 189.501 73.5
s77.5 97.833 83.5 146.5v631c0 38.667 -19.667 58 -59 58c-15.333 0 -28.666 -2.33301 -39.999 -7c88 29.333 153.333 44 196 44c15.333 0 24.333 -11.333 27 -34c2 -18 3 -37.667 3 -59v-791c0 -16.667 3.66699 -31 11 -43c12 -20.667 30.333 -36 55 -46l35 -10l-23 -7
c-32.667 -10 -63.334 -15 -92.001 -15zM728.998 1080h-69l-392 285l74 71z" />
    <glyph glyph-name="uacute" unicode="&#xfa;" horiz-adv-x="1015" 
d="M900 -5c-10 0 -22.835 0.999023 -38.502 2.99902s-30.5 10 -44.5 24c-18 19.333 -27.667 50.333 -29 93c-22 -24.667 -58 -50 -108 -76s-114.667 -39 -194 -39c-165.333 0 -276.333 65.333 -333 196c-35.333 81.333 -53 177 -53 287v422c0 38.667 -20 58 -60 58
c-15.333 0 -28.666 -2.33301 -39.999 -7c88 29.333 153.667 44 197 44c14.667 0 23.667 -11.333 27 -34c2 -18 3 -37.667 3 -59v-298h-1l1 -106c0 -86 6.5 -162.667 19.5 -230s40 -120.666 81 -159.999s103.167 -59 186.5 -59c76.667 0 139.834 24.5 189.501 73.5
s77.5 97.833 83.5 146.5v631c0 38.667 -19.667 58 -59 58c-15.333 0 -28.666 -2.33301 -39.999 -7c88 29.333 153.333 44 196 44c15.333 0 24.333 -11.333 27 -34c2 -18 3 -37.667 3 -59v-791c0 -16.667 3.66699 -31 11 -43c12 -20.667 30.333 -36 55 -46l35 -10l-23 -7
c-32.667 -10 -63.334 -15 -92.001 -15zM420.998 1080l387 356l74 -71l-392 -285h-69z" />
    <glyph glyph-name="ucircumflex" unicode="&#xfb;" horiz-adv-x="1015" 
d="M900 -5c-10 0 -22.835 0.999023 -38.502 2.99902s-30.5 10 -44.5 24c-18 19.333 -27.667 50.333 -29 93c-22 -24.667 -58 -50 -108 -76s-114.667 -39 -194 -39c-165.333 0 -276.333 65.333 -333 196c-35.333 81.333 -53 177 -53 287v422c0 38.667 -20 58 -60 58
c-15.333 0 -28.666 -2.33301 -39.999 -7c88 29.333 153.667 44 197 44c14.667 0 23.667 -11.333 27 -34c2 -18 3 -37.667 3 -59v-298h-1l1 -106c0 -86 6.5 -162.667 19.5 -230s40 -120.666 81 -159.999s103.167 -59 186.5 -59c76.667 0 139.834 24.5 189.501 73.5
s77.5 97.833 83.5 146.5v631c0 38.667 -19.667 58 -59 58c-15.333 0 -28.666 -2.33301 -39.999 -7c88 29.333 153.333 44 196 44c15.333 0 24.333 -11.333 27 -34c2 -18 3 -37.667 3 -59v-791c0 -16.667 3.66699 -31 11 -43c12 -20.667 30.333 -36 55 -46l35 -10l-23 -7
c-32.667 -10 -63.334 -15 -92.001 -15zM213.998 1134l232 302h118l232 -302h-58l-233 266l-233 -266h-58z" />
    <glyph glyph-name="udieresis" unicode="&#xfc;" horiz-adv-x="1015" 
d="M900 -5c-10 0 -22.835 0.999023 -38.502 2.99902s-30.5 10 -44.5 24c-18 19.333 -27.667 50.333 -29 93c-22 -24.667 -58 -50 -108 -76s-114.667 -39 -194 -39c-165.333 0 -276.333 65.333 -333 196c-35.333 81.333 -53 177 -53 287v422c0 38.667 -20 58 -60 58
c-15.333 0 -28.666 -2.33301 -39.999 -7c88 29.333 153.667 44 197 44c14.667 0 23.667 -11.333 27 -34c2 -18 3 -37.667 3 -59v-298h-1l1 -106c0 -86 6.5 -162.667 19.5 -230s40 -120.666 81 -159.999s103.167 -59 186.5 -59c76.667 0 139.834 24.5 189.501 73.5
s77.5 97.833 83.5 146.5v631c0 38.667 -19.667 58 -59 58c-15.333 0 -28.666 -2.33301 -39.999 -7c88 29.333 153.333 44 196 44c15.333 0 24.333 -11.333 27 -34c2 -18 3 -37.667 3 -59v-791c0 -16.667 3.66699 -31 11 -43c12 -20.667 30.333 -36 55 -46l35 -10l-23 -7
c-32.667 -10 -63.334 -15 -92.001 -15zM326.998 1203c-20 0 -37 7 -51 21s-21 31 -21 51s7 37 21 51s31 21 51 21c19.333 0 36 -7 50 -21s21 -31 21 -51s-7 -37 -21 -51s-30.667 -21 -50 -21zM680.998 1203c-20 0 -37 7 -51 21s-21 31 -21 51s7 37 21 51s31 21 51 21
c19.333 0 36 -7 50 -21s21 -31 21 -51s-7 -37 -21 -51s-30.667 -21 -50 -21z" />
    <glyph glyph-name="yacute" unicode="&#xfd;" horiz-adv-x="1002" 
d="M194 -530c-23.333 0 -44.666 6.66211 -63.999 19.9951c-2 1.33301 -5.33301 5 -10 11c-12 12.667 -18 25.334 -18 38.001c0 4.66699 0.666992 9.33398 2 14.001c6 24.667 17.667 41.667 35 51c9.33301 4.66699 18.333 7 27 7c8 0 16 -2 24 -6c16 -12 34 -18 54 -18
c18 0 43.5 8.16699 76.5 24.5s68.833 68.833 107.5 157.5c11.333 26.667 22.333 56.334 33 89.001l-321 1023c-11.333 28.667 -24.666 50.667 -39.999 66s-30.666 26 -45.999 32s-28 9.33301 -38 10l-16 1v5h338v-5h-9c-17.333 -1.33301 -32.333 -7.5 -45 -18.5
s-19 -27.167 -19 -48.5c0 -7.33301 0.666992 -16 2 -26l259 -819l272 795c6 20.667 9 38 9 52c-0.666992 13.333 -3.33398 24.333 -8.00098 33c-8.66699 14.667 -21.334 24.334 -38.001 29.001l-25 3v5h266v-5l-16 -1c-10.667 -0.666992 -23.667 -4 -39 -10
c-38 -14.667 -67 -46.667 -87 -96c-203.333 -595.333 -308.333 -905.333 -315 -930c-23.333 -84 -45 -154.333 -65 -211c-38.667 -99.333 -94.334 -174.666 -167.001 -225.999c-44 -30.667 -83.667 -46 -119 -46zM368 1080l387 356l74 -71l-392 -285h-69z" />
    <glyph glyph-name="thorn" unicode="&#xfe;" horiz-adv-x="908" 
d="M335 -523l-334.999 0.000976562v5h11c20 0 38.333 6.66699 55 20c22.667 17.333 35.334 48.666 38.001 93.999v1304c44.667 63.333 77 95 97 95c14.667 0 23.667 -10.667 27 -32c2 -17.333 3 -36.333 3 -57v-15c24 24 60.167 47.333 108.5 70s108.833 34 181.5 34
c162 0 273 -73.667 333 -221c36 -90 54 -181 54 -273v-17c0 -95.333 -18 -187.333 -54 -276c-60 -145.333 -171 -218 -333 -218c-72.667 0 -133.167 11.333 -181.5 34s-84.5 46 -108.5 70v-492c1.33301 -48.667 13.666 -82 36.999 -100
c17.333 -13.333 34.666 -20 51.999 -20h15v-5zM494.001 44.001c146.667 0 235.665 82.333 266.998 247c13.333 69.333 20 136.333 20 201s-6.66699 131.667 -20 201c-31.333 165.333 -120.333 248 -267 248c-65.333 0 -121.166 -18.667 -167.499 -56
s-78.166 -78 -95.499 -122v-585c63.333 -89.333 151 -134 263 -134zM103.999 117.001l0.00195312 1305c-2 32 -17.667 49.667 -47 53c-14.667 0 -26.334 -0.833008 -35.001 -2.5l-18 -3.5c6 2 20.667 6.33301 44 13s49.666 13.334 78.999 20.001s54 10 74 10s30 -26 30 -78
v-1311c0 -47.333 -21.833 -71.666 -65.5 -72.999s-64.167 21 -61.5 67z" />
    <glyph glyph-name="ydieresis" unicode="&#xff;" horiz-adv-x="1002" 
d="M194 -530c-23.333 0 -44.666 6.66211 -63.999 19.9951c-2 1.33301 -5.33301 5 -10 11c-12 12.667 -18 25.334 -18 38.001c0 4.66699 0.666992 9.33398 2 14.001c6 24.667 17.667 41.667 35 51c9.33301 4.66699 18.333 7 27 7c8 0 16 -2 24 -6c16 -12 34 -18 54 -18
c18 0 43.5 8.16699 76.5 24.5s68.833 68.833 107.5 157.5c11.333 26.667 22.333 56.334 33 89.001l-321 1023c-11.333 28.667 -24.666 50.667 -39.999 66s-30.666 26 -45.999 32s-28 9.33301 -38 10l-16 1v5h338v-5h-9c-17.333 -1.33301 -32.333 -7.5 -45 -18.5
s-19 -27.167 -19 -48.5c0 -7.33301 0.666992 -16 2 -26l259 -819l272 795c6 20.667 9 38 9 52c-0.666992 13.333 -3.33398 24.333 -8.00098 33c-8.66699 14.667 -21.334 24.334 -38.001 29.001l-25 3v5h266v-5l-16 -1c-10.667 -0.666992 -23.667 -4 -39 -10
c-38 -14.667 -67 -46.667 -87 -96c-203.333 -595.333 -308.333 -905.333 -315 -930c-23.333 -84 -45 -154.333 -65 -211c-38.667 -99.333 -94.334 -174.666 -167.001 -225.999c-44 -30.667 -83.667 -46 -119 -46zM358 1203c-20 0 -37 7 -51 21s-21 31 -21 51s7 37 21 51
s31 21 51 21c19.333 0 36 -7 50 -21s21 -31 21 -51s-7 -37 -21 -51s-30.667 -21 -50 -21zM712 1203c-20 0 -37 7 -51 21s-21 31 -21 51s7 37 21 51s31 21 51 21c19.333 0 36 -7 50 -21s21 -31 21 -51s-7 -37 -21 -51s-30.667 -21 -50 -21z" />
    <glyph glyph-name="dotlessi" unicode="&#x131;" 
d="M334 -2l-334.003 0.000976562v6h14c18 0 35 6.33301 51 19c24 18 36.667 49.333 38 94v794c0 20 -4.33301 34.333 -13 43c-11.333 10 -26.666 15 -45.999 15c-6.66699 0 -14.167 -0.833008 -22.5 -2.5s-14.166 -3.16699 -17.499 -4.5c6 2 20.667 6.5 44 13.5
s49.5 13.833 78.5 20.5s53.833 10 74.5 10c14.667 0 23.334 -11.667 26.001 -35c2.66699 -18.667 4 -43.334 4 -74.001v-283h-1v-571l1 80c0 -46.667 12 -79.667 36 -99c16 -14 35 -21 57 -21h10v-5z" />
    <glyph glyph-name="gravecomb" unicode="&#x300;" horiz-adv-x="0" 
d="M-25 1080h-69l-392 285l74 71z" />
    <glyph glyph-name="acutecomb" unicode="&#x301;" horiz-adv-x="0" 
d="M-486 1080l387 356l74 -71l-392 -285h-69z" />
    <glyph glyph-name="uni0302" unicode="&#x302;" horiz-adv-x="0" 
d="M-624 1134l232 302h118l232 -302h-58l-233 266l-233 -266h-58z" />
    <glyph glyph-name="tildecomb" unicode="&#x303;" horiz-adv-x="0" 
d="M-38 1353c-13.333 -48.667 -36.1699 -89.167 -68.5029 -121.5s-75.833 -48.5 -130.5 -48.5c-33.333 0 -71.5 10.333 -114.5 31s-83.833 31 -122.5 31c-39.333 0 -67.333 -27.333 -84 -82h-54c12.667 50.667 35.334 91.667 68.001 123s72.334 47 119.001 47
c37.333 0 77.833 -9.33301 121.5 -28s84.834 -28 123.501 -28c40 0 69.333 25.333 88 76h54z" />
    <glyph glyph-name="uni0304" unicode="&#x304;" horiz-adv-x="0" 
d="M-526 1269v51h516v-51h-516z" />
    <glyph glyph-name="uni0307" unicode="&#x307;" horiz-adv-x="0" 
d="M-520 645c-20 0 -37 7 -51 21s-21 31 -21 51s7 37 21 51s31 21 51 21c19.333 0 36 -7 50 -21s21 -31 21 -51s-7 -37 -21 -51s-30.667 -21 -50 -21z" />
    <glyph glyph-name="uni0308" unicode="&#x308;" horiz-adv-x="0" 
d="M-680 1203c-20 0 -37 7 -51 21s-21 31 -21 51s7 37 21 51s31 21 51 21c19.333 0 36 -7 50 -21s21 -31 21 -51s-7 -37 -21 -51s-30.667 -21 -50 -21zM-326 1203c-20 0 -37 7 -51 21s-21 31 -21 51s7 37 21 51s31 21 51 21c19.333 0 36 -7 50 -21s21 -31 21 -51
s-7 -37 -21 -51s-30.667 -21 -50 -21z" />
    <glyph glyph-name="uni030A" unicode="&#x30a;" horiz-adv-x="0" 
d="M-370 1258c0 -28.667 11.1709 -54.167 33.5039 -76.5s51.166 -33.5 86.499 -33.5s64.166 11.167 86.499 33.5s33.5 47.833 33.5 76.5c0 27.333 -11.333 52.333 -34 75s-51.334 34 -86.001 34s-63.334 -11.333 -86.001 -34s-34 -47.667 -34 -75zM-405.996 1258
c0 49.333 15.5 89.5 46.5 120.5s67.5 46.5 109.5 46.5c43.333 0 80.666 -15.667 111.999 -47s47 -71.333 47 -120c0 -49.333 -15.667 -89.666 -47 -120.999s-68.666 -47 -111.999 -47c-42 0 -78.5 15.667 -109.5 47s-46.5 71.666 -46.5 120.999z" />
    <glyph glyph-name="uni030C" unicode="&#x30c;" horiz-adv-x="0" 
d="M-624 1436h58l233 -266l233 266h58l-232 -302h-118z" />
    <glyph glyph-name="uni0327" unicode="&#x327;" horiz-adv-x="0" 
d="M-461 -310c56.667 -34.667 107.333 -51.999 152 -51.999c44 0 80.5 7.16699 109.5 21.5s43.5 43.166 43.5 86.499c0 50 -26.333 81.333 -79 94c-26.667 10.667 -60.667 16 -102 16c-10.667 0 -22 -0.666992 -34 -2l38 146h63l-37 -104
c21.333 2.66699 42 4.33398 62 5.00098c57.333 0 102 -13.5 134 -40.5s48 -64.833 48 -113.5c0 -50.667 -19.5 -90.834 -58.5 -120.501s-92.5 -44.5 -160.5 -44.5c-72.667 0 -135.667 10.667 -189 32z" />
    <glyph glyph-name="endash" unicode="&#x2013;" horiz-adv-x="1024" 
d="M64 446v67h668l2 -67h-670z" />
    <glyph glyph-name="emdash" unicode="&#x2014;" horiz-adv-x="2048" 
d="M128 446v67h1336l3 -67h-1339z" />
    <glyph glyph-name="quoteleft" unicode="&#x2018;" horiz-adv-x="328" 
d="M164 1348c-22.667 0 -18.3311 -52.333 13.002 -157c-64.667 98 -97 178.333 -97 241c0 23.333 8.16699 43.166 24.5 59.499s36.166 24.5 59.499 24.5s43.166 -8.16699 59.499 -24.5s24.5 -36.166 24.5 -59.499s-8 -43 -24 -59v-1c-16.667 -16 -36.667 -24 -60 -24z" />
    <glyph glyph-name="quoteright" unicode="&#x2019;" horiz-adv-x="328" 
d="M105 1372l-0.99707 1c-16 16 -24 35.667 -24 59s8.16699 43.166 24.5 59.499s36.166 24.5 59.499 24.5s43.166 -8.16699 59.499 -24.5s24.5 -36.166 24.5 -59.499c0 -62.667 -32.333 -143 -97 -241c31.333 104.667 35.666 157 12.999 157c-23.333 0 -43 8 -59 24z" />
    <glyph glyph-name="quotesinglbase" unicode="&#x201a;" horiz-adv-x="328" 
d="M105 17l-0.99707 1c-16 16 -24 35.667 -24 59s8.16699 43.166 24.5 59.499s36.166 24.5 59.499 24.5s43.166 -8.16699 59.499 -24.5s24.5 -36.166 24.5 -59.499c0 -62.667 -32.333 -143 -97 -241c31.333 104.667 35.666 157 12.999 157c-23.333 0 -43 8 -59 24z" />
    <glyph glyph-name="quotedblleft" unicode="&#x201c;" horiz-adv-x="580" 
d="M416 1392c-22.667 0 -18.3311 -52.333 13.002 -157c-64.667 98 -97 178.333 -97 241c0 23.333 8.16699 43.166 24.5 59.499s36.166 24.5 59.499 24.5s43.166 -8.16699 59.499 -24.5s24.5 -36.166 24.5 -59.499s-8 -43 -24 -59v-1c-16.667 -16 -36.667 -24 -60 -24z
M164.003 1392c-22.667 0 -18.3311 -52.333 13.002 -157c-64.667 98 -97 178.333 -97 241c0 23.333 8.16699 43.166 24.5 59.499s36.166 24.5 59.499 24.5s43.166 -8.16699 59.499 -24.5s24.5 -36.166 24.5 -59.499s-8 -43 -24 -59v-1c-16.667 -16 -36.667 -24 -60 -24z" />
    <glyph glyph-name="quotedblright" unicode="&#x201d;" horiz-adv-x="580" 
d="M105 1416l-0.99707 1c-16 16 -24 35.667 -24 59s8.16699 43.166 24.5 59.499s36.166 24.5 59.499 24.5s43.166 -8.16699 59.499 -24.5s24.5 -36.166 24.5 -59.499c0 -62.667 -32.333 -143 -97 -241c31.333 104.667 35.666 157 12.999 157c-23.333 0 -43 8 -59 24z
M357.003 1416l-0.99707 1c-16 16 -24 35.667 -24 59s8.16699 43.166 24.5 59.499s36.166 24.5 59.499 24.5s43.166 -8.16699 59.499 -24.5s24.5 -36.166 24.5 -59.499c0 -62.667 -32.333 -143 -97 -241c31.333 104.667 35.666 157 12.999 157c-23.333 0 -43 8 -59 24z" />
    <glyph glyph-name="quotedblbase" unicode="&#x201e;" horiz-adv-x="580" 
d="M105 17l-0.99707 1c-16 16 -24 35.667 -24 59s8.16699 43.166 24.5 59.499s36.166 24.5 59.499 24.5s43.166 -8.16699 59.499 -24.5s24.5 -36.166 24.5 -59.499c0 -62.667 -32.333 -143 -97 -241c31.333 104.667 35.666 157 12.999 157c-23.333 0 -43 8 -59 24z
M357.003 17l-0.99707 1c-16 16 -24 35.667 -24 59s8.16699 43.166 24.5 59.499s36.166 24.5 59.499 24.5s43.166 -8.16699 59.499 -24.5s24.5 -36.166 24.5 -59.499c0 -62.667 -32.333 -143 -97 -241c31.333 104.667 35.666 157 12.999 157c-23.333 0 -43 8 -59 24z" />
    <glyph glyph-name="bullet" unicode="&#x2022;" horiz-adv-x="495" 
d="M247 549c-46 0 -85.333 16.5 -118 49.5s-49 72.5 -49 118.5s16.333 85.5 49 118.5s72 49.5 118 49.5c46.667 0 86.334 -16.5 119.001 -49.5s49 -72.5 49 -118.5s-16.333 -85.5 -49 -118.5s-72.334 -49.5 -119.001 -49.5z" />
    <glyph glyph-name="ellipsis" unicode="&#x2026;" horiz-adv-x="1694" 
d="M164 -3c-23.333 0 -43.166 8.16699 -59.499 24.5s-24.5 36.166 -24.5 59.499s8.16699 43.166 24.5 59.499s36.166 24.5 59.499 24.5s43.166 -8.16699 59.499 -24.5s24.5 -36.166 24.5 -59.499s-8.16699 -43.166 -24.5 -59.499s-36.166 -24.5 -59.499 -24.5zM847 -3
c-23.333 0 -43.166 8.16699 -59.499 24.5s-24.5 36.166 -24.5 59.499s8.16699 43.166 24.5 59.499s36.166 24.5 59.499 24.5s43.166 -8.16699 59.499 -24.5s24.5 -36.166 24.5 -59.499s-8.16699 -43.166 -24.5 -59.499s-36.166 -24.5 -59.499 -24.5zM1530 -3
c-23.333 0 -43.166 8.16699 -59.499 24.5s-24.5 36.166 -24.5 59.499s8.16699 43.166 24.5 59.499s36.166 24.5 59.499 24.5s43.166 -8.16699 59.499 -24.5s24.5 -36.166 24.5 -59.499s-8.16699 -43.166 -24.5 -59.499s-36.166 -24.5 -59.499 -24.5z" />
    <glyph glyph-name="N_N" horiz-adv-x="2072" 
d="M1063 -4l-53.9971 0.000976562l-851 1209v-1084c0 -26.667 3.5 -48 10.5 -64s15.5 -28 25.5 -36s20.167 -13.333 30.5 -16s19.166 -4 26.499 -4h10v-5h-261v5h10c6.66699 0 15 1.33301 25 4c43.333 11.333 66 48 68 110v1193
c-0.666992 25.333 -4.66699 45.666 -12 60.999c-12 26.667 -30.333 43.334 -55 50.001c-10 2.66699 -18.667 4 -26 4l-10 -1v6l158 -1l851 -1208v1082c-0.666992 26.667 -4.33398 47.667 -11.001 63c-12 28 -30.667 45.667 -56 53c-10.667 2.66699 -19.334 4 -26.001 4h-11
v5h262v-5h-10c-6.66699 0 -15 -1.33301 -25 -4c-42 -10.667 -65 -45.334 -69 -104.001v-1317zM1968 -3.99902l-53.998 0.000976562l-851 1209v-1084l-55 -6v1193c-0.666992 25.333 -4.66699 45.666 -12 60.999c-12 26.667 -30.333 43.334 -55 50.001
c-10 2.66699 -18.667 4 -26 4l-10 -1v6l158 -1l851 -1208v1082c-0.666992 26.667 -4.33398 47.667 -11.001 63c-12 28 -30.667 45.667 -56 53c-10.667 2.66699 -19.334 4 -26.001 4h-11v5h262v-5h-10c-6.66699 0 -15 -1.33301 -25 -4c-42 -10.667 -65 -45.334 -69 -104.001
v-1317z" />
    </font>
</defs>
</svg>
